<?xml version="1.0" encoding="UTF-8" standalone="no"?>
<!-- Created with Inkscape (http://www.inkscape.org/) -->

<svg
   xmlns:dc="http://purl.org/dc/elements/1.1/"
   xmlns:cc="http://creativecommons.org/ns#"
   xmlns:rdf="http://www.w3.org/1999/02/22-rdf-syntax-ns#"
   xmlns:svg="http://www.w3.org/2000/svg"
   xmlns="http://www.w3.org/2000/svg"
   xmlns:sodipodi="http://sodipodi.sourceforge.net/DTD/sodipodi-0.dtd"
   xmlns:inkscape="http://www.inkscape.org/namespaces/inkscape"
   width="210mm"
   height="297mm"
   viewBox="0 0 210 297"
   version="1.1"
   id="svg8"
   inkscape:version="0.92.3 (unknown)"
   sodipodi:docname="example.svg">
  <defs
     id="defs2" />
  <sodipodi:namedview
     id="base"
     pagecolor="#ffffff"
     bordercolor="#666666"
     borderopacity="1.0"
     inkscape:pageopacity="0.0"
     inkscape:pageshadow="2"
     inkscape:zoom="1.4"
     inkscape:cx="437.19559"
     inkscape:cy="367.45606"
     inkscape:document-units="mm"
     inkscape:current-layer="layer1"
     showgrid="false"
     inkscape:window-width="1855"
     inkscape:window-height="1056"
     inkscape:window-x="65"
     inkscape:window-y="24"
     inkscape:window-maximized="1" />
  <metadata
     id="metadata5">
    <rdf:RDF>
      <cc:Work
         rdf:about="">
        <dc:format>image/svg+xml</dc:format>
        <dc:type
           rdf:resource="http://purl.org/dc/dcmitype/StillImage" />
        <dc:title></dc:title>
      </cc:Work>
    </rdf:RDF>
  </metadata>
  <g
     inkscape:label="Layer 1"
     inkscape:groupmode="layer"
     id="layer1">
    <rect
       style="fill:#000000;fill-opacity:1;stroke:#000000;stroke-width:1.75431502;stroke-miterlimit:4;stroke-dasharray:none;stroke-dashoffset:0;stroke-opacity:1"
       id="rect853"
       width="32.40205"
       height="163.77324"
       x="146.78883"
       y="-189.29301"
       transform="matrix(0.00842507,0.99996451,-0.99999861,0.00166884,0,0)" />
    <rect
       style="fill:#000000;fill-opacity:0.39024389;stroke:none;stroke-width:1.76510572;stroke-miterlimit:4;stroke-dasharray:none;stroke-dashoffset:0;stroke-opacity:1"
       id="rect855"
       width="7.0686231"
       height="165.51338"
       x="179.19421"
       y="-190.12741"
       transform="matrix(0.00837539,0.99996493,-0.99999859,0.00167874,0,0)" />
    <rect
       style="fill:#000000;fill-opacity:0.39024389;stroke:none;stroke-width:1.76438594;stroke-miterlimit:4;stroke-dasharray:none;stroke-dashoffset:0;stroke-opacity:1"
       id="rect855-7"
       width="7.0686221"
       height="165.37846"
       x="139.4144"
       y="-190.0854"
       transform="matrix(0.0083563,0.99996509,-0.99999858,0.00168258,0,0)" />
    <rect
       style="fill:#f3ff00;fill-opacity:1;stroke:none;stroke-width:1.71996117;stroke-miterlimit:4;stroke-dasharray:none;stroke-dashoffset:0;stroke-opacity:1"
       id="rect874"
       width="1.4137241"
       height="14.088112"
       x="162.28389"
       y="-188.19571"
       transform="matrix(0.00837539,0.99996493,-0.99999859,0.00167874,0,0)" />
    <rect
       style="fill:#f3ff00;fill-opacity:1;stroke:none;stroke-width:1.71996117;stroke-miterlimit:4;stroke-dasharray:none;stroke-dashoffset:0;stroke-opacity:1"
       id="rect874-5"
       width="1.4137241"
       height="14.088112"
       x="162.28389"
       y="-158.23172"
       transform="matrix(0.00837539,0.99996493,-0.99999859,0.00167874,0,0)" />
    <rect
       style="fill:#f3ff00;fill-opacity:1;stroke:none;stroke-width:1.71996117;stroke-miterlimit:4;stroke-dasharray:none;stroke-dashoffset:0;stroke-opacity:1"
       id="rect874-5-3"
       width="1.4137241"
       height="14.088112"
       x="162.28389"
       y="-68.339882"
       transform="matrix(0.00837539,0.99996493,-0.99999859,0.00167874,0,0)" />
    <rect
       style="fill:#f3ff00;fill-opacity:1;stroke:none;stroke-width:1.71996117;stroke-miterlimit:4;stroke-dasharray:none;stroke-dashoffset:0;stroke-opacity:1"
       id="rect874-5-5"
       width="1.4137241"
       height="14.088112"
       x="162.28389"
       y="-38.375938"
       transform="matrix(0.00837539,0.99996493,-0.99999859,0.00167874,0,0)" />
    <rect
       style="fill:#f3ff00;fill-opacity:1;stroke:none;stroke-width:1.71996117;stroke-miterlimit:4;stroke-dasharray:none;stroke-dashoffset:0;stroke-opacity:1"
       id="rect874-5-3-6"
       width="1.4137241"
       height="14.088112"
       x="162.28389"
       y="-98.303848"
       transform="matrix(0.00837539,0.99996493,-0.99999859,0.00167874,0,0)" />
    <rect
       style="fill:#ffffff;fill-opacity:1;stroke:none;stroke-width:2;stroke-miterlimit:4;stroke-dasharray:none;stroke-dashoffset:0;stroke-opacity:1"
       id="rect4807"
       width="15.119047"
       height="4.3467264"
       x="118.11755"
       y="146.75447" />
    <rect
       style="fill:#ffffff;fill-opacity:1;stroke:none;stroke-width:2;stroke-miterlimit:4;stroke-dasharray:none;stroke-dashoffset:0;stroke-opacity:1"
       id="rect4807-2"
       width="15.119047"
       height="4.3467264"
       x="118.11755"
       y="152.5564" />
    <rect
       style="fill:#ffffff;fill-opacity:1;stroke:none;stroke-width:2;stroke-miterlimit:4;stroke-dasharray:none;stroke-dashoffset:0;stroke-opacity:1"
       id="rect4807-2-6"
       width="15.119047"
       height="4.3467264"
       x="118.11755"
       y="158.35832" />
    <rect
       style="fill:#ffffff;fill-opacity:1;stroke:none;stroke-width:2;stroke-miterlimit:4;stroke-dasharray:none;stroke-dashoffset:0;stroke-opacity:1"
       id="rect4807-2-6-1"
       width="15.119047"
       height="4.3467264"
       x="118.11755"
       y="164.16025" />
    <rect
       style="fill:#ffffff;fill-opacity:1;stroke:none;stroke-width:2;stroke-miterlimit:4;stroke-dasharray:none;stroke-dashoffset:0;stroke-opacity:1"
       id="rect4807-2-6-1-8"
       width="15.119047"
       height="4.3467264"
       x="118.11755"
       y="169.96217" />
    <rect
       style="fill:#ffffff;fill-opacity:1;stroke:none;stroke-width:2;stroke-miterlimit:4;stroke-dasharray:none;stroke-dashoffset:0;stroke-opacity:1"
       id="rect4807-2-6-1-8-7"
       width="15.119047"
       height="4.3467264"
       x="118.11755"
       y="175.7641" />
    <g
       id="g5033"
       transform="matrix(-0.00186672,0.46750312,-0.46750312,-0.00186672,54.910017,160.91497)">
      <g
         id="g4962">
	<path
   id="path4930"
   d="M 29.395,0 H 17.636 c -3.117,0 -5.643,3.467 -5.643,6.584 v 34.804 c 0,3.116 2.526,5.644 5.643,5.644 h 11.759 c 3.116,0 5.644,-2.527 5.644,-5.644 V 6.584 C 35.037,3.467 32.511,0 29.395,0 Z m 4.655,14.188 v 11.665 l -2.729,0.351 v -4.806 z m -1.432,-3.415 c -1.016,3.9 -2.219,8.51 -2.219,8.51 H 16.631 l -2.222,-8.51 c 10e-4,0 8.884,-3.018 18.209,0 z m -16.877,10.94 v 4.492 l -2.73,-0.349 V 14.502 Z m -2.73,16.225 V 27.579 l 2.73,0.343 v 8.196 z m 1.557,2.944 2.218,-3.336 h 13.771 l 2.219,3.336 z m 16.753,-5.077 v -7.872 l 2.729,-0.355 v 10.048 z"
   inkscape:connector-curvature="0"
   style="fill:#006df0" />

	<g
   id="g4932">
	</g>

	<g
   id="g4934">
	</g>

	<g
   id="g4936">
	</g>

	<g
   id="g4938">
	</g>

	<g
   id="g4940">
	</g>

	<g
   id="g4942">
	</g>

	<g
   id="g4944">
	</g>

	<g
   id="g4946">
	</g>

	<g
   id="g4948">
	</g>

	<g
   id="g4950">
	</g>

	<g
   id="g4952">
	</g>

	<g
   id="g4954">
	</g>

	<g
   id="g4956">
	</g>

	<g
   id="g4958">
	</g>

	<g
   id="g4960">
	</g>

</g>
      <g
         id="g4964">
</g>
      <g
         id="g4966">
</g>
      <g
         id="g4968">
</g>
      <g
         id="g4970">
</g>
      <g
         id="g4972">
</g>
      <g
         id="g4974">
</g>
      <g
         id="g4976">
</g>
      <g
         id="g4978">
</g>
      <g
         id="g4980">
</g>
      <g
         id="g4982">
</g>
      <g
         id="g4984">
</g>
      <g
         id="g4986">
</g>
      <g
         id="g4988">
</g>
      <g
         id="g4990">
</g>
      <g
         id="g4992">
</g>
    </g>
    <g
       id="g5099"
       transform="matrix(0.02258638,0,0,0.01883218,120.28643,176.47655)">
      <g
         id="g5041">
	<g
   id="g5039">
		<path
   id="path5035"
   d="m 223.821,76.022 c 10.333,-0.333 19,-4.333 26,-12 7,-7.667 10.333,-16.667 10,-27 -0.333,-10.335 -4.167,-19.168 -11.5,-26.5 -7.333,-7.333 -16.167,-10.833 -26.5,-10.5 -10.333,0.333 -19,4.333 -26,12 -7,7.667 -10.5,16.667 -10.5,27 0,10.333 3.833,19.167 11.5,26.5 7.667,7.333 16.667,10.833 27,10.5 z"
   style="fill:#010002"
   inkscape:connector-curvature="0" />

		<path
   id="path5037"
   d="m 350.321,202.522 -55,-30 -45,-72 c -8.667,-10.667 -19.333,-16 -32,-16 -8.667,0 -17,3.667 -25,11 l -68,69 c -2,2.667 -3.333,5.667 -4,9 l -9,77 v 2 c 0,4.666 1.667,8.666 5,12 3.333,3.332 7.333,5 12,5 4.667,0 8.5,-1.668 11.5,-5 3,-3.334 4.833,-7 5.5,-11 l 7,-66 24,-24 -22,184 -39,87.001 c -1.333,4 -2,7.658 -2,11.002 0,7.322 2.5,13.5 7.5,18.5 5,5 11.167,7.164 18.5,6.5 10,0 17.333,-4.678 22,-14 l 42,-94.002 c 0,-0.67 0.333,-1.835 1,-3.5 0.668,-1.67 1.335,-3.17 2,-4.5 0.667,-1.335 1,-2.67 1,-4 l 5,-45.001 43,148.003 c 4.667,12 13,17.666 25,17 6.667,0 12.5,-2.5 17.5,-7.5 5,-5 7.5,-11.178 7.5,-18.5 0,-0.678 -0.167,-1.5 -0.5,-2.5 -0.333,-1 -0.5,-1.836 -0.5,-2.502 l -60,-205.001 7,-67 17,27 c 1.333,2 3,3.667 5,5 l 59,33 c 4,1.333 6.667,2 8,2 4.667,0 8.667,-1.833 12,-5.5 3.333,-3.668 5,-7.834 5,-12.5 0,-6 -2.667,-10.667 -8,-14 z"
   style="fill:#010002"
   inkscape:connector-curvature="0" />

	</g>

</g>
      <g
         id="g5043">
</g>
      <g
         id="g5045">
</g>
      <g
         id="g5047">
</g>
      <g
         id="g5049">
</g>
      <g
         id="g5051">
</g>
      <g
         id="g5053">
</g>
      <g
         id="g5055">
</g>
      <g
         id="g5057">
</g>
      <g
         id="g5059">
</g>
      <g
         id="g5061">
</g>
      <g
         id="g5063">
</g>
      <g
         id="g5065">
</g>
      <g
         id="g5067">
</g>
      <g
         id="g5069">
</g>
      <g
         id="g5071">
</g>
    </g>
  </g>
</svg>
