<?xml version="1.0" encoding="UTF-8" standalone="no"?>
<!-- Created with Inkscape (http://www.inkscape.org/) -->

<svg
   xmlns:dc="http://purl.org/dc/elements/1.1/"
   xmlns:cc="http://creativecommons.org/ns#"
   xmlns:rdf="http://www.w3.org/1999/02/22-rdf-syntax-ns#"
   xmlns:svg="http://www.w3.org/2000/svg"
   xmlns="http://www.w3.org/2000/svg"
   xmlns:sodipodi="http://sodipodi.sourceforge.net/DTD/sodipodi-0.dtd"
   xmlns:inkscape="http://www.inkscape.org/namespaces/inkscape"
   id="svg2"
   version="1.1"
   inkscape:version="0.91 r13725"
   xml:space="preserve"
   width="1498.75"
   height="735"
   viewBox="0 0 1498.75 735"
   sodipodi:docname="regC.svg"><metadata
     id="metadata8"><rdf:RDF><cc:Work
         rdf:about=""><dc:format>image/svg+xml</dc:format><dc:type
           rdf:resource="http://purl.org/dc/dcmitype/StillImage" /></cc:Work></rdf:RDF></metadata><defs
     id="defs6"><marker
       inkscape:stockid="Arrow2Mend"
       orient="auto"
       refY="0.0"
       refX="0.0"
       id="marker4822"
       style="overflow:visible;"
       inkscape:isstock="true"><path
         id="path4824"
         style="fill-rule:evenodd;stroke-width:0.625;stroke-linejoin:round;stroke:#000000;stroke-opacity:1;fill:#000000;fill-opacity:1"
         d="M 8.7185878,4.0337352 L -2.2072895,0.016013256 L 8.7185884,-4.0017078 C 6.9730900,-1.6296469 6.9831476,1.6157441 8.7185878,4.0337352 z "
         transform="scale(0.6) rotate(180) translate(0,0)" /></marker><marker
       inkscape:stockid="Arrow2Lend"
       orient="auto"
       refY="0.0"
       refX="0.0"
       id="Arrow2Lend"
       style="overflow:visible;"
       inkscape:isstock="true"><path
         id="path4533"
         style="fill-rule:evenodd;stroke-width:0.625;stroke-linejoin:round;stroke:#000000;stroke-opacity:1;fill:#000000;fill-opacity:1"
         d="M 8.7185878,4.0337352 L -2.2072895,0.016013256 L 8.7185884,-4.0017078 C 6.9730900,-1.6296469 6.9831476,1.6157441 8.7185878,4.0337352 z "
         transform="scale(1.1) rotate(180) translate(1,0)" /></marker><marker
       inkscape:stockid="Arrow2Mend"
       orient="auto"
       refY="0.0"
       refX="0.0"
       id="Arrow2Mend"
       style="overflow:visible;"
       inkscape:isstock="true"><path
         id="path4539"
         style="fill-rule:evenodd;stroke-width:0.625;stroke-linejoin:round;stroke:#000000;stroke-opacity:1;fill:#000000;fill-opacity:1"
         d="M 8.7185878,4.0337352 L -2.2072895,0.016013256 L 8.7185884,-4.0017078 C 6.9730900,-1.6296469 6.9831476,1.6157441 8.7185878,4.0337352 z "
         transform="scale(0.6) rotate(180) translate(0,0)" /></marker><clipPath
       clipPathUnits="userSpaceOnUse"
       id="clipPath254"><path
         d="m 4245,5507.5 3920.83,0 0,-4929.168 -3920.83,0 0,4929.168 z"
         id="path256"
         inkscape:connector-curvature="0" /></clipPath><clipPath
       clipPathUnits="userSpaceOnUse"
       id="clipPath282"><path
         d="m 4245,5507.5 3920.83,0 0,-4929.168 -3920.83,0 0,4929.168 z"
         id="path284"
         inkscape:connector-curvature="0" /></clipPath><clipPath
       clipPathUnits="userSpaceOnUse"
       id="clipPath342"><path
         d="m 5725.83,3439.17 1301.67,0 0,-590.84 -1301.67,0 0,590.84 z"
         id="path344"
         inkscape:connector-curvature="0" /></clipPath><clipPath
       clipPathUnits="userSpaceOnUse"
       id="clipPath358"><path
         d="m 5725.83,3439.17 1301.67,0 0,-590.84 -1301.67,0 0,590.84 z"
         id="path360"
         inkscape:connector-curvature="0" /></clipPath><clipPath
       clipPathUnits="userSpaceOnUse"
       id="clipPath374"><path
         d="m 5725.83,3439.17 1301.67,0 0,-590.84 -1301.67,0 0,590.84 z"
         id="path376"
         inkscape:connector-curvature="0" /></clipPath></defs><sodipodi:namedview
     pagecolor="#ffffff"
     bordercolor="#666666"
     borderopacity="1"
     objecttolerance="10"
     gridtolerance="10"
     guidetolerance="10"
     inkscape:pageopacity="0"
     inkscape:pageshadow="2"
     inkscape:window-width="1920"
     inkscape:window-height="1058"
     id="namedview4"
     showgrid="false"
     inkscape:zoom="1.4116187"
     inkscape:cx="701.07574"
     inkscape:cy="334.74382"
     inkscape:window-x="-8"
     inkscape:window-y="-8"
     inkscape:window-maximized="1"
     inkscape:current-layer="g10" /><g
     id="g10"
     inkscape:groupmode="layer"
     inkscape:label="ink_ext_XXXXXX"
     transform="matrix(1.25,0,0,-1.25,0,735)"><g
       id="g4908"><g
         transform="scale(0.1,0.1)"
         id="g12"><path
           inkscape:connector-curvature="0"
           id="path14"
           style="fill:#ffffff;fill-opacity:1;fill-rule:nonzero;stroke:none"
           d="m 0,0 11990,0 0,5880 L 0,5880 0,0 Z" /><path
           inkscape:connector-curvature="0"
           id="path16"
           style="fill:#ffffff;fill-opacity:1;fill-rule:evenodd;stroke:none"
           d="m 4245,579.168 3920,0 0,4920.83 -3920,0 0,-4920.83 z" /><path
           inkscape:connector-curvature="0"
           id="path18"
           style="fill:none;stroke:#ffffff;stroke-width:5;stroke-linecap:butt;stroke-linejoin:round;stroke-miterlimit:10;stroke-dasharray:none;stroke-opacity:1"
           d="m 4245,5500 3920,0 0,-4920.832 -3920,0 0,4920.832" /><path
           inkscape:connector-curvature="0"
           id="path20"
           style="fill:#ffffff;fill-opacity:1;fill-rule:evenodd;stroke:none"
           d="m 4245,5500 3920,0 0,7.5 -3920,0 0,-7.5 z" /><path
           inkscape:connector-curvature="0"
           id="path22"
           style="fill:none;stroke:#ffffff;stroke-width:5;stroke-linecap:butt;stroke-linejoin:round;stroke-miterlimit:10;stroke-dasharray:none;stroke-opacity:1"
           d="m 4245,5500 0,7.5 3920,0 0,-7.5 -3920,0" /><path
           inkscape:connector-curvature="0"
           id="path24"
           style="fill:none;stroke:#000000;stroke-width:3.33332992;stroke-linecap:butt;stroke-linejoin:round;stroke-miterlimit:10;stroke-dasharray:5, 40;stroke-dashoffset:0;stroke-opacity:1"
           d="m 8165,5298.33 -3920,0" /><path
           inkscape:connector-curvature="0"
           id="path26"
           style="fill:none;stroke:#000000;stroke-width:3.33332992;stroke-linecap:butt;stroke-linejoin:round;stroke-miterlimit:10;stroke-dasharray:5, 40;stroke-dashoffset:0;stroke-opacity:1"
           d="m 4245,5298.33 0,8.34" /><path
           inkscape:connector-curvature="0"
           id="path28"
           style="fill:none;stroke:#000000;stroke-width:3.33332992;stroke-linecap:butt;stroke-linejoin:round;stroke-miterlimit:10;stroke-dasharray:5, 40;stroke-dashoffset:0;stroke-opacity:1"
           d="m 8165,4751.67 -3920,0" /><path
           inkscape:connector-curvature="0"
           id="path30"
           style="fill:none;stroke:#000000;stroke-width:3.33332992;stroke-linecap:butt;stroke-linejoin:round;stroke-miterlimit:10;stroke-dasharray:5, 40;stroke-dashoffset:0;stroke-opacity:1"
           d="m 4245,4751.67 0,7.5" /><path
           inkscape:connector-curvature="0"
           id="path32"
           style="fill:none;stroke:#000000;stroke-width:3.33332992;stroke-linecap:butt;stroke-linejoin:round;stroke-miterlimit:10;stroke-dasharray:5, 40;stroke-dashoffset:0;stroke-opacity:1"
           d="m 8165,4205 -3920,0" /><path
           inkscape:connector-curvature="0"
           id="path34"
           style="fill:none;stroke:#000000;stroke-width:3.33332992;stroke-linecap:butt;stroke-linejoin:round;stroke-miterlimit:10;stroke-dasharray:5, 40;stroke-dashoffset:0;stroke-opacity:1"
           d="m 4245,4205 0,7.5" /><path
           inkscape:connector-curvature="0"
           id="path36"
           style="fill:none;stroke:#000000;stroke-width:3.33332992;stroke-linecap:butt;stroke-linejoin:round;stroke-miterlimit:10;stroke-dasharray:5, 40;stroke-dashoffset:0;stroke-opacity:1"
           d="m 8165,3658.33 -3920,0" /><path
           inkscape:connector-curvature="0"
           id="path38"
           style="fill:none;stroke:#000000;stroke-width:3.33332992;stroke-linecap:butt;stroke-linejoin:round;stroke-miterlimit:10;stroke-dasharray:5, 40;stroke-dashoffset:0;stroke-opacity:1"
           d="m 4245,3658.33 0,7.5" /><path
           inkscape:connector-curvature="0"
           id="path40"
           style="fill:none;stroke:#000000;stroke-width:3.33332992;stroke-linecap:butt;stroke-linejoin:round;stroke-miterlimit:10;stroke-dasharray:5, 40;stroke-dashoffset:0;stroke-opacity:1"
           d="m 8165,3111.67 -3920,0" /><path
           inkscape:connector-curvature="0"
           id="path42"
           style="fill:none;stroke:#000000;stroke-width:3.33332992;stroke-linecap:butt;stroke-linejoin:round;stroke-miterlimit:10;stroke-dasharray:5, 40;stroke-dashoffset:0;stroke-opacity:1"
           d="m 4245,3111.67 0,7.5" /><path
           inkscape:connector-curvature="0"
           id="path44"
           style="fill:none;stroke:#000000;stroke-width:3.33332992;stroke-linecap:butt;stroke-linejoin:round;stroke-miterlimit:10;stroke-dasharray:5, 40;stroke-dashoffset:0;stroke-opacity:1"
           d="m 8165,2564.17 -3920,0" /><path
           inkscape:connector-curvature="0"
           id="path46"
           style="fill:none;stroke:#000000;stroke-width:3.33332992;stroke-linecap:butt;stroke-linejoin:round;stroke-miterlimit:10;stroke-dasharray:5, 40;stroke-dashoffset:0;stroke-opacity:1"
           d="m 4245,2564.17 0,8.33" /><path
           inkscape:connector-curvature="0"
           id="path48"
           style="fill:none;stroke:#000000;stroke-width:3.33332992;stroke-linecap:butt;stroke-linejoin:round;stroke-miterlimit:10;stroke-dasharray:5, 40;stroke-dashoffset:0;stroke-opacity:1"
           d="m 8165,2017.5 -3920,0" /><path
           inkscape:connector-curvature="0"
           id="path50"
           style="fill:none;stroke:#000000;stroke-width:3.33332992;stroke-linecap:butt;stroke-linejoin:round;stroke-miterlimit:10;stroke-dasharray:5, 40;stroke-dashoffset:0;stroke-opacity:1"
           d="m 4245,2017.5 0,7.5" /><path
           inkscape:connector-curvature="0"
           id="path52"
           style="fill:none;stroke:#000000;stroke-width:3.33332992;stroke-linecap:butt;stroke-linejoin:round;stroke-miterlimit:10;stroke-dasharray:5, 40;stroke-dashoffset:0;stroke-opacity:1"
           d="m 8165,1470.83 -3920,0" /><path
           inkscape:connector-curvature="0"
           id="path54"
           style="fill:none;stroke:#000000;stroke-width:3.33332992;stroke-linecap:butt;stroke-linejoin:round;stroke-miterlimit:10;stroke-dasharray:5, 40;stroke-dashoffset:0;stroke-opacity:1"
           d="m 4245,1470.83 0,7.5" /><path
           inkscape:connector-curvature="0"
           id="path56"
           style="fill:none;stroke:#000000;stroke-width:3.33332992;stroke-linecap:butt;stroke-linejoin:round;stroke-miterlimit:10;stroke-dasharray:5, 40;stroke-dashoffset:0;stroke-opacity:1"
           d="m 8165,924.168 -3920,0" /><path
           inkscape:connector-curvature="0"
           id="path58"
           style="fill:none;stroke:#000000;stroke-width:3.33332992;stroke-linecap:butt;stroke-linejoin:round;stroke-miterlimit:10;stroke-dasharray:5, 40;stroke-dashoffset:0;stroke-opacity:1"
           d="m 4245,924.168 0,7.5" /><path
           inkscape:connector-curvature="0"
           id="path60"
           style="fill:none;stroke:#000000;stroke-width:3.33332992;stroke-linecap:butt;stroke-linejoin:round;stroke-miterlimit:10;stroke-dasharray:5, 40;stroke-dashoffset:0;stroke-opacity:1"
           d="m 4511.67,579.168 0,4920.832" /><path
           inkscape:connector-curvature="0"
           id="path62"
           style="fill:none;stroke:#000000;stroke-width:3.33332992;stroke-linecap:butt;stroke-linejoin:round;stroke-miterlimit:10;stroke-dasharray:5, 40;stroke-dashoffset:0;stroke-opacity:1"
           d="m 4511.67,5500 0,7.5" /><path
           inkscape:connector-curvature="0"
           id="path64"
           style="fill:none;stroke:#000000;stroke-width:3.33332992;stroke-linecap:butt;stroke-linejoin:round;stroke-miterlimit:10;stroke-dasharray:5, 40;stroke-dashoffset:0;stroke-opacity:1"
           d="m 5063.33,579.168 0,4920.832" /><path
           inkscape:connector-curvature="0"
           id="path66"
           style="fill:none;stroke:#000000;stroke-width:3.33332992;stroke-linecap:butt;stroke-linejoin:round;stroke-miterlimit:10;stroke-dasharray:5, 40;stroke-dashoffset:0;stroke-opacity:1"
           d="m 5063.33,5500 0,7.5" /><path
           inkscape:connector-curvature="0"
           id="path68"
           style="fill:none;stroke:#000000;stroke-width:3.33332992;stroke-linecap:butt;stroke-linejoin:round;stroke-miterlimit:10;stroke-dasharray:5, 40;stroke-dashoffset:0;stroke-opacity:1"
           d="m 5615.83,579.168 0,4920.832" /><path
           inkscape:connector-curvature="0"
           id="path70"
           style="fill:none;stroke:#000000;stroke-width:3.33332992;stroke-linecap:butt;stroke-linejoin:round;stroke-miterlimit:10;stroke-dasharray:5, 40;stroke-dashoffset:0;stroke-opacity:1"
           d="m 5615.83,5500 0,7.5" /><path
           inkscape:connector-curvature="0"
           id="path72"
           style="fill:none;stroke:#000000;stroke-width:3.33332992;stroke-linecap:butt;stroke-linejoin:round;stroke-miterlimit:10;stroke-dasharray:5, 40;stroke-dashoffset:0;stroke-opacity:1"
           d="m 6168.33,579.168 0,4920.832" /><path
           inkscape:connector-curvature="0"
           id="path74"
           style="fill:none;stroke:#000000;stroke-width:3.33332992;stroke-linecap:butt;stroke-linejoin:round;stroke-miterlimit:10;stroke-dasharray:5, 40;stroke-dashoffset:0;stroke-opacity:1"
           d="m 6168.33,5500 0,7.5" /><path
           inkscape:connector-curvature="0"
           id="path76"
           style="fill:none;stroke:#000000;stroke-width:3.33332992;stroke-linecap:butt;stroke-linejoin:round;stroke-miterlimit:10;stroke-dasharray:5, 40;stroke-dashoffset:0;stroke-opacity:1"
           d="M 6720,579.168 6720,5500" /><path
           inkscape:connector-curvature="0"
           id="path78"
           style="fill:none;stroke:#000000;stroke-width:3.33332992;stroke-linecap:butt;stroke-linejoin:round;stroke-miterlimit:10;stroke-dasharray:5, 40;stroke-dashoffset:0;stroke-opacity:1"
           d="m 6720,5500 0,7.5" /><path
           inkscape:connector-curvature="0"
           id="path80"
           style="fill:none;stroke:#000000;stroke-width:3.33332992;stroke-linecap:butt;stroke-linejoin:round;stroke-miterlimit:10;stroke-dasharray:5, 40;stroke-dashoffset:0;stroke-opacity:1"
           d="m 7272.5,579.168 0,4920.832" /><path
           inkscape:connector-curvature="0"
           id="path82"
           style="fill:none;stroke:#000000;stroke-width:3.33332992;stroke-linecap:butt;stroke-linejoin:round;stroke-miterlimit:10;stroke-dasharray:5, 40;stroke-dashoffset:0;stroke-opacity:1"
           d="m 7272.5,5500 0,7.5" /><path
           inkscape:connector-curvature="0"
           id="path84"
           style="fill:none;stroke:#000000;stroke-width:3.33332992;stroke-linecap:butt;stroke-linejoin:round;stroke-miterlimit:10;stroke-dasharray:5, 40;stroke-dashoffset:0;stroke-opacity:1"
           d="M 7825,579.168 7825,5500" /><path
           inkscape:connector-curvature="0"
           id="path86"
           style="fill:none;stroke:#000000;stroke-width:3.33332992;stroke-linecap:butt;stroke-linejoin:round;stroke-miterlimit:10;stroke-dasharray:5, 40;stroke-dashoffset:0;stroke-opacity:1"
           d="m 7825,5500 0,7.5" /><path
           inkscape:connector-curvature="0"
           id="path88"
           style="fill:none;stroke:#000000;stroke-width:3.33332992;stroke-linecap:butt;stroke-linejoin:round;stroke-miterlimit:10;stroke-dasharray:5, 40;stroke-dashoffset:0;stroke-opacity:1"
           d="M 4245,579.168 4245,5500" /><path
           inkscape:connector-curvature="0"
           id="path90"
           style="fill:none;stroke:#000000;stroke-width:3.33332992;stroke-linecap:butt;stroke-linejoin:round;stroke-miterlimit:10;stroke-dasharray:5, 40;stroke-dashoffset:0;stroke-opacity:1"
           d="m 4245,5500 3920,0" /><path
           inkscape:connector-curvature="0"
           id="path92"
           style="fill:none;stroke:#000000;stroke-width:3.33332992;stroke-linecap:butt;stroke-linejoin:round;stroke-miterlimit:10;stroke-dasharray:5, 40;stroke-dashoffset:0;stroke-opacity:1"
           d="m 4245,582.5 0,4921.67" /><path
           inkscape:connector-curvature="0"
           id="path94"
           style="fill:none;stroke:#000000;stroke-width:3.33332992;stroke-linecap:butt;stroke-linejoin:round;stroke-miterlimit:10;stroke-dasharray:5, 40;stroke-dashoffset:0;stroke-opacity:1"
           d="m 4245,5504.17 3920,0" /><path
           inkscape:connector-curvature="0"
           id="path96"
           style="fill:none;stroke:#000000;stroke-width:3.33332992;stroke-linecap:butt;stroke-linejoin:round;stroke-miterlimit:10;stroke-dasharray:5, 40;stroke-dashoffset:0;stroke-opacity:1"
           d="m 4245,586.668 0,4920.832" /><path
           inkscape:connector-curvature="0"
           id="path98"
           style="fill:none;stroke:#000000;stroke-width:3.33332992;stroke-linecap:butt;stroke-linejoin:round;stroke-miterlimit:10;stroke-dasharray:5, 40;stroke-dashoffset:0;stroke-opacity:1"
           d="m 4245,5507.5 3920,0" /><path
           inkscape:connector-curvature="0"
           id="path100"
           style="fill:none;stroke:#000000;stroke-width:5;stroke-linecap:butt;stroke-linejoin:round;stroke-miterlimit:10;stroke-dasharray:none;stroke-opacity:1"
           d="m 8165,5500 0,-4920.832" /><path
           inkscape:connector-curvature="0"
           id="path102"
           style="fill:none;stroke:#000000;stroke-width:5;stroke-linecap:butt;stroke-linejoin:round;stroke-miterlimit:10;stroke-dasharray:none;stroke-opacity:1"
           d="m 4245,5500 0,-4920.832" /><path
           inkscape:connector-curvature="0"
           id="path104"
           style="fill:none;stroke:#000000;stroke-width:5;stroke-linecap:butt;stroke-linejoin:round;stroke-miterlimit:10;stroke-dasharray:none;stroke-opacity:1"
           d="m 4245,5500 3920,0" /><path
           inkscape:connector-curvature="0"
           id="path106"
           style="fill:none;stroke:#000000;stroke-width:5;stroke-linecap:butt;stroke-linejoin:round;stroke-miterlimit:10;stroke-dasharray:none;stroke-opacity:1"
           d="m 4245,5507.5 3920,0" /><path
           inkscape:connector-curvature="0"
           id="path108"
           style="fill:none;stroke:#000000;stroke-width:5;stroke-linecap:butt;stroke-linejoin:round;stroke-miterlimit:10;stroke-dasharray:none;stroke-opacity:1"
           d="m 8165,5500 0,7.5" /><path
           inkscape:connector-curvature="0"
           id="path110"
           style="fill:none;stroke:#000000;stroke-width:5;stroke-linecap:butt;stroke-linejoin:round;stroke-miterlimit:10;stroke-dasharray:none;stroke-opacity:1"
           d="m 4245,5500 0,7.5" /><path
           inkscape:connector-curvature="0"
           id="path112"
           style="fill:none;stroke:#000000;stroke-width:5;stroke-linecap:butt;stroke-linejoin:round;stroke-miterlimit:10;stroke-dasharray:none;stroke-opacity:1"
           d="m 8165,5500 0,-4920.832" /><path
           inkscape:connector-curvature="0"
           id="path114"
           style="fill:none;stroke:#000000;stroke-width:5;stroke-linecap:butt;stroke-linejoin:round;stroke-miterlimit:10;stroke-dasharray:none;stroke-opacity:1"
           d="m 4245,579.168 3920,0" /><path
           inkscape:connector-curvature="0"
           id="path116"
           style="fill:none;stroke:#000000;stroke-width:5;stroke-linecap:butt;stroke-linejoin:round;stroke-miterlimit:10;stroke-dasharray:none;stroke-opacity:1"
           d="m 4245,579.168 0,7.5" /><path
           inkscape:connector-curvature="0"
           id="path118"
           style="fill:none;stroke:#000000;stroke-width:5;stroke-linecap:butt;stroke-linejoin:round;stroke-miterlimit:10;stroke-dasharray:none;stroke-opacity:1"
           d="m 8165,5298.33 122.5,0" /><g
           transform="scale(10,10)"
           id="g120"><text
             id="text122"
             style="font-variant:normal;font-weight:normal;font-size:10px;font-family:Helvetica;-inkscape-font-specification:Helvetica;writing-mode:lr-tb;fill:#000000;fill-opacity:1;fill-rule:nonzero;stroke:none"
             transform="matrix(1,0,0,-1,831.667,526.167)"><tspan
               id="tspan124"
               sodipodi:role="line"
               y="0"
               x="0 5.5599999">60</tspan></text>
</g><path
           inkscape:connector-curvature="0"
           id="path126"
           style="fill:none;stroke:#000000;stroke-width:5;stroke-linecap:butt;stroke-linejoin:round;stroke-miterlimit:10;stroke-dasharray:none;stroke-opacity:1"
           d="m 8165,4751.67 122.5,0" /><g
           transform="scale(10,10)"
           id="g128"><text
             id="text130"
             style="font-variant:normal;font-weight:normal;font-size:10px;font-family:Helvetica;-inkscape-font-specification:Helvetica;writing-mode:lr-tb;fill:#000000;fill-opacity:1;fill-rule:nonzero;stroke:none"
             transform="matrix(1,0,0,-1,831.667,471.5)"><tspan
               id="tspan132"
               sodipodi:role="line"
               y="0"
               x="0 5.5599999">80</tspan></text>
</g><path
           inkscape:connector-curvature="0"
           id="path134"
           style="fill:none;stroke:#000000;stroke-width:5;stroke-linecap:butt;stroke-linejoin:round;stroke-miterlimit:10;stroke-dasharray:none;stroke-opacity:1"
           d="m 8165,4205 122.5,0" /><g
           transform="scale(10,10)"
           id="g136"><text
             id="text138"
             style="font-variant:normal;font-weight:normal;font-size:10px;font-family:Helvetica;-inkscape-font-specification:Helvetica;writing-mode:lr-tb;fill:#000000;fill-opacity:1;fill-rule:nonzero;stroke:none"
             transform="matrix(1,0,0,-1,831.667,416.833)"><tspan
               id="tspan140"
               sodipodi:role="line"
               y="0"
               x="0 5.5599999 11.12">100</tspan></text>
</g><path
           inkscape:connector-curvature="0"
           id="path142"
           style="fill:none;stroke:#000000;stroke-width:5;stroke-linecap:butt;stroke-linejoin:round;stroke-miterlimit:10;stroke-dasharray:none;stroke-opacity:1"
           d="m 8165,3658.33 122.5,0" /><g
           transform="scale(10,10)"
           id="g144"><text
             id="text146"
             style="font-variant:normal;font-weight:normal;font-size:10px;font-family:Helvetica;-inkscape-font-specification:Helvetica;writing-mode:lr-tb;fill:#000000;fill-opacity:1;fill-rule:nonzero;stroke:none"
             transform="matrix(1,0,0,-1,831.667,362.167)"><tspan
               id="tspan148"
               sodipodi:role="line"
               y="0"
               x="0 5.5599999 11.12">120</tspan></text>
</g><path
           inkscape:connector-curvature="0"
           id="path150"
           style="fill:none;stroke:#000000;stroke-width:5;stroke-linecap:butt;stroke-linejoin:round;stroke-miterlimit:10;stroke-dasharray:none;stroke-opacity:1"
           d="m 8165,3111.67 122.5,0" /><g
           transform="scale(10,10)"
           id="g152"><text
             id="text154"
             style="font-variant:normal;font-weight:normal;font-size:10px;font-family:Helvetica;-inkscape-font-specification:Helvetica;writing-mode:lr-tb;fill:#000000;fill-opacity:1;fill-rule:nonzero;stroke:none"
             transform="matrix(1,0,0,-1,831.667,307.5)"><tspan
               id="tspan156"
               sodipodi:role="line"
               y="0"
               x="0 5.5599999 11.12">140</tspan></text>
</g><path
           inkscape:connector-curvature="0"
           id="path158"
           style="fill:none;stroke:#000000;stroke-width:5;stroke-linecap:butt;stroke-linejoin:round;stroke-miterlimit:10;stroke-dasharray:none;stroke-opacity:1"
           d="m 8165,2564.17 122.5,0" /><g
           transform="scale(10,10)"
           id="g160"><text
             id="text162"
             style="font-variant:normal;font-weight:normal;font-size:10px;font-family:Helvetica;-inkscape-font-specification:Helvetica;writing-mode:lr-tb;fill:#000000;fill-opacity:1;fill-rule:nonzero;stroke:none"
             transform="matrix(1,0,0,-1,831.667,252.75)"><tspan
               id="tspan164"
               sodipodi:role="line"
               y="0"
               x="0 5.5599999 11.12">160</tspan></text>
</g><path
           inkscape:connector-curvature="0"
           id="path166"
           style="fill:none;stroke:#000000;stroke-width:5;stroke-linecap:butt;stroke-linejoin:round;stroke-miterlimit:10;stroke-dasharray:none;stroke-opacity:1"
           d="m 8165,2017.5 122.5,0" /><g
           transform="scale(10,10)"
           id="g168"><text
             id="text170"
             style="font-variant:normal;font-weight:normal;font-size:10px;font-family:Helvetica;-inkscape-font-specification:Helvetica;writing-mode:lr-tb;fill:#000000;fill-opacity:1;fill-rule:nonzero;stroke:none"
             transform="matrix(1,0,0,-1,831.667,198.083)"><tspan
               id="tspan172"
               sodipodi:role="line"
               y="0"
               x="0 5.5599999 11.12">180</tspan></text>
</g><path
           inkscape:connector-curvature="0"
           id="path174"
           style="fill:none;stroke:#000000;stroke-width:5;stroke-linecap:butt;stroke-linejoin:round;stroke-miterlimit:10;stroke-dasharray:none;stroke-opacity:1"
           d="m 8165,1470.83 122.5,0" /><g
           transform="scale(10,10)"
           id="g176"><text
             id="text178"
             style="font-variant:normal;font-weight:normal;font-size:10px;font-family:Helvetica;-inkscape-font-specification:Helvetica;writing-mode:lr-tb;fill:#000000;fill-opacity:1;fill-rule:nonzero;stroke:none"
             transform="matrix(1,0,0,-1,831.667,143.417)"><tspan
               id="tspan180"
               sodipodi:role="line"
               y="0"
               x="0 5.5599999 11.12">200</tspan></text>
</g><path
           inkscape:connector-curvature="0"
           id="path182"
           style="fill:none;stroke:#000000;stroke-width:5;stroke-linecap:butt;stroke-linejoin:round;stroke-miterlimit:10;stroke-dasharray:none;stroke-opacity:1"
           d="m 8165,924.168 122.5,0" /><g
           transform="scale(10,10)"
           id="g184"><text
             id="text186"
             style="font-variant:normal;font-weight:normal;font-size:10px;font-family:Helvetica;-inkscape-font-specification:Helvetica;writing-mode:lr-tb;fill:#000000;fill-opacity:1;fill-rule:nonzero;stroke:none"
             transform="matrix(1,0,0,-1,831.667,88.75)"><tspan
               id="tspan188"
               sodipodi:role="line"
               y="0"
               x="0 5.5599999 11.12">220</tspan></text>
</g><path
           inkscape:connector-curvature="0"
           id="path190"
           style="fill:none;stroke:#000000;stroke-width:5;stroke-linecap:butt;stroke-linejoin:round;stroke-miterlimit:10;stroke-dasharray:none;stroke-opacity:1"
           d="m 4511.67,579.168 0,-123.336" /><g
           transform="scale(10,10)"
           id="g192"><text
             id="text194"
             style="font-variant:normal;font-weight:normal;font-size:10px;font-family:Helvetica;-inkscape-font-specification:Helvetica;writing-mode:lr-tb;fill:#000000;fill-opacity:1;fill-rule:nonzero;stroke:none"
             transform="matrix(1,0,0,-1,442.833,33.4168)"><tspan
               id="tspan196"
               sodipodi:role="line"
               y="0"
               x="0 5.5599999 11.12">260</tspan></text>
</g><path
           inkscape:connector-curvature="0"
           id="path198"
           style="fill:none;stroke:#000000;stroke-width:5;stroke-linecap:butt;stroke-linejoin:round;stroke-miterlimit:10;stroke-dasharray:none;stroke-opacity:1"
           d="m 5063.33,579.168 0,-123.336" /><g
           transform="scale(10,10)"
           id="g200"><text
             id="text202"
             style="font-variant:normal;font-weight:normal;font-size:10px;font-family:Helvetica;-inkscape-font-specification:Helvetica;writing-mode:lr-tb;fill:#000000;fill-opacity:1;fill-rule:nonzero;stroke:none"
             transform="matrix(1,0,0,-1,498,33.4168)"><tspan
               id="tspan204"
               sodipodi:role="line"
               y="0"
               x="0 5.5599999 11.12">280</tspan></text>
</g><path
           inkscape:connector-curvature="0"
           id="path206"
           style="fill:none;stroke:#000000;stroke-width:5;stroke-linecap:butt;stroke-linejoin:round;stroke-miterlimit:10;stroke-dasharray:none;stroke-opacity:1"
           d="m 5615.83,579.168 0,-123.336" /><g
           transform="scale(10,10)"
           id="g208"><text
             id="text210"
             style="font-variant:normal;font-weight:normal;font-size:10px;font-family:Helvetica;-inkscape-font-specification:Helvetica;writing-mode:lr-tb;fill:#000000;fill-opacity:1;fill-rule:nonzero;stroke:none"
             transform="matrix(1,0,0,-1,553.25,33.4168)"><tspan
               id="tspan212"
               sodipodi:role="line"
               y="0"
               x="0 5.5599999 11.12">300</tspan></text>
</g><path
           inkscape:connector-curvature="0"
           id="path214"
           style="fill:none;stroke:#000000;stroke-width:5;stroke-linecap:butt;stroke-linejoin:round;stroke-miterlimit:10;stroke-dasharray:none;stroke-opacity:1"
           d="m 6168.33,579.168 0,-123.336" /><g
           transform="scale(10,10)"
           id="g216"><text
             id="text218"
             style="font-variant:normal;font-weight:normal;font-size:10px;font-family:Helvetica;-inkscape-font-specification:Helvetica;writing-mode:lr-tb;fill:#000000;fill-opacity:1;fill-rule:nonzero;stroke:none"
             transform="matrix(1,0,0,-1,608.5,33.4168)"><tspan
               id="tspan220"
               sodipodi:role="line"
               y="0"
               x="0 5.5599999 11.12">320</tspan></text>
</g><path
           inkscape:connector-curvature="0"
           id="path222"
           style="fill:none;stroke:#000000;stroke-width:5;stroke-linecap:butt;stroke-linejoin:round;stroke-miterlimit:10;stroke-dasharray:none;stroke-opacity:1"
           d="m 6720,579.168 0,-123.336" /><g
           transform="scale(10,10)"
           id="g224"><text
             id="text226"
             style="font-variant:normal;font-weight:normal;font-size:10px;font-family:Helvetica;-inkscape-font-specification:Helvetica;writing-mode:lr-tb;fill:#000000;fill-opacity:1;fill-rule:nonzero;stroke:none"
             transform="matrix(1,0,0,-1,663.667,33.4168)"><tspan
               id="tspan228"
               sodipodi:role="line"
               y="0"
               x="0 5.5599999 11.12">340</tspan></text>
</g><path
           inkscape:connector-curvature="0"
           id="path230"
           style="fill:none;stroke:#000000;stroke-width:5;stroke-linecap:butt;stroke-linejoin:round;stroke-miterlimit:10;stroke-dasharray:none;stroke-opacity:1"
           d="m 7272.5,579.168 0,-123.336" /><g
           transform="scale(10,10)"
           id="g232"><text
             id="text234"
             style="font-variant:normal;font-weight:normal;font-size:10px;font-family:Helvetica;-inkscape-font-specification:Helvetica;writing-mode:lr-tb;fill:#000000;fill-opacity:1;fill-rule:nonzero;stroke:none"
             transform="matrix(1,0,0,-1,718.917,33.4168)"><tspan
               id="tspan236"
               sodipodi:role="line"
               y="0"
               x="0 5.5599999 11.12">360</tspan></text>
</g><path
           inkscape:connector-curvature="0"
           id="path238"
           style="fill:none;stroke:#000000;stroke-width:5;stroke-linecap:butt;stroke-linejoin:round;stroke-miterlimit:10;stroke-dasharray:none;stroke-opacity:1"
           d="m 7825,579.168 0,-123.336" /><g
           transform="scale(10,10)"
           id="g240"><text
             id="text242"
             style="font-variant:normal;font-weight:normal;font-size:10px;font-family:Helvetica;-inkscape-font-specification:Helvetica;writing-mode:lr-tb;fill:#000000;fill-opacity:1;fill-rule:nonzero;stroke:none"
             transform="matrix(1,0,0,-1,774.167,33.4168)"><tspan
               id="tspan244"
               sodipodi:role="line"
               y="0"
               x="0 5.5599999 11.12">380</tspan></text>
<text
             id="text246"
             style="font-variant:normal;font-weight:normal;font-size:14px;font-family:Helvetica;-inkscape-font-specification:Helvetica;writing-mode:lr-tb;fill:#000000;fill-opacity:1;fill-rule:nonzero;stroke:none"
             transform="matrix(1,0,0,-1,590.583,18.5832)"><tspan
               id="tspan248"
               sodipodi:role="line"
               y="0"
               x="0 10.108 17.892 22.554001 26.445999 34.23 38.122002 42.784 54.445999">North (m)</tspan></text>
</g><g
           id="g250"><g
             clip-path="url(#clipPath254)"
             id="g252"><path
               inkscape:connector-curvature="0"
               id="path258"
               style="fill:none;stroke:#ff0000;stroke-width:20;stroke-linecap:butt;stroke-linejoin:round;stroke-miterlimit:10;stroke-dasharray:none;stroke-opacity:1"
               d="m 6264.17,4126.67 5.83,1.66 5.83,2.5 5.84,2.5 5.83,2.5 6.67,2.5 5.83,1.67 5.83,2.5 5.84,2.5 6.66,1.67 5.84,2.5 5.83,2.5 5.83,1.66 6.67,2.5 5.83,1.67 5.84,2.5 6.66,1.67 5.84,2.5 6.66,1.66 5.84,2.5 5.83,1.67 6.67,1.67 5.83,1.66 6.67,2.5 5.83,1.67 6.67,1.67 5.83,1.66 6.67,2.5 5.83,1.67 6.67,1.67 5.83,1.66 6.67,1.67 5.83,1.67 6.67,1.66 5.83,1.67 6.67,1.67 6.66,1.66 5.84,1.67 6.66,0.83 5.84,1.67 6.66,1.67 6.67,1.66 5.83,1.67 6.67,0.83 6.67,1.67 5.83,1.67 6.67,0.83 6.66,1.67 6.67,0.83 5.83,1.67 6.67,1.66 6.67,0.84 6.66,0.83 5.84,1.67 6.66,0.83 6.67,1.67 6.67,0.83 5.83,0.83 6.67,1.67 6.66,0.83 6.67,0.84 6.67,0.83 5.83,1.67 6.67,0.83 6.66,0.83 6.67,0.84 6.67,0.83 6.66,0.83 5.84,0.84 6.66,0.83 6.67,0.83 6.67,0.84 6.66,0.83 6.67,0.83 6.67,0.84 6.66,0 6.67,0.83 5.83,0.83 6.67,0.84 6.67,0 6.66,0.83 6.67,0.83 6.67,0 6.66,0.84 6.67,0.83 6.67,0 6.66,0.83 6.67,0 6.67,0.84 6.66,0 6.67,0.83 13.33,0 6.67,0.83 13.33,0 6.67,0.84 33.33,0 6.67,0.83 40,0 6.67,-0.83 33.33,0 6.67,-0.84 20,0 6.66,-0.83 6.67,0 6.67,-0.83 13.33,0 6.67,-0.84 6.66,0 6.67,-0.83 6.67,0 6.66,-0.83 6.67,-0.84 6.67,0 6.66,-0.83 6.67,0 6.67,-0.83 6.66,-0.84 6.67,0 6.67,-0.83 6.66,-0.83 6.67,-0.84 6.67,-0.83 6.66,0 6.67,-0.83 6.67,-0.84 6.66,-0.83 6.67,-0.83 6.67,-0.84 6.66,-0.83 6.67,-0.83 6.67,-0.84 6.66,-0.83 6.67,-0.83 6.67,-0.84 6.66,-0.83 6.67,-0.83 6.67,-1.67 6.66,-0.83 6.67,-0.84 6.67,-0.83 6.66,-0.83 5.84,-1.67 6.66,-0.83 6.67,-0.84 6.67,-1.66 6.66,-0.84 6.67,-0.83 6.67,-1.67 6.66,-0.83 6.67,-1.67 6.67,-0.83 6.66,-0.83 6.67,-1.67 6.67,-0.83 5.83,-1.67 6.67,-1.67 6.66,-0.83 8.34,-1.67 6.66,-1.66 6.67,-0.84 6.67,-1.66 5.83,-1.67 6.67,-1.67 6.66,-0.83 6.67,-1.67 6.67,-1.66 6.66,-1.67 6.67,-0.83 5.83,-1.67 6.67,-1.67 6.67,-1.66 6.66,-1.67 6.67,-1.67 5.83,-1.66 6.67,-1.67 6.67,-1.67 6.66,-1.66 5.84,-1.67 6.66,-1.67 6.67,-1.66 6.67,-1.67 5.83,-1.67 6.67,-1.66 6.66,-1.67 6.67,-2.5 5.83,-1.67 6.67,-1.66 6.67,-1.67 5.83,-2.5 6.67,-1.67 6.66,-1.66 5.84,-1.67 6.66,-2.5 6.67,-1.67 5.83,-1.66 6.67,-2.5 5.83,-1.67 6.67,-2.5 6.67,-1.67 5.83,-1.66 6.67,-2.5 5.83,-1.67 6.67,-2.5 6.66,-1.67 5.84,-2.5 6.66,-1.66 5.84,-2.5 6.66,-2.5 5.84,-1.67 6.66,-2.5 5.84,-1.67 6.66,-2.5 5.84,-2.5 6.66,-1.66 5.84,-2.5 6.66,-2.5 5.84,-1.67 6.66,-2.5 5.84,-2.5 5.83,-2.5 6.67,-2.5 5.83,-1.67 6.67,-2.5 5.83,-2.5 5.83,-2.5 6.67,-2.5 5.83,-2.5 6.67,-2.5 5.83,-1.66 5.84,-2.5 6.66,-2.5 5.84,-2.5 5.83,-2.5 6.67,-2.5 5.83,-2.5 5.83,-2.5 5.84,-2.5 6.66,-3.34 5.84,-2.5 4.16,-1.66 5.84,-2.5 6.66,-2.5 5.84,-3.34 5.83,-2.5 5.83,-2.5 5.84,-2.5 6.66,-2.5 5.84,-3.33 5.83,-2.5 5.83,-2.5 5.84,-2.5 6.66,-3.33 5.84,-2.5 5.83,-2.5 5.83,-3.34 5.84,-2.5 5.83,-2.5 5.83,-3.33 5.84,-2.5 6.66,-3.33 5.84,-2.5 5.83,-3.34 5.83,-2.5 5.84,-3.33 5.83,-2.5 5.83,-3.33 5.84,-2.5 5.83,-3.34 5.83,-2.5 5.84,-3.33 5.83,-2.5 5.83,-3.33 5.84,-3.34 5.83,-2.5 5.83,-3.33 5.84,-3.33 5.83,-2.5 5.83,-3.34 5.84,-3.33 5.83,-2.5 5.83,-3.33 2.5,-1.67" /><path
               inkscape:connector-curvature="0"
               id="path260"
               style="fill:none;stroke:#ff0000;stroke-width:20;stroke-linecap:butt;stroke-linejoin:round;stroke-miterlimit:10;stroke-dasharray:none;stroke-opacity:1"
               d="m 5064.17,2663.33 4.16,4.17 4.17,5 4.17,5 4.16,5 4.17,5 4.17,4.17 4.16,5 3.34,5 4.16,5 4.17,5 4.17,5 4.16,5 4.17,5 4.17,5 3.33,5 4.17,5 4.16,5 4.17,5.83 4.17,5 4.16,5 3.34,5 4.16,5.83 4.17,5 4.17,5.84 3.33,5 4.17,5.83 3.33,5 4.17,5.83 4.16,5.84 3.34,5 4.16,5.83 3.34,5.83 4.16,5.84 3.34,5.83 4.16,5 3.34,5.83 4.16,5.84 3.34,5.83 3.33,5.83 4.17,6.67 3.33,5.83 3.33,5.84 3.34,5.83 3.33,5.83 3.33,6.67 3.34,5.83 3.33,5.84 3.33,5.83 3.34,6.67 3.33,5.83 3.33,5.83 3.34,6.67 3.33,5.83 3.33,6.67 3.34,5.83 2.5,6.67 3.33,5.83 3.33,6.67 2.5,5.83 3.34,5.84 2.5,6.66 3.33,5.84 2.5,6.66 3.33,5.84 2.5,6.66 3.34,5.84 2.5,6.66 2.5,5.84 3.33,6.66 2.5,5.84 3.33,6.66 2.5,5.84 2.5,6.66 3.34,5.84 2.5,6.66 2.5,5.84 2.5,6.66 2.5,5.84 3.33,6.66 2.5,5.84 2.5,6.66 2.5,5.84 2.5,5.83 2.5,6.67 2.5,5.83 2.5,6.67 3.33,5.83 2.5,6.67 2.5,5.83 2.5,5.83 2.5,6.67 2.5,5.83 2.5,6.67 3.34,5.83 2.5,5.84 2.5,6.66 2.5,5.84 2.5,5.83 2.5,6.67 3.33,5.83 2.5,5.83 2.5,5.84 2.5,6.66 3.33,5.84 2.5,5.83 2.5,5.83 3.34,5.84 2.5,6.66 3.33,5.84 2.5,5.83 3.33,5.83 2.5,5.84 3.34,5.83 2.5,5.83 3.33,6.67 2.5,5.83 3.33,5.84 2.5,5.83 3.34,5.83 3.33,5.84 2.5,5.83 3.33,5.83 3.34,5.84 3.33,5 2.5,5.83 3.33,5.83 3.34,5.84 3.33,5.83 3.33,5.83 3.34,5.84 3.33,5 3.33,5.83 3.34,5.83 3.33,5.84 2.5,5.83 4.17,5 3.33,5.83 3.33,5.84 3.34,5 3.33,5.83 3.33,5.83 3.34,5 3.33,5.84 3.33,5 4.17,5.83 3.33,5.83 3.34,5 3.33,5.84 3.33,5 4.17,5.83 3.33,5 3.34,5.83 4.16,5 3.34,5.84 3.33,5 3.33,5 4.17,5.83 3.33,5 4.17,5.83 3.33,5 3.34,5 4.16,5.84 3.34,5 4.16,5 3.34,5 4.16,5.83 3.34,5 4.16,5 3.34,5 4.16,5 4.17,5 3.33,5.83 4.17,5 4.17,5 3.33,5 4.17,5 4.16,5 3.34,5 4.16,5 4.17,5 4.17,5 4.16,5 4.17,5 3.33,4.17 4.17,5 4.17,5 4.16,5 4.17,5 4.17,4.17 4.16,5 4.17,5 4.17,4.16 5,5 4.16,5 4.17,4.17 4.17,5 4.16,4.17 4.17,5 5,4.16 4.17,5 4.16,4.17 4.17,4.17 5,5 4.17,4.16 5,4.17 4.16,5 4.17,4.17 5,4.16 4.17,4.17 5,4.17 4.16,5 5,4.16 4.17,4.17 5,4.17 5,4.16 4.17,4.17 5,4.17 4.16,4.16 5,4.17 5,4.17 5,3.33 4.17,4.17 5,4.16 4.17,3.34 4.16,3.33 5,4.17 5,4.16 5,3.34 5,4.16 5,4.17 4.17,3.33 5,4.17 5,3.33 5,4.17 5,4.17 5,3.33 5,4.17 5,3.33 5,3.33 5,4.17 5.83,3.33 5,4.17 5,3.33 5,3.34 5,3.33 5,4.17 5.84,3.33 5,3.33 5,3.34 5,4.16 5.83,3.34 5,3.33 5,3.33 5,3.34 5.83,3.33 5,3.33 5.84,3.34 5,3.33 5,3.33 5.83,3.34 5,3.33 5.83,3.33 5,3.34 5.84,3.33 5,3.33 5.83,3.34 5.83,2.5 5,3.33 5.84,3.33 5,3.34 5.83,2.5 5.83,3.33 5,3.33 5.84,2.5 5.83,3.34 5.83,2.5 5,3.33 5.84,2.5 5.83,3.33 5.83,2.5 5.84,3.34 5,2.5 5.83,3.33 5.83,2.5 5.84,2.5 5.83,2.5 5.83,3.33 5.84,2.5 5.83,2.5 5.83,2.5 5.84,2.5 5.83,3.34 5.83,2.5 5.84,2.5 5.83,2.5 5.83,2.5 5.84,2.5 5.83,2.5 6.67,2.5" /><path
               inkscape:connector-curvature="0"
               id="path262"
               style="fill:none;stroke:#ff0000;stroke-width:20;stroke-linecap:butt;stroke-linejoin:round;stroke-miterlimit:10;stroke-dasharray:none;stroke-opacity:1"
               d="m 4245,2299.17 0.83,0.83 6.67,0.83 6.67,1.67 5.83,0.83 6.67,0.84 6.66,1.66 6.67,0.84 6.67,0.83 5.83,1.67 6.67,0.83 6.66,0.83 6.67,1.67 6.67,0.83 5.83,0.84 6.67,1.66 6.66,0.84 6.67,0.83 5.83,0.83 6.67,1.67 6.67,0.83 6.66,0.84 5.84,0.83 6.66,0.83 6.67,1.67 6.67,0.83 5.83,0.84 6.67,0.83 6.66,1.67 6.67,0.83 5.83,0.83 6.67,0.84 6.67,1.66 6.66,0.84 5.84,0.83 6.66,1.67 6.67,0.83 5.83,0.83 6.67,1.67 6.67,0.83 6.66,0.84 5.84,1.66 6.66,0.84 6.67,1.66 6.67,0.84 5.83,1.66 6.67,0.84 6.66,1.66 5.84,0.84 6.66,1.66 6.67,0.84 6.67,1.66 5.83,1.67 6.67,1.67 6.66,0.83 6.67,1.67 6.67,1.66 6.66,1.67 6.67,1.67 6.67,1.66 6.66,2.5 7.5,1.67 6.67,1.67 6.67,2.5 6.66,1.66 6.67,2.5 6.67,1.67 7.5,2.5 6.66,2.5 6.67,2.5 6.67,2.5 7.5,2.5 6.66,2.5 6.67,2.5 6.67,2.5 7.5,3.33 6.66,2.5 6.67,2.5 6.67,3.34 6.66,3.33 7.5,2.5 6.67,3.33 6.67,3.34 6.66,3.33 6.67,3.33 6.67,3.34 6.66,3.33 6.67,4.17 5.83,3.33 6.67,4.17 6.67,3.33 6.66,4.17 5.84,3.33 6.66,4.17 5.84,4.16 5.83,4.17 6.67,4.17 5.83,4.16 5.83,4.17 5.84,4.17 5.83,4.16 5.83,4.17 5.84,4.17 5.83,5 5.83,4.16 5,4.17 5.84,5 5,4.17 5,5 5.83,4.16 5,5 5,4.17 5,5 5,4.17 5,5 5,4.16 5,5 4.17,5 5,4.17 4.16,5 5,4.17 5,5 5,5 4.17,5 4.17,5 4.16,4.16 4.17,5 4.17,5 4.16,4.17 4.17,5 4.17,5 5,4.17 4.16,5 4.17,4.16 4.17,5 4.16,5 3.34,5" /><path
               inkscape:connector-curvature="0"
               id="path264"
               style="fill:none;stroke:#0000ff;stroke-width:20;stroke-linecap:butt;stroke-linejoin:round;stroke-miterlimit:10;stroke-dasharray:none;stroke-opacity:1"
               d="m 6275.83,4112.5 5.84,2.5 5.83,1.67 5.83,1.66 6.67,2.5 5.83,1.67 5.84,1.67 6.66,2.5 5.84,1.66 5.83,1.67 6.67,1.67 5.83,1.66 5.83,1.67 6.67,2.5 5.83,1.67 5.84,1.66 6.66,1.67 5.84,1.67 5.83,1.66 6.67,1.67 5.83,1.67 6.67,1.66 5.83,1.67 6.67,1.67 5.83,1.66 5.83,1.67 6.67,1.67 5.83,1.66 6.67,1.67 5.83,1.67 5.84,1.66 6.66,1.67 5.84,1.67 6.66,1.66 5.84,1.67 6.66,1.67 5.84,1.66 6.66,1.67 5.84,1.67 6.66,0.83 5.84,1.67 6.66,1.66 6.67,0.84 5.83,1.66 6.67,0.84 5.83,1.66 6.67,0.84 6.67,0.83 5.83,0.83 6.67,0.84 6.66,0.83 6.67,0.83 5.83,0.84 6.67,0.83 6.67,0.83 5.83,0.84 6.67,0.83 6.66,0.83 5.84,0.84 6.66,0.83 6.67,0.83 6.67,0.84 5.83,0.83 6.67,0.83 6.66,0.84 6.67,0 5.83,0.83 6.67,0.83 6.67,0.84 6.66,0.83 5.84,0.83 6.66,0.84 6.67,0 6.67,0.83 6.66,0.83 5.84,0 6.66,0.84 13.34,0 6.66,0.83 12.5,0 6.67,0.83 20,0 6.67,0.84 39.16,0 6.67,0.83 32.5,0 6.67,-0.83 39.16,0 6.67,-0.84 26.67,0 5.83,-0.83 13.33,0 6.67,-0.83 13.33,0 6.67,-0.84 6.67,0 5.83,-0.83 13.33,0 6.67,-0.83 6.67,0 6.66,-0.84 6.67,-0.83 6.67,0 5.83,-0.83 6.67,-0.84 6.66,-0.83 6.67,-0.83 6.67,0 6.66,-0.84 6.67,-0.83 6.67,-0.83 5.83,-0.84 6.67,-0.83 6.66,-0.83 6.67,0 6.67,-0.84 6.66,-0.83 6.67,-0.83 5.83,-0.84 6.67,-0.83 6.67,-0.83 6.66,-0.84 6.67,-0.83 6.67,-0.83 6.66,-0.84 5.84,0 6.66,-0.83 6.67,-0.83 6.67,-0.84 6.66,-0.83 6.67,-0.83 6.67,-0.84 5.83,-0.83 6.67,-0.83 6.66,-1.67 6.67,-0.83 6.67,-0.84 6.66,-0.83 6.67,-0.83 5.83,-1.67 6.67,-0.83 6.67,-0.84 6.66,-0.83 6.67,-1.67 6.67,-0.83 5.83,-1.67 6.67,-0.83 6.66,-0.83 6.67,-1.67 6.67,-0.83 7.5,-1.67 6.66,-1.67 6.67,-0.83 6.67,-1.67 5.83,-1.66 6.67,-0.84 6.66,-1.66 6.67,-1.67 5.83,-0.83 6.67,-1.67 6.67,-1.67 6.66,-0.83 5.84,-1.67 6.66,-1.66 6.67,-0.84 6.67,-1.66 5.83,-1.67 6.67,-0.83 6.66,-1.67 6.67,-1.67 5.83,-0.83 6.67,-1.67 6.67,-1.66 6.66,-0.84 5.84,-1.66 6.66,-1.67 6.67,-0.83 6.67,-1.67 5.83,-1.67 6.67,-1.66 6.66,-0.84 5.84,-1.66 6.66,-1.67 6.67,-1.67 5.83,-1.66 6.67,-1.67 6.67,-1.67 5.83,-1.66 6.67,-1.67 6.66,-1.67 5.84,-1.66 6.66,-1.67 5.84,-1.67 6.66,-1.66 6.67,-2.5 5.83,-1.67 6.67,-1.67 5.83,-1.66 6.67,-1.67 5.83,-1.67 6.67,-1.66 6.67,-2.5 5.83,-1.67 6.67,-1.67 5.83,-1.66 6.67,-1.67 5.83,-2.5 6.67,-1.67 5.83,-1.66 6.67,-2.5 5.83,-1.67 6.67,-1.67 5.83,-2.5 6.67,-1.66 5.83,-2.5 6.67,-1.67 5.83,-1.67 6.67,-2.5 5.83,-1.66 6.67,-2.5 5.83,-1.67 6.67,-2.5 5.83,-1.67 5.83,-2.5 6.67,-1.66 5.83,-2.5 6.67,-2.5 5.83,-1.67 5.84,-2.5 6.66,-2.5 5.84,-1.67 5.83,-2.5 5,-2.5 5.83,-1.66 5.84,-2.5 5.83,-2.5 6.67,-3.34 5.83,-2.5 5.83,-2.5 5.84,-2.5 5.83,-2.5 6.67,-2.5 5.83,-2.5 5.83,-2.5 5.84,-2.5 5.83,-2.5 6.67,-2.5 5.83,-2.5 5.83,-3.33 5.84,-2.5 5.83,-2.5 5.83,-2.5 6.67,-3.33 5.83,-2.5 5.84,-2.5 5.83,-2.5 5.83,-2.5 5.84,-2.5 6.66,-3.34 5.84,-2.5 5.83,-2.5 5.83,-3.33 5.84,-2.5 5.83,-3.33 5.83,-3.34 5.84,-2.5 5.83,-3.33 5.83,-3.33 5.84,-2.5 5.83,-3.34 5.83,-2.5 5.84,-3.33 5.83,-3.33 5.83,-2.5 5.84,-3.34 1.66,-0.83" /><path
               inkscape:connector-curvature="0"
               id="path266"
               style="fill:none;stroke:#0000ff;stroke-width:20;stroke-linecap:butt;stroke-linejoin:round;stroke-miterlimit:10;stroke-dasharray:none;stroke-opacity:1"
               d="m 5061.67,2674.17 2.5,5.83 2.5,5.83 2.5,5.84 2.5,5.83 2.5,5.83 2.5,6.67 1.66,5.83 2.5,6.67 1.67,5.83 2.5,5.84 2.5,6.66 1.67,5.84 2.5,5.83 2.5,5.83 2.5,5.84 2.5,5.83 1.66,6.67 2.5,5.83 2.5,5.83 2.5,5.84 2.5,5.83 2.5,5.83 2.5,5.84 2.5,5.83 2.5,5.83 2.5,5.84 3.34,5.83 2.5,5.83 2.5,5.84 2.5,5.83 3.33,5.83 2.5,5.84 2.5,5.83 3.33,5.83 2.5,5.84 3.34,5.83 2.5,5.83 3.33,5.84 2.5,5.83 3.33,5.83 3.34,6.67 2.5,5.83 3.33,5.84 2.5,5.83 3.33,5.83 3.34,5.84 2.5,5.83 3.33,5.83 3.33,6.67 3.34,5.83 3.33,5.84 2.5,5.83 3.33,5.83 3.34,5.84 3.33,5.83 3.33,5.83 3.34,6.67 3.33,5.83 3.33,5.84 3.34,5.83 3.33,5.83 3.33,5.84 3.34,5.83 3.33,5.83 3.33,6.67 3.34,5.83 3.33,5.84 4.17,5.83 3.33,5.83 3.33,5.84 4.17,5.83 3.33,5.83 3.34,5.84 4.16,5.83 3.34,5.83 3.33,5.84 4.17,5.83 3.33,5.83 4.17,5.84 3.33,5 3.33,5.83 4.17,5.83 3.33,5.84 4.17,5.83 3.33,5.83 4.17,5.84 3.33,5.83 4.17,5 3.33,5.83 4.17,5.84 3.33,5.83 4.17,5.83 4.17,5 3.33,5.84 4.17,5.83 3.33,5.83 4.17,5.84 3.33,5 4.17,5.83 4.16,5.83 3.34,5.84 4.16,5 3.34,5.83 4.16,5.83 4.17,5 3.33,5.84 4.17,5.83 3.33,5 4.17,5.83 3.33,5.84 4.17,5 4.17,5.83 3.33,5.83 4.17,5 3.33,5.84 4.17,5.83 3.33,5 4.17,5.83 3.33,5.84 4.17,5 3.33,5.83 4.17,5 3.33,5.83 3.33,5.84 4.17,5 3.33,5.83 4.17,5.83 3.33,5 3.34,5.84 4.16,5 3.34,5.83 3.33,5.83 4.17,5 3.33,5.84 3.33,5.83 3.34,5 4.16,5.83 3.34,5.84 3.33,5 3.33,5.83 3.34,5 3.33,5.83 4.17,5.84 3.33,5 3.33,5.83 3.34,5 3.33,5.83 4.17,5.84 3.33,5 3.33,5.83 3.34,5 3.33,5.83 4.17,5 3.33,5.84 3.33,5 4.17,5.83 3.33,5 4.17,5 3.33,5.83 3.34,5 4.16,5 3.34,5.84 4.16,5 3.34,5 4.16,5 3.34,5.83 4.16,5 4.17,5 3.33,5 4.17,5 4.17,5 3.33,5 4.17,5.83 4.16,5 3.34,5 4.16,5 4.17,5 4.17,5 3.33,5 4.17,5 4.16,5 4.17,4.17 4.17,5 4.16,5 4.17,5 4.17,4.17 4.16,5 4.17,4.16 5,5 4.17,5 4.16,4.17 4.17,4.17 5,5 4.17,4.16 5,5 4.16,4.17 4.17,4.17 5,4.16 5,4.17 4.17,5 5,4.17 4.16,4.16 4.17,4.17 5,4.17 4.17,5 5,4.16 4.16,4.17 5,4.17 4.17,4.16 5,4.17 4.17,4.17 5,5 4.16,4.16 5,4.17 4.17,4.17 5,4.16 4.17,4.17 5,4.17 4.16,4.16 5,4.17 4.17,4.17 5,4.16 3.33,2.5 5,4.17 5,4.17 5,3.33 5,4.17 5,3.33 5,4.17 5,3.33 5,4.17 5,3.33 5,4.17 5,3.33 5,3.33 5,3.34 5.84,3.33 5,3.33 5,3.34 5.83,3.33 5,3.33 5,3.34 5.83,3.33 5,3.33 5,3.34 5.84,3.33 5,2.5 5.83,3.33 5,3.34 5,3.33 5.83,3.33 5,3.34 5.84,3.33 5,3.33 5,3.34 5.83,3.33 5,3.33 5,3.34 5.83,3.33 5,3.33 5,3.34 5.84,3.33 5,2.5 5.83,3.33 5,3.34 5.83,2.5 5,3.33 5.84,3.33 5.83,2.5 5,3.34 5.83,3.33 5.84,2.5 5,3.33 5.83,2.5 5.83,3.34 5,2.5 5.84,2.5 5.83,3.33 5.83,2.5 5.84,2.5 5.83,2.5 5.83,2.5 5.84,2.5 5,3.33 5.83,2.5 5.83,2.5 5.84,2.5 5.83,2.5 5.83,2.5 5.84,2.5 5.83,1.67 5.83,2.5 6.67,2.5 5.83,1.67 5.84,2.5 5.83,2.5 5.83,1.66 6.67,2.5 5.83,1.67" /><path
               inkscape:connector-curvature="0"
               id="path268"
               style="fill:none;stroke:#0000ff;stroke-width:20;stroke-linecap:butt;stroke-linejoin:round;stroke-miterlimit:10;stroke-dasharray:none;stroke-opacity:1"
               d="m 4245,2335 1.67,0.83 6.66,2.5 5.84,3.34 5.83,2.5 5.83,3.33 6.67,2.5 5.83,3.33 5.84,2.5 5.83,3.34 6.67,3.33 5.83,2.5 5.83,3.33 5.84,3.34 6.66,3.33 5.84,3.33 5.83,3.34 5.83,3.33 6.67,3.33 5.83,3.34 5.84,3.33 6.66,3.33 5.84,3.34 5.83,3.33 6.67,3.33 5.83,3.34 5.83,4.16 6.67,3.34 5.83,3.33 6.67,3.33 5.83,4.17 5.84,3.33 6.66,3.34 5.84,3.33 6.66,4.17 5.84,3.33 6.66,3.33 6.67,3.34 5.83,4.16 6.67,3.34 5.83,3.33 6.67,3.33 5.83,3.34 6.67,3.33 6.67,3.33 5.83,3.34 6.67,3.33 6.66,3.33 5.84,2.5 6.66,3.34 5.84,2.5 6.66,3.33 6.67,2.5 5.83,3.33 6.67,2.5 6.67,3.34 5.83,2.5 6.67,2.5 6.66,2.5 5.84,2.5 6.66,1.66 6.67,2.5 5.83,2.5 6.67,2.5 6.67,1.67 5.83,2.5 6.67,1.67 5.83,2.5 6.67,1.66 6.66,1.67 5.84,1.67 6.66,0.83 6.67,1.67 5.83,1.66 6.67,0.84 5.83,1.66 6.67,0.84 6.67,1.66 5.83,0.84 6.67,0.83 6.66,0.83 5.84,0.84 6.66,0.83 6.67,0 6.67,0.83 5.83,0.84 6.67,0 6.66,0.83 13.34,0 5.83,0.83 13.33,0 6.67,0.84 20,0 6.67,0.83 6.66,0.83 5.84,0.84 6.66,0.83 6.67,0.83 5.83,0.84 6.67,0.83 6.67,0.83 6.66,0.84 6.67,0.83 5.83,0.83 6.67,0.84 6.67,1.66 6.66,1.67 5.84,0.83 6.66,1.67 6.67,1.67 5.83,1.66 6.67,2.5 5.83,1.67 6.67,2.5 5,3.33 5.83,3.34 5.84,3.33 5,3.33 5.83,4.17 4.17,4.17 5,3.33 5,4.17 5,5 4.16,4.16 4.17,4.17 4.17,5 4.16,4.17 4.17,5.83 3.33,5 2.5,5.83 3.34,5.84 2.5,5.83 2.5,6.67" /><path
               inkscape:connector-curvature="0"
               id="path270"
               style="fill:none;stroke:#00ff00;stroke-width:20;stroke-linecap:butt;stroke-linejoin:round;stroke-miterlimit:10;stroke-dasharray:none;stroke-opacity:1"
               d="m 6163.33,4185 5.84,3.33 5.83,4.17 5.83,3.33 5.84,3.34 6.66,3.33 5.84,4.17 5.83,3.33 5.83,3.33 5.84,3.34 5.83,3.33 6.67,3.33 5.83,4.17 5.83,3.33 6.67,3.34 5.83,3.33 5.84,3.33 6.66,2.5 5.84,3.34 5.83,3.33 6.67,3.33 5.83,3.34 6.67,3.33 5.83,2.5 6.67,3.33 6.66,3.34 5.84,2.5 6.66,3.33 5.84,3.33 6.66,2.5 6.67,3.34 5.83,2.5 6.67,3.33 6.67,2.5 5.83,2.5 6.67,3.33 6.66,2.5 6.67,2.5 6.67,3.34 5.83,2.5 6.67,2.5 6.66,2.5 6.67,2.5 6.67,3.33 6.66,2.5 6.67,2.5 6.67,2.5 6.66,2.5 6.67,1.67 6.67,2.5 6.66,2.5 6.67,2.5 6.67,2.5 6.66,2.5 6.67,1.66 6.67,2.5 6.66,2.5 7.5,1.67 6.67,2.5 6.67,1.67 6.66,2.5 6.67,1.66 6.67,2.5 7.5,1.67 6.66,2.5 6.67,1.67 6.67,1.66 7.5,1.67 6.66,2.5 6.67,1.67 6.67,1.66 7.5,1.67 6.66,1.67 6.67,1.66 7.5,1.67 6.67,1.67 6.66,1.66 7.5,1.67 6.67,1.67 7.5,1.66 6.67,1.67 6.66,1.67 7.5,0.83 6.67,1.67 7.5,1.66 6.67,1.67 7.5,0.83 6.66,1.67 6.67,0.83 7.5,1.67 6.67,0.83 7.5,1.67 6.66,0.83 7.5,1.67 6.67,0.83 7.5,0.84 6.67,1.66 7.5,0.84 6.66,0.83 7.5,0.83 6.67,0.84 7.5,1.66 7.5,0.84 6.67,0.83 7.5,0.83 6.66,0.84 7.5,0.83 7.5,0.83 6.67,0 7.5,0.84 6.67,0.83 7.5,0.83 6.66,0 7.5,0.84 7.5,0.83 6.67,0 7.5,0.83 6.67,0 7.5,0.84 6.66,0 7.5,0.83 7.5,0 6.67,0.83 21.67,0 7.5,0.84 64.16,0 7.5,-0.84 20.84,0 7.5,-0.83 14.16,0 7.5,-0.83 6.67,0 7.5,-0.84 6.67,0 7.5,-0.83 7.5,0 6.66,-0.83 7.5,-0.84 6.67,0 7.5,-0.83 6.67,-0.83 7.5,-0.84 6.66,-0.83 7.5,0 6.67,-0.83 7.5,-0.84 6.67,-0.83 7.5,-0.83 6.66,-0.84 7.5,-0.83 6.67,-0.83 7.5,-0.84 6.67,-0.83 7.5,-1.67 6.66,-0.83 7.5,-0.83 6.67,-0.84 7.5,-1.66 6.67,-0.84 6.66,-0.83 7.5,-1.67 6.67,-0.83 7.5,-1.67 6.67,-0.83 7.5,-0.83 6.66,-1.67 6.67,-0.83 7.5,-1.67 6.67,-1.67 6.66,-0.83 7.5,-1.67 6.67,-1.66 6.67,-1.67 9.16,-1.67 6.67,-1.66 6.67,-0.84 7.5,-1.66 6.66,-1.67 6.67,-1.67 6.67,-1.66 7.5,-1.67 6.66,-1.67 6.67,-1.66 6.67,-1.67 7.5,-1.67 6.66,-2.5 6.67,-1.66 6.67,-1.67 7.5,-1.67 6.66,-1.66 6.67,-2.5 6.67,-1.67 6.66,-1.67 7.5,-2.5 6.67,-1.66 6.67,-2.5 6.66,-1.67 6.67,-2.5 6.67,-1.67 6.66,-2.5 7.5,-1.66 6.67,-2.5 6.67,-2.5 6.66,-1.67 6.67,-2.5 6.67,-2.5 6.66,-2.5 6.67,-1.67 6.67,-2.5 6.66,-2.5 6.67,-2.5 6.67,-2.5 6.66,-2.5 6.67,-2.5 6.67,-2.5 6.66,-2.5 6.67,-2.5 6.67,-2.5 6.66,-2.5 6.67,-2.5 6.67,-2.5 6.66,-2.5 5.84,-3.33 6.66,-2.5 6.67,-2.5 6.67,-2.5 6.66,-3.33 6.67,-2.5 5.83,-2.5 6.67,-3.34 6.67,-2.5 6.66,-2.5 6.67,-3.33 5.83,-2.5 6.67,-3.33 6.67,-2.5 6.66,-3.34 5.84,-2.5 6.66,-3.33 6.67,-2.5 5.83,-3.33 6.67,-3.34 6.67,-2.5 5.83,-3.33 6.67,-3.33 6.66,-2.5 5.84,-3.34 6.66,-3.33 5.84,-3.33 6.66,-3.34 5.84,-2.5 6.66,-3.33 5.84,-3.33 6.66,-3.34 5.84,-3.33 5,-2.5 5.83,-3.33 6.67,-3.34 5.83,-3.33 6.67,-3.33 5.83,-3.34 5.83,-3.33 6.67,-3.33 5.83,-3.34 5.84,-4.16 6.66,-3.34 5.84,-3.33 5.83,-3.33 6.67,-3.34 5.83,-3.33 5.83,-4.17 5.84,-3.33 6.66,-3.33 5.84,-3.34 5.83,-4.16 5.83,-3.34 5.84,-3.33 6.66,-4.17 5.84,-3.33 5.83,-3.33 5.83,-4.17 5.84,-3.33 5.83,-4.17 5.83,-3.33 5.84,-4.17 5.83,-3.33 5.83,-3.34" /><path
               inkscape:connector-curvature="0"
               id="path272"
               style="fill:none;stroke:#00ff00;stroke-width:20;stroke-linecap:butt;stroke-linejoin:round;stroke-miterlimit:10;stroke-dasharray:none;stroke-opacity:1"
               d="m 5015.83,2613.33 5,4.17 5,4.17 4.17,4.16 5,5 4.17,4.17 5,4.17 5,4.16 4.16,4.17 5,4.17 4.17,5 4.17,4.16 5,4.17 4.16,5 4.17,5 4.17,4.17 4.16,5 4.17,5 4.17,4.16 5,5 4.16,5 4.17,5 4.17,4.17 4.16,5 4.17,5 4.17,5 4.16,5 4.17,5.83 4.17,5 4.16,5 4.17,5 4.17,5.84 4.16,5 3.34,5 4.16,5.83 4.17,5 4.17,5.83 3.33,5.84 4.17,5 4.16,5.83 3.34,5.83 4.16,5 3.34,5.84 4.16,5.83 4.17,5.83 3.33,5.84 4.17,5.83 3.33,5.83 3.34,5.84 4.16,5.83 3.34,5.83 4.16,5.84 3.34,5.83 3.33,6.67 4.17,5.83 3.33,5.83 3.33,5.84 4.17,5.83 3.33,6.67 3.34,5.83 3.33,5.83 4.17,6.67 3.33,5.83 3.33,5.84 3.34,6.66 3.33,5.84 3.33,5.83 3.34,6.67 3.33,5.83 3.33,5.83 3.34,6.67 3.33,5.83 3.33,5.84 3.34,6.66 3.33,5.84 3.33,5.83 2.5,6.67 3.34,5.83 3.33,6.67 2.5,5.83 3.33,5.83 3.34,6.67 3.33,5.83 2.5,5.84 3.33,6.66 2.5,5.84 3.34,5.83 3.33,6.67 2.5,5.83 2.5,5.83 3.33,6.67 2.5,5.83 3.34,5.84 2.5,6.66 2.5,5.84 3.33,5.83 2.5,6.67 2.5,5.83 3.33,5.83 2.5,6.67 2.5,5.83 2.5,5.84 3.34,6.66 2.5,5.84 2.5,5.83 2.5,5.83 3.33,6.67 2.5,5.83 2.5,5.84 2.5,6.66 2.5,5.84 3.33,5.83 2.5,5.83 2.5,6.67 2.5,5.83 3.34,5.84 2.5,5.83 2.5,6.67 2.5,5.83 2.5,5.83 3.33,5.84 2.5,5.83 2.5,5.83 3.33,6.67 2.5,5.83 2.5,5.84 2.5,5.83 3.34,5.83 2.5,5.84 2.5,5.83 3.33,5.83 2.5,6.67 2.5,5.83 3.33,5.84 2.5,5.83 2.5,5.83 3.34,5.84 2.5,5.83 2.5,5.83 3.33,5.84 2.5,5.83 2.5,5.83 3.33,5.84 2.5,5.83 3.34,5.83 2.5,5.84 2.5,5.83 3.33,5.83 2.5,5.84 3.33,5.83 2.5,5.83 3.34,5.84 2.5,5.83 3.33,5.83 2.5,5.84 3.33,5 3.34,5.83 2.5,5.83 3.33,5.84 2.5,5.83 3.33,5.83 3.34,5.84 3.33,5 2.5,5.83 3.33,5.83 3.34,5.84 3.33,5 2.5,5.83 3.33,5.83 3.34,5 3.33,5.84 3.33,5.83 3.34,5 3.33,5.83 3.33,5.84 3.34,5 3.33,5.83 3.33,5.83 3.34,5 3.33,5.84 3.33,5 3.34,5.83 3.33,5 4.17,5.83 3.33,5 3.33,5.84 3.34,5 4.16,5 3.34,5.83 3.33,5 4.17,5 3.33,5.83 4.17,5 3.33,5 4.17,5.84 3.33,5 4.17,5 3.33,5 4.17,5.83 3.33,5 4.17,5 4.16,5 3.34,5 4.16,5 4.17,5.83 3.33,5 4.17,5 4.17,5 4.16,5 4.17,5 4.17,5 3.33,5 4.17,5 4.16,5 4.17,5 4.17,5 4.16,5 4.17,5 4.17,4.17 4.16,5 4.17,5 4.17,5 4.16,5 4.17,5 4.17,5 5,4.17 4.16,5 4.17,5 4.17,5 4.16,4.16 4.17,5 5,5 4.17,5 4.16,4.17 5,5 3.34,3.33 4.16,5 5,5 4.17,4.17 4.17,5 5,5 4.16,4.17 5,5 4.17,4.16 5,5 5,4.17 4.17,5 5,4.17 5,5 4.16,4.16 5,5 5,4.17 4.17,4.17 5,5 5,4.16 5,4.17 5,5 5,4.17 5,4.16 5,5 5,4.17 5,4.17 5,4.16 5,5 5,4.17 5,4.17 5,4.16 5,4.17 5,4.17 5.83,4.16 5,5 5,4.17 5,4.17 5.84,4.16 5,4.17 5,4.17 5.83,4.16 5,3.34 5.83,4.16 5,4.17 5.84,4.17 5,4.16 5.83,4.17 5,4.17 5.83,3.33 5.84,4.17 5,4.16 5.83,3.34 5.83,4.16 5,4.17 5.84,3.33 5.83,4.17 5.83,4.17 5.84,3.33 5.83,4.17 5,3.33 5.83,4.17 5.84,3.33 5.83,3.33 5.83,4.17" /><path
               inkscape:connector-curvature="0"
               id="path274"
               style="fill:none;stroke:#00ff00;stroke-width:20;stroke-linecap:butt;stroke-linejoin:round;stroke-miterlimit:10;stroke-dasharray:none;stroke-opacity:1"
               d="m 4245,2300 0.83,0 6.67,1.67 6.67,0.83 5.83,0.83 6.67,0.84 6.66,0.83 6.67,0.83 6.67,1.67 6.66,0.83 5.84,0.84 6.66,0.83 6.67,1.67 6.67,0.83 6.66,0.83 5.84,0.84 6.66,1.66 6.67,0.84 6.67,0.83 5.83,1.67 6.67,0.83 6.66,0.83 6.67,1.67 5.83,0.83 6.67,1.67 6.67,0.83 5.83,1.67 6.67,0.83 6.66,1.67 5.84,0.83 6.66,1.67 6.67,1.67 5.83,0.83 6.67,1.67 5.83,1.66 6.67,1.67 6.67,0.83 5.83,1.67 6.67,1.67 5.83,1.66 6.67,1.67 6.66,1.67 5.84,1.66 6.66,1.67 5.84,1.67 6.66,1.66 5.84,1.67 6.66,1.67 5.84,2.5 6.66,1.66 5.84,1.67 6.66,1.67 6.67,2.5 5.83,1.66 6.67,2.5 6.67,1.67 5.83,2.5 6.67,1.67 6.66,2.5 6.67,2.5 6.67,2.5 5.83,2.5 6.67,2.5 6.66,2.5 6.67,2.5 6.67,2.5 6.66,2.5 6.67,3.33 6.67,2.5 6.66,3.33 5.84,2.5 6.66,2.5 6.67,3.34 6.67,3.33 6.66,3.33 6.67,2.5 6.67,3.34 6.66,3.33 5.84,3.33 6.66,3.34 6.67,3.33 6.67,3.33 6.66,3.34 5.84,3.33 6.66,4.17 6.67,3.33 5.83,3.33 6.67,3.34 5.83,4.16 6.67,3.34 5.83,3.33 6.67,3.33 6.67,3.34 5.83,4.16 5.83,3.34 6.67,3.33 5.83,4.17 5.84,3.33 6.66,4.17 5.84,3.33 5.83,4.17 5.83,3.33 5.84,4.17 5.83,3.33 5.83,4.17 5.84,3.33 5.83,4.17 5.83,3.33 5.84,3.33 5.83,4.17 5,4.17 5.83,3.33 5.84,4.17 5,3.33 5.83,4.17 5,4.16 5,3.34 5.83,4.16 5,4.17 5,3.33 5,4.17 5.84,4.17 5,4.16 5,4.17 5,4.17 4.16,4.16" /></g></g><g
           transform="scale(10,10)"
           id="g276" /><g
           id="g278"><g
             clip-path="url(#clipPath282)"
             id="g280"><path
               inkscape:connector-curvature="0"
               id="path286"
               style="fill:none;stroke:#000000;stroke-width:20;stroke-linecap:butt;stroke-linejoin:round;stroke-miterlimit:10;stroke-dasharray:none;stroke-opacity:1"
               d="m 4245,2525 13.33,2.5 27.5,5 27.5,5 26.67,4.17 27.5,4.16 27.5,4.17 27.5,4.17 27.5,3.33 27.5,2.5 26.67,3.33 27.5,1.67 28.33,2.5 27.5,1.67 27.5,1.66 27.5,0.84 27.5,1.66 27.5,1.67 27.5,1.67 27.5,0.83 27.5,1.67 27.5,0.83 27.5,1.67 27.5,1.66 27.5,1.67 27.5,4.17 27.5,5 26.67,7.5 25,10.83 20.83,18.33 15.83,21.67 10,25.83 5,26.67 4.17,26.67 5,27.5 4.17,26.66 3.33,27.5 3.33,26.67 3.34,27.5 3.33,26.67 4.17,27.5 4.16,26.66 3.34,27.5 3.33,26.67 4.17,27.5 4.16,26.67 4.17,27.5 4.17,26.66 5.83,26.67 5.83,26.67 6.67,26.66 7.5,26.67 8.33,25.83 9.17,25.84 9.17,25.83 10,25.83 10,25 10.83,25 10.83,25 11.67,25 12.5,25 11.67,24.17 13.33,24.17 12.5,24.16 14.17,24.17 13.33,23.33 13.33,24.17 14.17,23.33 13.33,24.17 14.17,23.33 13.33,23.34 14.17,24.16 4.17,23.34 15,22.5 15.83,22.5 15.83,22.5 15.84,22.5 15.83,22.5 15.83,22.5 15,22.5 16.67,22.5 16.67,21.66 17.5,20.84 17.5,20.83 19.16,20 18.34,20 20,20 19.16,18.33 20.84,18.34 20.83,18.33 21.67,16.67 22.5,16.66 22.5,15.84 22.5,15 24.16,14.16 24.17,13.34 24.17,12.5 25,11.66 25,11.67 25,10.83 25.83,10.84 25.83,10 25,10 25.84,10 25.83,9.16 26.67,10 25.83,9.17 25.83,10 25.84,9.17 25.83,9.16 25.83,10 25.84,9.17 25.83,9.17 26.67,8.33 25.83,9.17 26.67,7.5 25.83,8.33 26.67,6.67 27.5,6.66 26.66,5.84 26.67,5.83 27.5,5 26.67,5 27.5,5 27.5,4.17 27.5,4.16 26.66,3.34 27.5,3.33 27.5,3.33 27.5,2.5 27.5,2.5 27.5,2.5 27.5,1.67 27.5,1.67 27.5,1.66 28.34,0 27.5,0.84 55,0 27.5,-0.84 27.5,-1.66 27.5,-1.67 27.5,-1.67 27.5,-2.5 27.5,-2.5 27.5,-2.5 27.5,-3.33 27.5,-2.5 27.5,-3.33 27.5,-4.17 27.5,-4.17 26.66,-4.16 27.5,-4.17 27.5,-5 26.67,-4.17 27.5,-5 27.5,-4.16 26.67,-5 27.5,-5.84 26.66,-5 27.5,-5.83 26.67,-5.83 26.67,-6.67 26.66,-6.67 26.67,-6.66 26.67,-6.67 26.66,-7.5 26.67,-7.5 26.67,-7.5 26.66,-8.33 25.84,-8.34 26.66,-8.33 25.84,-8.33 25.83,-9.17 25.83,-10 25.84,-9.17 25.83,-10 25.83,-10 25.84,-10.83 25,-10 25.83,-10.83 25,-10.84 25.83,-10.83 25,-11.67 12.5,-7.5" /><path
               inkscape:connector-curvature="0"
               id="path288"
               style="fill:none;stroke:#000000;stroke-width:20;stroke-linecap:butt;stroke-linejoin:round;stroke-miterlimit:10;stroke-dasharray:none;stroke-opacity:1"
               d="m 4245,2280 12.5,2.5 27.5,4.17 26.67,5 27.5,4.16 27.5,4.17 26.66,4.17 27.5,3.33 27.5,3.33 27.5,3.34 27.5,3.33 27.5,2.5 27.5,2.5 27.5,3.33 27.5,2.5 27.5,2.5 27.5,2.5 27.5,2.5 27.5,2.5 27.5,2.5 27.5,3.34 27.5,2.5 27.5,2.5 27.5,2.5 27.5,3.33 27.5,2.5 26.67,3.33 27.5,4.17 27.5,5 26.67,5.83 26.66,6.67 26.67,7.5 25.83,10 25.84,10 25,11.67 24.16,13.33 23.34,15 20.83,17.5 19.17,19.17 15.83,22.5 14.17,23.33 10.83,25.83 7.5,25.84 5,26.66 3.33,27.5 2.5,26.67 2.5,27.5 3.34,27.5 4.16,26.67 4.17,27.5 4.17,26.66 5,26.67 5,27.5 5,26.67 5.83,26.66 5.83,26.67 6.67,26.67 6.67,26.66 6.66,26.67 6.67,25.83 6.67,26.67 6.66,26.67 7.5,26.66 7.5,25.84 8.34,25.83 9.16,25.83 10,25.84 10,25 11.67,25.83 10.83,24.17 13.34,24.16 10.83,25 11.67,25 10.83,25 11.67,25 11.66,24.17 12.5,25 13.34,24.17 13.33,23.33 13.33,24.17 14.17,23.33 15.83,22.5 15.84,22.5 15.83,21.67 17.5,21.66 17.5,20.84 18.33,20.83 18.34,20.83 18.33,20 19.17,19.17 20,20 19.16,19.17 20,18.33 20.84,18.33 20.83,18.34 20.83,17.5 21.67,16.66 22.5,16.67 22.5,15 23.33,15.83 22.5,15 23.34,14.17 23.33,15 24.17,13.33 24.16,13.34 24.17,13.33 24.17,13.33 24.16,12.5 25,12.5 25,11.67 25,11.67 25,10.83 25.84,10 25.83,10 25.83,9.17 25.84,9.16 26.66,8.34 26.67,7.5 26.67,7.5 26.66,6.66 26.67,6.67 26.67,5.83 27.5,5 26.66,5 27.5,4.17 27.5,4.17 27.5,3.33 27.5,2.5 27.5,2.5 27.5,2.5 27.5,1.67 27.5,0.83 27.5,1.67 27.5,0 27.5,0.83 55.84,0 27.5,-0.83 27.5,-1.67 27.5,-1.67 27.5,-1.66 27.5,-1.67 27.5,-2.5 27.5,-2.5 27.5,-2.5 27.5,-3.33 27.5,-3.34 27.5,-3.33 26.66,-4.17 27.5,-3.33 27.5,-5 27.5,-4.17 26.67,-4.16 27.5,-5 26.67,-5.84 27.5,-5 26.66,-5.83 27.5,-5.83 26.67,-5.84 26.67,-6.66 26.66,-5.84 27.5,-6.66 26.67,-6.67 26.67,-7.5 26.66,-6.67 26.67,-7.5 25.83,-8.33 26.67,-7.5 25.83,-8.33 26.67,-9.17 25.83,-9.17 25.84,-9.16 25.83,-9.17 25.83,-10.83 25.84,-10 25,-10.84 25.83,-10.83 25,-11.67 25,-11.66 24.17,-11.67 25,-12.5 25,-12.5 24.16,-12.5 12.5,-5.83" /></g></g><g
           transform="scale(10,10)"
           id="g290"><text
             id="text292"
             style="font-variant:normal;font-weight:normal;font-size:14px;font-family:Helvetica;-inkscape-font-specification:Helvetica;writing-mode:lr-tb;fill:#000000;fill-opacity:1;fill-rule:nonzero;stroke:none"
             transform="matrix(0,-1,-1,0,852.75,330.25)"><tspan
               id="tspan294"
               sodipodi:role="line"
               y="0"
               x="0 9.3380003 17.122 24.122 28.014 31.906 36.568001 48.23">East (m)</tspan></text>
</g><path
           inkscape:connector-curvature="0"
           id="path296"
           style="fill:none;stroke:#000000;stroke-width:5;stroke-linecap:butt;stroke-linejoin:round;stroke-miterlimit:10;stroke-dasharray:none;stroke-opacity:1"
           d="m 8165,5507.5 0,-4920.832" /><path
           inkscape:connector-curvature="0"
           id="path298"
           style="fill:none;stroke:#000000;stroke-width:5;stroke-linecap:butt;stroke-linejoin:round;stroke-miterlimit:10;stroke-dasharray:none;stroke-opacity:1"
           d="m 4245,5507.5 0,-4920.832" /><path
           inkscape:connector-curvature="0"
           id="path300"
           style="fill:none;stroke:#000000;stroke-width:5;stroke-linecap:butt;stroke-linejoin:round;stroke-miterlimit:10;stroke-dasharray:none;stroke-opacity:1"
           d="m 4245,579.168 3920,0" /><path
           inkscape:connector-curvature="0"
           id="path302"
           style="fill:none;stroke:#000000;stroke-width:5;stroke-linecap:butt;stroke-linejoin:round;stroke-miterlimit:10;stroke-dasharray:none;stroke-opacity:1"
           d="m 4245,586.668 3920,0" /><path
           inkscape:connector-curvature="0"
           id="path304"
           style="fill:none;stroke:#000000;stroke-width:5;stroke-linecap:butt;stroke-linejoin:round;stroke-miterlimit:10;stroke-dasharray:none;stroke-opacity:1"
           d="m 8165,579.168 0,7.5" /><path
           inkscape:connector-curvature="0"
           id="path306"
           style="fill:none;stroke:#000000;stroke-width:5;stroke-linecap:butt;stroke-linejoin:round;stroke-miterlimit:10;stroke-dasharray:none;stroke-opacity:1"
           d="m 4245,579.168 0,7.5" /><path
           inkscape:connector-curvature="0"
           id="path308"
           style="fill:#ffffff;fill-opacity:1;fill-rule:evenodd;stroke:none"
           d="m 5725.83,2849.17 1300.84,0 0,590 -1300.84,0 0,-590 z" /><path
           inkscape:connector-curvature="0"
           id="path310"
           style="fill:none;stroke:#ffffff;stroke-width:5;stroke-linecap:butt;stroke-linejoin:round;stroke-miterlimit:10;stroke-dasharray:none;stroke-opacity:1"
           d="m 5725.83,2849.17 0,590 1300.84,0 0,-590 -1300.84,0" /><path
           inkscape:connector-curvature="0"
           id="path312"
           style="fill:none;stroke:#000000;stroke-width:5;stroke-linecap:butt;stroke-linejoin:round;stroke-miterlimit:10;stroke-dasharray:none;stroke-opacity:1"
           d="m 5725.83,3439.17 1300.84,0" /><path
           inkscape:connector-curvature="0"
           id="path314"
           style="fill:none;stroke:#000000;stroke-width:5;stroke-linecap:butt;stroke-linejoin:round;stroke-miterlimit:10;stroke-dasharray:none;stroke-opacity:1"
           d="m 5725.83,2849.17 1300.84,0" /><path
           inkscape:connector-curvature="0"
           id="path316"
           style="fill:none;stroke:#000000;stroke-width:5;stroke-linecap:butt;stroke-linejoin:round;stroke-miterlimit:10;stroke-dasharray:none;stroke-opacity:1"
           d="m 7026.67,2849.17 0,590" /><path
           inkscape:connector-curvature="0"
           id="path318"
           style="fill:none;stroke:#000000;stroke-width:5;stroke-linecap:butt;stroke-linejoin:round;stroke-miterlimit:10;stroke-dasharray:none;stroke-opacity:1"
           d="m 5725.83,2849.17 0,590" /><path
           inkscape:connector-curvature="0"
           id="path320"
           style="fill:none;stroke:#000000;stroke-width:5;stroke-linecap:butt;stroke-linejoin:round;stroke-miterlimit:10;stroke-dasharray:none;stroke-opacity:1"
           d="m 5725.83,2849.17 1300.84,0" /><path
           inkscape:connector-curvature="0"
           id="path322"
           style="fill:none;stroke:#000000;stroke-width:5;stroke-linecap:butt;stroke-linejoin:round;stroke-miterlimit:10;stroke-dasharray:none;stroke-opacity:1"
           d="m 5725.83,2849.17 0,590" /><path
           inkscape:connector-curvature="0"
           id="path324"
           style="fill:none;stroke:#000000;stroke-width:5;stroke-linecap:butt;stroke-linejoin:round;stroke-miterlimit:10;stroke-dasharray:none;stroke-opacity:1"
           d="m 5725.83,3439.17 1300.84,0" /><path
           inkscape:connector-curvature="0"
           id="path326"
           style="fill:none;stroke:#000000;stroke-width:5;stroke-linecap:butt;stroke-linejoin:round;stroke-miterlimit:10;stroke-dasharray:none;stroke-opacity:1"
           d="m 5725.83,2849.17 1300.84,0" /><path
           inkscape:connector-curvature="0"
           id="path328"
           style="fill:none;stroke:#000000;stroke-width:5;stroke-linecap:butt;stroke-linejoin:round;stroke-miterlimit:10;stroke-dasharray:none;stroke-opacity:1"
           d="m 7026.67,2849.17 0,590" /><path
           inkscape:connector-curvature="0"
           id="path330"
           style="fill:none;stroke:#000000;stroke-width:5;stroke-linecap:butt;stroke-linejoin:round;stroke-miterlimit:10;stroke-dasharray:none;stroke-opacity:1"
           d="m 5725.83,2849.17 0,590" /><g
           transform="scale(10,10)"
           id="g332"><text
             id="text334"
             style="font-variant:normal;font-weight:normal;font-size:14px;font-family:Helvetica;-inkscape-font-specification:Helvetica;writing-mode:lr-tb;fill:#000000;fill-opacity:1;fill-rule:nonzero;stroke:none"
             transform="matrix(1,0,0,-1,611.75,327.917)"><tspan
               id="tspan336"
               sodipodi:role="line"
               y="0"
               x="0 10.108 17.892 29.554001 37.338001 40.445999 48.23 56.014">Combined</tspan></text>
</g><g
           id="g338"><g
             clip-path="url(#clipPath342)"
             id="g340"><path
               inkscape:connector-curvature="0"
               id="path346"
               style="fill:none;stroke:#ff0000;stroke-width:20;stroke-linecap:butt;stroke-linejoin:round;stroke-miterlimit:10;stroke-dasharray:none;stroke-opacity:1"
               d="m 5785.83,3329.17 300.84,0" /></g></g><g
           transform="scale(10,10)"
           id="g348"><text
             id="text350"
             style="font-variant:normal;font-weight:normal;font-size:14px;font-family:Helvetica;-inkscape-font-specification:Helvetica;writing-mode:lr-tb;fill:#000000;fill-opacity:1;fill-rule:nonzero;stroke:none"
             transform="matrix(1,0,0,-1,611.75,309.333)"><tspan
               id="tspan352"
               sodipodi:role="line"
               y="0"
               x="0 11.662 14.77 22.554001 26.445999 36.554001 39.661999 46.661999 50.554001 58.338001 66.122002 73.122002">Min Distance</tspan></text>
</g><g
           id="g354"><g
             clip-path="url(#clipPath358)"
             id="g356"><path
               inkscape:connector-curvature="0"
               id="path362"
               style="fill:none;stroke:#0000ff;stroke-width:20;stroke-linecap:butt;stroke-linejoin:round;stroke-miterlimit:10;stroke-dasharray:none;stroke-opacity:1"
               d="m 5785.83,3144.17 300.84,0" /></g></g><g
           transform="scale(10,10)"
           id="g364"><text
             id="text366"
             style="font-variant:normal;font-weight:normal;font-size:14px;font-family:Helvetica;-inkscape-font-specification:Helvetica;writing-mode:lr-tb;fill:#000000;fill-opacity:1;fill-rule:nonzero;stroke:none"
             transform="matrix(1,0,0,-1,611.75,290.833)"><tspan
               id="tspan368"
               sodipodi:role="line"
               y="0"
               x="0 11.662 14.77 22.554001 26.445999 36.554001 44.338001 49 56 63.784 67.676003 75.459999 80.122002">Min Curvature</tspan></text>
</g><g
           id="g370"><g
             clip-path="url(#clipPath374)"
             id="g372"><path
               inkscape:connector-curvature="0"
               id="path378"
               style="fill:none;stroke:#00ff00;stroke-width:20;stroke-linecap:butt;stroke-linejoin:round;stroke-miterlimit:10;stroke-dasharray:none;stroke-opacity:1"
               d="m 5785.83,2959.17 300.84,0" /></g></g></g><path
         inkscape:connector-curvature="0"
         id="path4788"
         d="m 514.58656,368.93816 76.22455,76.22455"
         style="fill:none;fill-rule:evenodd;stroke:#000000;stroke-width:1.60000002;stroke-linecap:butt;stroke-linejoin:miter;stroke-miterlimit:4;stroke-dasharray:none;stroke-opacity:1;marker-end:url(#marker4822)" /></g><rect
       style="opacity:1;fill:#ffffff;fill-opacity:0;stroke:#000000;stroke-width:1.60000002;stroke-miterlimit:4;stroke-dasharray:none;stroke-dashoffset:0;stroke-opacity:1"
       id="rect5085"
       width="385.93988"
       height="289.02991"
       x="426.74414"
       y="-498.15152"
       transform="scale(1,-1)"
       ry="0" /></g></svg>