<?xml version="1.0" encoding="UTF-8" standalone="no"?>
<!-- Created with Inkscape (http://www.inkscape.org/) -->

<svg
   xmlns:dc="http://purl.org/dc/elements/1.1/"
   xmlns:cc="http://creativecommons.org/ns#"
   xmlns:rdf="http://www.w3.org/1999/02/22-rdf-syntax-ns#"
   xmlns:svg="http://www.w3.org/2000/svg"
   xmlns="http://www.w3.org/2000/svg"
   xmlns:sodipodi="http://sodipodi.sourceforge.net/DTD/sodipodi-0.dtd"
   xmlns:inkscape="http://www.inkscape.org/namespaces/inkscape"
   id="svg2"
   version="1.1"
   inkscape:version="0.91 r13725"
   xml:space="preserve"
   width="506.25"
   height="675"
   viewBox="0 0 506.25 675"
   sodipodi:docname="composite1.svg"><metadata
     id="metadata8"><rdf:RDF><cc:Work
         rdf:about=""><dc:format>image/svg+xml</dc:format><dc:type
           rdf:resource="http://purl.org/dc/dcmitype/StillImage" /><dc:title /></cc:Work></rdf:RDF></metadata><defs
     id="defs6"><marker
       inkscape:isstock="true"
       style="overflow:visible;"
       id="marker4583"
       refX="0.0"
       refY="0.0"
       orient="auto"
       inkscape:stockid="Arrow1Lend"><path
         transform="scale(0.8) rotate(180) translate(12.5,0)"
         style="fill-rule:evenodd;stroke:#000000;stroke-width:1pt;stroke-opacity:1;fill:#000000;fill-opacity:1"
         d="M 0.0,0.0 L 5.0,-5.0 L -12.5,0.0 L 5.0,5.0 L 0.0,0.0 z "
         id="path4585" /></marker><marker
       inkscape:stockid="Arrow1Lend"
       orient="auto"
       refY="0.0"
       refX="0.0"
       id="Arrow1Lend"
       style="overflow:visible;"
       inkscape:isstock="true"
       inkscape:collect="always"><path
         id="path4302"
         d="M 0.0,0.0 L 5.0,-5.0 L -12.5,0.0 L 5.0,5.0 L 0.0,0.0 z "
         style="fill-rule:evenodd;stroke:#000000;stroke-width:1pt;stroke-opacity:1;fill:#000000;fill-opacity:1"
         transform="scale(0.8) rotate(180) translate(12.5,0)" /></marker><clipPath
       clipPathUnits="userSpaceOnUse"
       id="clipPath106"><path
         d="m 144.168,2231.67 2261.662,0 0,-2001.67 -2261.662,0 0,2001.67 z"
         id="path108"
         inkscape:connector-curvature="0" /></clipPath><clipPath
       clipPathUnits="userSpaceOnUse"
       id="clipPath210"><path
         d="m 159.168,5355 2248.332,0 0,-3035 -2248.332,0 0,3035 z"
         id="path212"
         inkscape:connector-curvature="0" /></clipPath><clipPath
       clipPathUnits="userSpaceOnUse"
       id="clipPath272"><path
         d="m 208.332,5240.83 1262.498,0 0,-455.83 -1262.498,0 0,455.83 z"
         id="path274"
         inkscape:connector-curvature="0" /></clipPath><clipPath
       clipPathUnits="userSpaceOnUse"
       id="clipPath288"><path
         d="m 208.332,5240.83 1262.498,0 0,-455.83 -1262.498,0 0,455.83 z"
         id="path290"
         inkscape:connector-curvature="0" /></clipPath><clipPath
       clipPathUnits="userSpaceOnUse"
       id="clipPath304"><path
         d="m 208.332,5240.83 1262.498,0 0,-455.83 -1262.498,0 0,455.83 z"
         id="path306"
         inkscape:connector-curvature="0" /></clipPath><clipPath
       clipPathUnits="userSpaceOnUse"
       id="clipPath4294"><rect
         style="fill:#0000ff;fill-opacity:1;stroke-width:1.60000002;stroke-miterlimit:4;stroke-dasharray:none"
         id="rect4296"
         width="2311.0168"
         height="5182.627"
         x="130.01141"
         y="-5374.3428"
         transform="scale(1,-1)" /></clipPath><clipPath
       clipPathUnits="userSpaceOnUse"
       id="clipPath4441"><rect
         style="fill:#0000ff;fill-opacity:1;stroke-width:1.60000002;stroke-miterlimit:4;stroke-dasharray:none"
         id="rect4443"
         width="235.67795"
         height="518.2627"
         x="5.7203388"
         y="-543.43219"
         transform="scale(1,-1)" /></clipPath><clipPath
       id="clipPath4415"
       clipPathUnits="userSpaceOnUse"><path
         inkscape:connector-curvature="0"
         id="path4417"
         d="m 144.168,2231.67 2261.662,0 0,-2001.67 -2261.662,0 0,2001.67 z" /></clipPath><clipPath
       id="clipPath4519"
       clipPathUnits="userSpaceOnUse"><path
         inkscape:connector-curvature="0"
         id="path4521"
         d="m 159.168,5355 2248.332,0 0,-3035 -2248.332,0 0,3035 z" /></clipPath><clipPath
       id="clipPath4581"
       clipPathUnits="userSpaceOnUse"><path
         inkscape:connector-curvature="0"
         id="path4583"
         d="m 208.332,5240.83 1262.498,0 0,-455.83 -1262.498,0 0,455.83 z" /></clipPath><clipPath
       id="clipPath4597"
       clipPathUnits="userSpaceOnUse"><path
         inkscape:connector-curvature="0"
         id="path4599"
         d="m 208.332,5240.83 1262.498,0 0,-455.83 -1262.498,0 0,455.83 z" /></clipPath><clipPath
       id="clipPath4613"
       clipPathUnits="userSpaceOnUse"><path
         inkscape:connector-curvature="0"
         id="path4615"
         d="m 208.332,5240.83 1262.498,0 0,-455.83 -1262.498,0 0,455.83 z" /></clipPath><clipPath
       clipPathUnits="userSpaceOnUse"
       id="clipPath5216"><rect
         style="opacity:0.73400005;fill:#ffffff;fill-opacity:0;stroke:#000000;stroke-width:2;stroke-miterlimit:4;stroke-dasharray:none;stroke-dashoffset:0;stroke-opacity:1"
         id="rect5218"
         width="235.41263"
         height="511.27411"
         x="1.6179562"
         y="-534.7345"
         transform="scale(1,-1)"
         ry="2.9566159" /></clipPath><clipPath
       clipPathUnits="userSpaceOnUse"
       id="clipPath5441"><rect
         style="opacity:0.73400005;fill:#ffffff;fill-opacity:0;stroke:#000000;stroke-width:2;stroke-miterlimit:4;stroke-dasharray:none;stroke-dashoffset:0;stroke-opacity:1"
         id="rect5443"
         width="236.2216"
         height="516.93701"
         x="4.0448904"
         y="-540.39734"
         transform="scale(1,-1)"
         ry="2.3652959" /></clipPath><clipPath
       id="clipPath4299"
       clipPathUnits="userSpaceOnUse"><path
         inkscape:connector-curvature="0"
         id="path4301"
         d="m 144.168,2231.67 2261.662,0 0,-2001.67 -2261.662,0 0,2001.67 z" /></clipPath><clipPath
       id="clipPath4403"
       clipPathUnits="userSpaceOnUse"><path
         inkscape:connector-curvature="0"
         id="path4405"
         d="m 159.168,5355 2248.332,0 0,-3035 -2248.332,0 0,3035 z" /></clipPath><clipPath
       id="clipPath4465"
       clipPathUnits="userSpaceOnUse"><path
         inkscape:connector-curvature="0"
         id="path4467"
         d="m 208.332,5240.83 1262.498,0 0,-455.83 -1262.498,0 0,455.83 z" /></clipPath><clipPath
       id="clipPath4481"
       clipPathUnits="userSpaceOnUse"><path
         inkscape:connector-curvature="0"
         id="path4483"
         d="m 208.332,5240.83 1262.498,0 0,-455.83 -1262.498,0 0,455.83 z" /></clipPath><clipPath
       id="clipPath4497"
       clipPathUnits="userSpaceOnUse"><path
         inkscape:connector-curvature="0"
         id="path4499"
         d="m 208.332,5240.83 1262.498,0 0,-455.83 -1262.498,0 0,455.83 z" /></clipPath></defs><sodipodi:namedview
     pagecolor="#ffffff"
     bordercolor="#666666"
     borderopacity="1"
     objecttolerance="10"
     gridtolerance="10"
     guidetolerance="10"
     inkscape:pageopacity="0"
     inkscape:pageshadow="2"
     inkscape:window-width="1920"
     inkscape:window-height="1058"
     id="namedview4"
     showgrid="false"
     inkscape:zoom="0.98890195"
     inkscape:cx="-48.838425"
     inkscape:cy="383.45981"
     inkscape:window-x="-8"
     inkscape:window-y="-8"
     inkscape:window-maximized="1"
     inkscape:current-layer="g10" /><g
     id="g10"
     inkscape:groupmode="layer"
     inkscape:label="ink_ext_XXXXXX"
     transform="matrix(1.25,0,0,-1.25,0,675)"><g
       id="g4665"><g
         transform="translate(-6.56728,5.2731677)"
         id="g4203"
         inkscape:label="ink_ext_XXXXXX"><g
           id="g4205"
           transform="scale(0.1,0.1)"><path
             d="m 0,0 4050,0 0,5400 L 0,5400 0,0 Z"
             style="fill:#ffffff;fill-opacity:1;fill-rule:nonzero;stroke:none"
             id="path4207"
             inkscape:connector-curvature="0" /><path
             d="m 144.168,230.832 2260.83,0 0,2000.84 -2260.83,0 0,-2000.84 z"
             style="fill:#ffffff;fill-opacity:1;fill-rule:evenodd;stroke:none"
             id="path4209"
             inkscape:connector-curvature="0" /><path
             d="m 144.168,230.832 0,2000.838 2260.832,0 0,-2000.838 -2260.832,0"
             style="fill:none;stroke:#ffffff;stroke-width:5;stroke-linecap:butt;stroke-linejoin:round;stroke-miterlimit:10;stroke-dasharray:none;stroke-opacity:1"
             id="path4211"
             inkscape:connector-curvature="0" /><path
             d="m 262.5,230.832 0,2000.838"
             style="fill:none;stroke:#000000;stroke-width:3.33332992;stroke-linecap:butt;stroke-linejoin:round;stroke-miterlimit:10;stroke-dasharray:5, 40;stroke-dashoffset:0;stroke-opacity:1"
             id="path4213"
             inkscape:connector-curvature="0" /><path
             d="m 262.5,2231.67 0,0"
             style="fill:none;stroke:#000000;stroke-width:3.33332992;stroke-linecap:butt;stroke-linejoin:round;stroke-miterlimit:10;stroke-dasharray:5, 40;stroke-dashoffset:0;stroke-opacity:1"
             id="path4215"
             inkscape:connector-curvature="0" /><path
             d="m 606.668,230.832 0,2000.838"
             style="fill:none;stroke:#000000;stroke-width:3.33332992;stroke-linecap:butt;stroke-linejoin:round;stroke-miterlimit:10;stroke-dasharray:5, 40;stroke-dashoffset:0;stroke-opacity:1"
             id="path4217"
             inkscape:connector-curvature="0" /><path
             d="m 606.668,2231.67 0,0"
             style="fill:none;stroke:#000000;stroke-width:3.33332992;stroke-linecap:butt;stroke-linejoin:round;stroke-miterlimit:10;stroke-dasharray:5, 40;stroke-dashoffset:0;stroke-opacity:1"
             id="path4219"
             inkscape:connector-curvature="0" /><path
             d="m 950.832,230.832 0,2000.838"
             style="fill:none;stroke:#000000;stroke-width:3.33332992;stroke-linecap:butt;stroke-linejoin:round;stroke-miterlimit:10;stroke-dasharray:5, 40;stroke-dashoffset:0;stroke-opacity:1"
             id="path4221"
             inkscape:connector-curvature="0" /><path
             d="m 950.832,2231.67 0,0"
             style="fill:none;stroke:#000000;stroke-width:3.33332992;stroke-linecap:butt;stroke-linejoin:round;stroke-miterlimit:10;stroke-dasharray:5, 40;stroke-dashoffset:0;stroke-opacity:1"
             id="path4223"
             inkscape:connector-curvature="0" /><path
             d="m 1295,230.832 0,2000.838"
             style="fill:none;stroke:#000000;stroke-width:3.33332992;stroke-linecap:butt;stroke-linejoin:round;stroke-miterlimit:10;stroke-dasharray:5, 40;stroke-dashoffset:0;stroke-opacity:1"
             id="path4225"
             inkscape:connector-curvature="0" /><path
             d="m 1295,2231.67 0,0"
             style="fill:none;stroke:#000000;stroke-width:3.33332992;stroke-linecap:butt;stroke-linejoin:round;stroke-miterlimit:10;stroke-dasharray:5, 40;stroke-dashoffset:0;stroke-opacity:1"
             id="path4227"
             inkscape:connector-curvature="0" /><path
             d="m 1639.17,230.832 0,2000.838"
             style="fill:none;stroke:#000000;stroke-width:3.33332992;stroke-linecap:butt;stroke-linejoin:round;stroke-miterlimit:10;stroke-dasharray:5, 40;stroke-dashoffset:0;stroke-opacity:1"
             id="path4229"
             inkscape:connector-curvature="0" /><path
             d="m 1639.17,2231.67 0,0"
             style="fill:none;stroke:#000000;stroke-width:3.33332992;stroke-linecap:butt;stroke-linejoin:round;stroke-miterlimit:10;stroke-dasharray:5, 40;stroke-dashoffset:0;stroke-opacity:1"
             id="path4231"
             inkscape:connector-curvature="0" /><path
             d="m 1983.33,230.832 0,2000.838"
             style="fill:none;stroke:#000000;stroke-width:3.33332992;stroke-linecap:butt;stroke-linejoin:round;stroke-miterlimit:10;stroke-dasharray:5, 40;stroke-dashoffset:0;stroke-opacity:1"
             id="path4233"
             inkscape:connector-curvature="0" /><path
             d="m 1983.33,2231.67 0,0"
             style="fill:none;stroke:#000000;stroke-width:3.33332992;stroke-linecap:butt;stroke-linejoin:round;stroke-miterlimit:10;stroke-dasharray:5, 40;stroke-dashoffset:0;stroke-opacity:1"
             id="path4235"
             inkscape:connector-curvature="0" /><path
             d="m 2326.67,230.832 0,2000.838"
             style="fill:none;stroke:#000000;stroke-width:3.33332992;stroke-linecap:butt;stroke-linejoin:round;stroke-miterlimit:10;stroke-dasharray:5, 40;stroke-dashoffset:0;stroke-opacity:1"
             id="path4237"
             inkscape:connector-curvature="0" /><path
             d="m 2326.67,2231.67 0,0"
             style="fill:none;stroke:#000000;stroke-width:3.33332992;stroke-linecap:butt;stroke-linejoin:round;stroke-miterlimit:10;stroke-dasharray:5, 40;stroke-dashoffset:0;stroke-opacity:1"
             id="path4239"
             inkscape:connector-curvature="0" /><path
             d="m 144.168,323.332 2260.832,0"
             style="fill:none;stroke:#000000;stroke-width:3.33332992;stroke-linecap:butt;stroke-linejoin:round;stroke-miterlimit:10;stroke-dasharray:5, 40;stroke-dashoffset:0;stroke-opacity:1"
             id="path4241"
             inkscape:connector-curvature="0" /><path
             d="m 2405,323.332 0,0"
             style="fill:none;stroke:#000000;stroke-width:3.33332992;stroke-linecap:butt;stroke-linejoin:round;stroke-miterlimit:10;stroke-dasharray:5, 40;stroke-dashoffset:0;stroke-opacity:1"
             id="path4243"
             inkscape:connector-curvature="0" /><path
             d="M 144.168,667.5 2405,667.5"
             style="fill:none;stroke:#000000;stroke-width:3.33332992;stroke-linecap:butt;stroke-linejoin:round;stroke-miterlimit:10;stroke-dasharray:5, 40;stroke-dashoffset:0;stroke-opacity:1"
             id="path4245"
             inkscape:connector-curvature="0" /><path
             d="m 2405,667.5 0,0"
             style="fill:none;stroke:#000000;stroke-width:3.33332992;stroke-linecap:butt;stroke-linejoin:round;stroke-miterlimit:10;stroke-dasharray:5, 40;stroke-dashoffset:0;stroke-opacity:1"
             id="path4247"
             inkscape:connector-curvature="0" /><path
             d="m 144.168,1011.67 2260.832,0"
             style="fill:none;stroke:#000000;stroke-width:3.33332992;stroke-linecap:butt;stroke-linejoin:round;stroke-miterlimit:10;stroke-dasharray:5, 40;stroke-dashoffset:0;stroke-opacity:1"
             id="path4249"
             inkscape:connector-curvature="0" /><path
             d="m 2405,1011.67 0,0"
             style="fill:none;stroke:#000000;stroke-width:3.33332992;stroke-linecap:butt;stroke-linejoin:round;stroke-miterlimit:10;stroke-dasharray:5, 40;stroke-dashoffset:0;stroke-opacity:1"
             id="path4251"
             inkscape:connector-curvature="0" /><path
             d="M 144.168,1355 2405,1355"
             style="fill:none;stroke:#000000;stroke-width:3.33332992;stroke-linecap:butt;stroke-linejoin:round;stroke-miterlimit:10;stroke-dasharray:5, 40;stroke-dashoffset:0;stroke-opacity:1"
             id="path4253"
             inkscape:connector-curvature="0" /><path
             d="m 2405,1355 0,0"
             style="fill:none;stroke:#000000;stroke-width:3.33332992;stroke-linecap:butt;stroke-linejoin:round;stroke-miterlimit:10;stroke-dasharray:5, 40;stroke-dashoffset:0;stroke-opacity:1"
             id="path4255"
             inkscape:connector-curvature="0" /><path
             d="m 144.168,1699.17 2260.832,0"
             style="fill:none;stroke:#000000;stroke-width:3.33332992;stroke-linecap:butt;stroke-linejoin:round;stroke-miterlimit:10;stroke-dasharray:5, 40;stroke-dashoffset:0;stroke-opacity:1"
             id="path4257"
             inkscape:connector-curvature="0" /><path
             d="m 2405,1699.17 0,0"
             style="fill:none;stroke:#000000;stroke-width:3.33332992;stroke-linecap:butt;stroke-linejoin:round;stroke-miterlimit:10;stroke-dasharray:5, 40;stroke-dashoffset:0;stroke-opacity:1"
             id="path4259"
             inkscape:connector-curvature="0" /><path
             d="m 144.168,2043.33 2260.832,0"
             style="fill:none;stroke:#000000;stroke-width:3.33332992;stroke-linecap:butt;stroke-linejoin:round;stroke-miterlimit:10;stroke-dasharray:5, 40;stroke-dashoffset:0;stroke-opacity:1"
             id="path4261"
             inkscape:connector-curvature="0" /><path
             d="m 2405,2043.33 0,0"
             style="fill:none;stroke:#000000;stroke-width:3.33332992;stroke-linecap:butt;stroke-linejoin:round;stroke-miterlimit:10;stroke-dasharray:5, 40;stroke-dashoffset:0;stroke-opacity:1"
             id="path4263"
             inkscape:connector-curvature="0" /><path
             d="m 144.168,230.832 2260.832,0"
             style="fill:none;stroke:#000000;stroke-width:5;stroke-linecap:butt;stroke-linejoin:round;stroke-miterlimit:10;stroke-dasharray:none;stroke-opacity:1"
             id="path4265"
             inkscape:connector-curvature="0" /><path
             d="m 144.168,230.832 0,2000.838"
             style="fill:none;stroke:#000000;stroke-width:5;stroke-linecap:butt;stroke-linejoin:round;stroke-miterlimit:10;stroke-dasharray:none;stroke-opacity:1"
             id="path4267"
             inkscape:connector-curvature="0" /><path
             d="m 262.5,230.832 0,23.336"
             style="fill:none;stroke:#000000;stroke-width:5;stroke-linecap:butt;stroke-linejoin:round;stroke-miterlimit:10;stroke-dasharray:none;stroke-opacity:1"
             id="path4269"
             inkscape:connector-curvature="0" /><path
             d="m 606.668,230.832 0,23.336"
             style="fill:none;stroke:#000000;stroke-width:5;stroke-linecap:butt;stroke-linejoin:round;stroke-miterlimit:10;stroke-dasharray:none;stroke-opacity:1"
             id="path4271"
             inkscape:connector-curvature="0" /><path
             d="m 950.832,230.832 0,23.336"
             style="fill:none;stroke:#000000;stroke-width:5;stroke-linecap:butt;stroke-linejoin:round;stroke-miterlimit:10;stroke-dasharray:none;stroke-opacity:1"
             id="path4273"
             inkscape:connector-curvature="0" /><path
             d="m 1295,230.832 0,23.336"
             style="fill:none;stroke:#000000;stroke-width:5;stroke-linecap:butt;stroke-linejoin:round;stroke-miterlimit:10;stroke-dasharray:none;stroke-opacity:1"
             id="path4275"
             inkscape:connector-curvature="0" /><path
             d="m 1639.17,230.832 0,23.336"
             style="fill:none;stroke:#000000;stroke-width:5;stroke-linecap:butt;stroke-linejoin:round;stroke-miterlimit:10;stroke-dasharray:none;stroke-opacity:1"
             id="path4277"
             inkscape:connector-curvature="0" /><path
             d="m 1983.33,230.832 0,23.336"
             style="fill:none;stroke:#000000;stroke-width:5;stroke-linecap:butt;stroke-linejoin:round;stroke-miterlimit:10;stroke-dasharray:none;stroke-opacity:1"
             id="path4279"
             inkscape:connector-curvature="0" /><path
             d="m 2326.67,230.832 0,23.336"
             style="fill:none;stroke:#000000;stroke-width:5;stroke-linecap:butt;stroke-linejoin:round;stroke-miterlimit:10;stroke-dasharray:none;stroke-opacity:1"
             id="path4281"
             inkscape:connector-curvature="0" /><path
             d="m 144.168,323.332 22.5,0"
             style="fill:none;stroke:#000000;stroke-width:5;stroke-linecap:butt;stroke-linejoin:round;stroke-miterlimit:10;stroke-dasharray:none;stroke-opacity:1"
             id="path4283"
             inkscape:connector-curvature="0" /><path
             d="m 144.168,667.5 22.5,0"
             style="fill:none;stroke:#000000;stroke-width:5;stroke-linecap:butt;stroke-linejoin:round;stroke-miterlimit:10;stroke-dasharray:none;stroke-opacity:1"
             id="path4285"
             inkscape:connector-curvature="0" /><path
             d="m 144.168,1011.67 22.5,0"
             style="fill:none;stroke:#000000;stroke-width:5;stroke-linecap:butt;stroke-linejoin:round;stroke-miterlimit:10;stroke-dasharray:none;stroke-opacity:1"
             id="path4287"
             inkscape:connector-curvature="0" /><path
             d="m 144.168,1355 22.5,0"
             style="fill:none;stroke:#000000;stroke-width:5;stroke-linecap:butt;stroke-linejoin:round;stroke-miterlimit:10;stroke-dasharray:none;stroke-opacity:1"
             id="path4289"
             inkscape:connector-curvature="0" /><path
             d="m 144.168,1699.17 22.5,0"
             style="fill:none;stroke:#000000;stroke-width:5;stroke-linecap:butt;stroke-linejoin:round;stroke-miterlimit:10;stroke-dasharray:none;stroke-opacity:1"
             id="path4291"
             inkscape:connector-curvature="0" /><path
             d="m 144.168,2043.33 22.5,0"
             style="fill:none;stroke:#000000;stroke-width:5;stroke-linecap:butt;stroke-linejoin:round;stroke-miterlimit:10;stroke-dasharray:none;stroke-opacity:1"
             id="path4293"
             inkscape:connector-curvature="0" /><g
             id="g4295"><g
               id="g4297"
               clip-path="url(#clipPath4299)"><path
                 d="m 1197.5,1803.33 4.17,1.67 4.16,0.83 4.17,1.67 4.17,0.83 5,1.67 4.16,0.83 4.17,0.84 4.17,1.66 4.16,0.84 5,0.83 4.17,0.83 4.17,1.67 4.16,0.83 5,0.84 4.17,0.83 4.17,0.83 4.16,0.84 5,0.83 4.17,0.83 4.17,0.84 5,0.83 4.16,0.83 4.17,0.84 4.17,0.83 5,0.83 4.16,0.84 4.17,0.83 5,0.83 4.17,0.84 4.16,0.83 5,0 4.17,0.83 4.17,0.84 5,0.83 4.16,0 4.17,0.83 5,0.84 4.17,0 4.16,0.83 5,0 4.17,0.83 5,0.84 4.17,0 4.16,0.83 9.17,0 4.17,0.83 5,0 4.16,0.84 9.17,0 4.17,0.83 13.33,0 5,0.83 71.67,0 4.16,-0.83 13.34,0 5,-0.83 8.33,0 5,-0.84 8.33,0 5,-0.83 4.17,0 4.17,-0.83 5,0 4.16,-0.84 4.17,0 5,-0.83 4.17,0 4.16,-0.83 5,0 4.17,-0.84 4.17,-0.83 4.16,0 5,-0.83 4.17,-0.84 4.17,-0.83 5,0 4.16,-0.83 4.17,-0.84 4.17,-0.83 5,0 4.16,-0.83 4.17,-0.84 4.17,-0.83 5,-0.83 4.16,-0.84 4.17,-0.83 4.17,-0.83 5,-0.84 4.16,-0.83 4.17,-0.83 4.17,-0.84 5,-0.83 4.16,-0.83 4.17,-0.84 4.17,-0.83 4.16,-0.83 4.17,-0.84 5,-1.66 4.17,-0.84 5,-0.83 4.16,-1.67 5,-0.83 4.17,-0.83 4.17,-0.84 4.16,-1.66 4.17,-0.84 4.17,-0.83 4.16,-1.67 4.17,-0.83 5,-1.67 4.17,-0.83 4.16,-0.83 4.17,-1.67 4.17,-0.83 4.16,-1.67 4.17,-0.83 4.17,-1.67 4.16,-1.67 4.17,-0.83 4.17,-1.67 4.16,-0.83 5,-1.67 4.17,-1.66 4.17,-0.84 4.16,-1.66 4.17,-1.67 4.17,-0.83 4.16,-1.67 4.17,-1.67 4.17,-1.66 4.16,-0.84 4.17,-1.66 4.17,-1.67 4.16,-1.67 4.17,-1.66 4.17,-1.67 4.16,-0.83 4.17,-1.67 3.33,-1.67 4.17,-1.66 4.17,-1.67 4.16,-1.67 4.17,-1.66 4.17,-1.67 4.16,-1.67 4.17,-1.66 4.17,-1.67 4.16,-1.67 3.34,-1.66 4.16,-1.67 4.17,-1.67 4.17,-2.5 4.16,-1.66 4.17,-1.67 4.17,-1.67 3.33,-1.66 4.17,-1.67 4.16,-2.5 4.17,-1.67 4.17,-1.66 3.33,-1.67 4.17,-1.67 4.16,-2.5 4.17,-1.66 3.33,-1.67 4.17,-2.5 4.17,-1.67 4.16,-1.66 3.34,-2.5 4.16,-1.67 4.17,-1.67 3.33,-2.5 4.17,-1.66 4.17,-2.5 4.16,-1.67 3.34,-1.67 4.16,-2.5 3.34,-1.66 4.16,-2.5 4.17,-1.67 3.33,-2.5 3.34,-1.67 3.33,-2.5 4.17,-1.66 3.33,-2.5 4.17,-1.67 4.16,-2.5 3.34,-1.67 4.16,-2.5 3.34,-2.5 4.16,-1.66 3.34,-2.5 4.16,-2.5 3.34,-1.67 4.16,-2.5 3.34,-2.5 4.16,-1.67 3.34,-2.5 4.16,-2.5 3.34,-1.66 4.16,-2.5 3.34,-2.5 3.33,-2.5 4.17,-1.67 3.33,-2.5 4.17,-2.5 3.33,-2.5 3.33,-2.5 4.17,-1.67 3.33,-2.5 3.34,-2.5 4.16,-2.5 3.34,-2.5 3.33,-2.5 4.17,-2.5 3.33,-1.66 3.33,-2.5 4.17,-2.5 3.33,-2.5 3.34,-2.5 3.33,-2.5 4.17,-2.5 3.33,-2.5 3.33,-2.5 3.34,-2.5 4.16,-2.5 3.34,-2.5 3.33,-2.5 3.33,-2.5 3.34,-2.5 3.33,-2.5 4.17,-2.5 3.33,-2.5 3.33,-2.5 3.34,-2.5 3.33,-2.5 3.33,-2.5 3.34,-3.34 3.33,-2.5 4.17,-2.5 3.33,-2.5 3.33,-2.5 3.34,-2.5 3.33,-2.5 3.33,-2.5 3.34,-3.33 3.33,-2.5 3.33,-2.5 3.34,-2.5 3.33,-2.5 3.33,-3.33 3.34,-2.5 3.33,-2.5 3.33,-2.5 3.34,-2.5 3.33,-3.34 3.33,-2.5 3.34,-2.5 3.33,-2.5 4.17,-4.16 3.33,-2.5 3.33,-2.5 3.34,-2.5 3.33,-3.34 3.33,-2.5 2.5,-2.5 3.34,-3.33 3.33,-2.5 3.33,-2.5 3.34,-3.33 3.33,-2.5 3.33,-2.5 2.5,-3.34 3.34,-2.5 3.33,-3.33 3.33,-2.5"
                 style="fill:none;stroke:#0000ff;stroke-width:20;stroke-linecap:butt;stroke-linejoin:round;stroke-miterlimit:10;stroke-dasharray:none;stroke-opacity:1"
                 id="path4303"
                 inkscape:connector-curvature="0" /><path
                 d="m 392.5,903.332 2.5,4.168 1.668,3.332 2.5,4.168 1.664,4.168 2.5,3.332 1.668,4.168 2.5,4.164 1.668,3.336 1.664,4.164 2.5,4.168 1.668,3.332 1.668,4.168 2.5,4.168 1.664,3.332 1.668,4.168 2.5,4.164 1.668,3.336 1.664,4.164 2.5,3.336 1.668,4.164 1.668,4.168 1.664,3.332 1.668,4.168 2.5,4.168 1.668,3.332 1.664,4.17 1.668,3.33 1.668,4.17 1.664,4.16 1.668,3.34 1.668,4.16 1.664,4.17 1.668,3.33 1.668,4.17 1.664,3.33 2.5,4.17 1.668,4.17 1.668,3.33 1.664,4.17 1.668,3.33 1.668,4.17 1.664,4.16 1.668,3.34 1.668,4.16 1.664,3.34 1.668,4.16 1.668,3.34 1.664,4.16 1.668,4.17 1.668,3.33 1.664,4.17 1.668,3.33 1.668,4.17 1.664,3.33 1.668,4.17 1.668,3.33 1.664,4.17 1.668,3.33 1.668,4.17 1.664,3.33 1.668,4.17 1.668,3.33 1.664,4.17 1.668,3.33 1.668,4.17 1.664,3.33 1.668,4.17 1.668,3.33 1.664,4.17 1.668,3.33 1.668,4.17 1.664,3.33 1.668,4.17 1.668,3.33 1.664,3.34 2.5,4.16 1.668,3.34 1.668,4.16 1.664,3.34 1.668,4.16 1.668,3.34 1.664,3.33 1.668,4.17 2.5,3.33 1.668,3.33 1.664,4.17 1.668,3.33 1.668,4.17 2.5,3.33 1.664,3.34 1.668,4.16 1.668,3.34 2.5,3.33 1.664,3.33 1.668,4.17 1.668,3.33 2.5,3.34 1.664,4.16 1.668,3.34 2.5,3.33 1.668,3.33 1.664,4.17 2.5,3.33 1.668,3.34 1.668,3.33 2.5,4.17 1.664,3.33 2.5,3.33 1.668,3.34 1.668,3.33 2.5,4.17 1.664,3.33 2.5,3.33 1.668,3.34 2.5,3.33 1.668,3.33 2.5,4.17 1.664,3.33 2.5,3.34 1.668,3.33 2.5,3.33 2.5,3.34 1.668,3.33 2.5,3.33 2.5,3.34 1.664,3.33 2.5,3.33 2.5,3.34 1.668,3.33 2.5,3.33 2.5,3.34 1.668,3.33 2.5,3.33 2.5,3.34 2.5,3.33 2.5,3.33 1.664,3.34 2.5,3.33 2.5,3.33 2.5,3.34 2.5,3.33 2.5,3.33 2.5,3.34 2.5,3.33 1.668,2.5 2.5,3.33 2.5,3.34 2.5,3.33 2.5,3.33 2.5,3.34 2.5,2.5 2.5,3.33 2.5,3.33 2.5,3.34 3.332,3.33 2.5,2.5 2.5,3.33 2.5,3.34 2.5,3.33 2.5,2.5 2.5,3.33 2.5,3.34 3.336,2.5 2.5,3.33 2.5,3.33 2.5,2.5 2.5,3.34 3.332,3.33 2.5,2.5 2.5,3.33 2.5,3.34 2.5,1.66 2.5,3.34 3.332,3.33 2.5,2.5 2.5,3.33 3.336,2.5 2.5,3.34 3.332,2.5 2.5,3.33 2.5,2.5 3.332,3.33 2.5,2.5 3.336,3.34 2.5,2.5 3.332,3.33 3.332,2.5 2.5,3.33 3.336,2.5 2.5,3.34 3.332,2.5 3.332,2.5 2.5,3.33 3.336,2.5 3.332,3.33 2.5,2.5 3.332,2.5 3.336,3.34 2.5,2.5 3.332,2.5 3.332,3.33 3.336,2.5 3.332,2.5 2.5,3.33 3.332,2.5 3.336,2.5 3.332,2.5 3.332,3.34 3.336,2.5 3.332,2.5 3.332,2.5 3.336,2.5 3.332,3.33 3.332,2.5 3.336,2.5 3.332,2.5 3.332,2.5 3.336,2.5 3.332,2.5 3.332,2.5 3.336,2.5 3.332,2.5 3.332,2.5 3.336,2.5 4.164,2.5 3.336,2.5 3.332,2.5 3.332,2.5 4.168,2.5 3.332,2.5 3.336,2.5 3.332,2.5 4.168,2.5 3.332,2.5 3.332,1.67 4.168,2.5 3.332,2.5 4.168,2.5 3.332,2.5 3.336,1.66 4.164,2.5 3.336,2.5 4.164,2.5 3.336,1.67 4.164,2.5 3.336,2.5 4.164,1.67 3.336,2.5 4.164,1.66 3.336,2.5 4.162,1.67 4.17,2.5 3.33,1.67 4.17,2.5 4.17,1.66 3.33,2.5 4.17,1.67 4.16,2.5 3.34,1.67 4.16,1.66 4.17,2.5 4.17,1.67 3.33,1.67 4.17,2.5 4.16,1.66 4.17,1.67 4.17,1.67 3.33,2.5 4.17,1.66 4.16,1.67 4.17,1.67 4.17,1.66 4.16,1.67 4.17,1.67 4.17,1.66 3.33,1.67 4.17,1.67 4.16,1.66 4.17,1.67 4.17,1.67 4.16,1.66 4.17,1.67 4.17,1.67 4.16,1.66 4.17,0.84 4.17,1.66 4.16,1.67 4.17,1.67 5,1.66 4.17,0.84 4.16,1.66 4.17,1.67 4.17,0.83 4.16,1.67 4.17,0.83 4.17,1.67 4.16,0.83 5,1.67 4.17,0.83"
                 style="fill:none;stroke:#0000ff;stroke-width:20;stroke-linecap:butt;stroke-linejoin:round;stroke-miterlimit:10;stroke-dasharray:none;stroke-opacity:1"
                 id="path4305"
                 inkscape:connector-curvature="0" /><path
                 d="m 144.168,629.168 1.664,0.832 3.336,2.5 4.164,2.5 3.336,2.5 3.332,1.668 4.168,2.5 3.332,2.5 4.168,2.5 3.332,2.5 3.332,2.5 3.336,2.5 3.332,2.5 3.332,2.5 4.168,2.5 3.332,2.5 3.336,2.5 2.5,2.5 3.332,2.5 3.332,2.5 3.336,2.5 3.332,2.5 3.332,2.5 3.336,2.5 2.5,3.332 3.332,2.5 3.332,2.5 2.5,2.5 2.5,3.332 3.336,2.5 2.5,2.5 3.332,3.336 2.5,2.5 3.332,2.5 2.5,2.5 2.5,3.332 3.336,2.5 2.5,2.5 2.5,3.332 3.332,2.5 2.5,3.336 2.5,2.5 2.5,3.332 2.5,2.5 3.332,3.332 2.5,3.336 2.5,2.5 2.5,3.332 3.336,2.5 2.5,3.332 2.5,3.336 2.5,2.5 2.5,3.332 2.5,3.332 2.5,3.336 3.332,3.332 2.5,3.332 2.5,3.336 2.5,2.5 2.5,3.332 2.5,3.332 2.5,3.336 2.5,4.164 2.5,3.336 2.5,3.332 2.5,3.332 2.5,3.336 2.5,3.332 2.5,4.168 2.5,3.332 2.5,3.332 2.5,3.336 1.668,4.164 2.5,3.336 2.5,4.164 2.5,3.336 2.5,3.332 2.5,4.168 1.664,3.332 2.5,4.168 2.5,3.332 2.5,4.168 1.668,3.332 2.5,4.168 2.5,3.332 1.668,4.168 2.5,4.164 1.664,3.336 2.5,4.164 2.5,3.336 1.668,4.164"
                 style="fill:none;stroke:#0000ff;stroke-width:20;stroke-linecap:butt;stroke-linejoin:round;stroke-miterlimit:10;stroke-dasharray:none;stroke-opacity:1"
                 id="path4307"
                 inkscape:connector-curvature="0" /><path
                 d="m 1219.17,1700.83 4.16,0.84 4.17,0.83 4.17,0.83 4.16,0.84 4.17,0.83 4.17,0 5,0.83 4.16,0.84 4.17,0.83 4.17,0.83 4.16,0 4.17,0.84 4.17,0.83 4.16,0 4.17,0.83 5,0.84 4.17,0 4.16,0.83 4.17,0 4.17,0.83 4.16,0.84 4.17,0 4.17,0.83 5,0 4.16,0.83 8.34,0 4.16,0.84 4.17,0 4.17,0.83 9.16,0 4.17,0.83 12.5,0 5,0.84 12.5,0 4.17,0.83 85.83,0 5,-0.83 12.5,0 4.17,-0.84 13.33,0 4.17,-0.83 8.33,0 4.17,-0.83 9.16,0 4.17,-0.84 4.17,0 4.16,-0.83 4.17,0 4.17,-0.83 4.16,0 5,-0.84 4.17,0 4.17,-0.83 4.16,0 4.17,-0.83 5,0 1.67,-0.84 5,0 3.33,-0.83 3.33,0 4.17,-0.83 4.17,0 4.16,-0.84 4.17,-0.83 4.17,-0.83 4.16,0 4.17,-0.84 4.17,-0.83 4.16,0 5,-0.83 4.17,-0.84 4.17,-0.83 4.16,-0.83 4.17,0 4.17,-0.84 4.16,-0.83 4.17,-0.83 4.17,-0.84 4.16,-0.83 4.17,-0.83 5,-0.84 4.17,0 4.16,-0.83 4.17,-0.83 4.17,-0.84 4.16,-0.83 4.17,-0.83 4.17,-0.84 4.16,-0.83 4.17,-0.83 4.17,-0.84 4.16,-1.66 4.17,-0.84 4.17,-0.83 4.16,-0.83 4.17,-0.84 4.17,-0.83 4.16,-0.83 4.17,-0.84 4.17,-1.66 5,-0.84 4.16,-0.83 4.17,-0.83 4.17,-0.84 4.16,-1.66 4.17,-0.84 4.17,-0.83 4.16,-0.83 4.17,-1.67 4.17,-0.83 4.16,-0.84 4.17,-1.66 4.17,-0.84 4.16,-0.83 3.34,-1.67 4.16,-0.83 4.17,-1.67 4.17,-0.83 4.16,-0.83 4.17,-1.67 4.17,-0.83 4.16,-1.67 4.17,-0.83 4.17,-1.67 4.16,-0.83 4.17,-1.67 4.17,-0.83 4.16,-1.67 4.17,-0.83 4.17,-1.67 4.16,-0.83 4.17,-1.67 3.33,-0.83 4.17,-1.67 4.17,-1.67 4.16,-0.83 4.17,-1.67 4.17,-1.66 4.16,-0.84 4.17,-1.66 4.17,-1.67 3.33,-0.83 4.17,-1.67 4.16,-1.67 4.17,-0.83 0.83,-0.83 1.67,0 0.83,-0.84 1.67,0 3.33,-1.66 4.17,-1.67 4.17,-1.67 4.16,-1.66 4.17,-0.84 4.17,-1.66 3.33,-1.67 4.17,-1.67 4.16,-1.66 4.17,-0.84 4.17,-1.66 4.16,-1.67 3.34,-1.67 4.16,-1.66 4.17,-1.67 4.17,-1.67 4.16,-1.66 3.34,-1.67 4.16,-1.67 4.17,-1.66 4.17,-1.67 3.33,-1.67 4.17,-1.66 4.16,-1.67 4.17,-1.67 3.33,-1.66 4.17,-1.67 4.17,-1.67 4.16,-1.66 3.34,-1.67 4.16,-1.67 4.17,-1.66 3.33,-1.67 4.17,-1.67 4.17,-1.66 4.16,-2.5 3.34,-1.67 4.16,-1.67 4.17,-1.66 3.33,-1.67 4.17,-1.67 4.17,-2.5 3.33,-1.66 4.17,-1.67 4.16,-1.67 3.34,-2.5 4.16,-1.66 4.17,-1.67 3.33,-1.67 4.17,-2.5 3.33,-1.66 4.17,-1.67 4.17,-2.5 3.33,-1.67 4.17,-1.66 3.33,-2.5 4.17,-1.67 4.16,-1.67 3.34,-2.5 4.16,-1.66 3.34,-2.5 4.16,-1.67 3.34,-1.67 4.16,-2.5 3.34,-1.66 4.16,-2.5 4.17,-1.67 3.33,-2.5 4.17,-1.67 3.33,-2.5 4.17,-1.66 3.33,-2.5 4.17,-1.67 3.33,-2.5 4.17,-1.67 3.33,-2.5 4.17,-2.5 3.33,-1.66 3.34,-2.5 4.16,-1.67 3.34,-2.5 4.16,-2.5 3.34,-1.67 4.16,-2.5 3.34,-1.66 4.16,-2.5 3.34,-2.5 3.33,-2.5 4.17,-1.67 3.33,-2.5 3.33,-2.5 4.17,-1.67 3.33,-2.5 4.17,-2.5 3.33,-2.5 3.34,-1.66 4.16,-2.5 3.34,-2.5 3.33,-2.5 4.17,-2.5 3.33,-1.67 3.33,-2.5 4.17,-2.5 3.33,-2.5 3.34,-2.5 4.16,-2.5 3.34,-2.5 3.33,-1.67 3.33,-2.5 4.17,-2.5 3.33,-2.5 3.34,-2.5 3.33,-2.5 4.17,-2.5 3.33,-2.5 3.33,-2.5"
                 style="fill:none;stroke:#ff0000;stroke-width:20;stroke-linecap:butt;stroke-linejoin:round;stroke-miterlimit:10;stroke-dasharray:60;stroke-dashoffset:0;stroke-opacity:1"
                 id="path4309"
                 inkscape:connector-curvature="0" /><path
                 d="m 367.5,865 1.668,4.168 2.5,4.164 1.664,3.336 1.668,4.164 2.5,3.336 1.668,4.164 2.5,3.336 1.664,4.164 1.668,3.336 1.668,4.164 2.5,3.336 1.664,4.164 1.668,4.168 1.668,3.332 2.5,4.168 1.664,4.168 1.668,3.332 1.668,4.168 1.664,4.164 1.668,3.336 1.668,4.164 2.5,4.168 1.664,4.168 1.668,3.332 1.668,4.168 1.664,4.164 1.668,3.336 1.668,4.164 1.664,4.168 1.668,4.168 1.668,4.164 1.664,3.336 1.668,4.164 1.668,4.168 1.664,4.17 1.668,3.33 1.668,4.17 1.664,4.16 1.668,4.17 0,0.83 0.832,0.84 0,0.83 1.668,4.17 1.668,4.16 1.664,3.34 1.668,4.16 1.668,4.17 1.664,4.17 1.668,4.16 1.668,3.34 1.664,4.16 1.668,4.17 1.668,4.17 1.664,3.33 1.668,4.17 1.668,4.16 1.664,4.17 1.668,3.33 1.668,4.17 1.664,4.17 1.668,4.16 1.668,3.34 1.664,4.16 1.668,4.17 2.5,3.33 1.668,4.17 1.664,4.17 1.668,4.16 1.668,3.34 1.664,4.16 1.668,4.17 2.5,3.33 1.668,4.17 1.664,4.17 1.668,3.33 1.668,4.17 2.5,4.16 1.664,3.34 1.668,4.16 2.5,3.34 1.668,4.16 1.664,4.17 0.836,1.67 0.832,1.66 0.832,1.67 1.668,1.67 1.668,3.33 1.664,4.17 2.5,4.16 1.668,3.34 2.5,4.16 1.668,3.34 2.5,4.16 1.664,3.34 2.5,4.16 1.668,3.34 2.5,3.33 2.5,4.17 1.668,3.33 2.5,4.17 2.5,3.33 1.664,4.17 2.5,3.33 2.5,3.33 2.5,4.17 1.668,3.33 2.5,3.34 2.5,4.16 2.5,3.34 2.5,3.33 1.668,4.17 2.5,3.33 2.5,3.33 2.5,3.34 2.5,4.16 2.5,3.34 2.5,3.33 2.5,3.33 2.5,4.17 2.5,3.33 2.5,3.34 2.5,3.33 2.5,3.33 2.5,3.34 3.332,3.33 2.5,4.17 2.5,3.33 2.5,3.33 2.5,3.34 2.5,3.33 3.332,3.33 2.5,3.34 2.5,3.33 2.5,3.33 3.336,3.34 2.5,3.33 2.5,3.33 3.332,3.34 2.5,2.5 2.5,3.33 3.332,3.33 2.5,3.34 3.336,3.33 2.5,3.33 3.332,3.34 2.5,2.5 3.332,3.33 2.5,3.33 3.336,3.34 2.5,3.33 3.332,2.5 2.5,3.33 3.332,3.34 3.336,2.5 2.5,3.33 3.332,3.33 2.5,2.5 3.332,3.34 3.336,3.33 3.332,2.5 2.5,3.33 3.332,2.5 3.336,3.34 3.332,2.5 2.5,3.33 3.332,2.5 3.336,3.33 3.332,2.5 3.332,3.34 2.5,2.5 3.336,3.33 3.332,2.5 3.332,2.5 3.336,3.33 3.332,2.5 3.332,2.5 3.336,3.34 3.332,2.5 3.332,2.5 3.336,2.5 3.332,3.33 3.332,2.5 3.336,2.5 3.332,2.5 3.332,3.33 3.336,2.5 3.332,2.5 3.332,2.5 4.168,2.5 3.332,2.5 3.336,2.5 3.332,2.5 3.332,2.5 3.336,2.5 4.164,2.5 3.336,2.5 3.332,2.5 3.332,2.5 4.168,2.5 3.332,2.5 3.336,2.5 3.332,2.5 4.168,1.67 3.332,2.5 3.332,2.5 4.168,2.5 3.332,2.5 3.336,1.67 4.164,2.5 3.336,2.5 4.164,1.66 3.336,2.5 3.332,2.5 4.168,1.67 3.332,2.5 4.168,2.5 3.332,1.67 4.168,2.5 3.332,1.66 4.168,2.5 3.332,1.67 4.168,2.5 3.332,1.67 4.168,2.5 3.332,1.66 4.168,1.67 4.164,2.5 3.336,1.67 4.164,2.5 3.336,1.66 4.164,1.67 4.168,1.67 3.332,2.5 4.168,1.66 4.168,1.67 3.332,1.67 4.168,2.5 4.164,1.66 3.336,1.67 4.164,1.67 4.168,1.66 4.168,1.67 3.332,1.67 4.17,1.66 4.16,1.67 4.17,1.67 3.33,1.66 4.17,1.67 4.17,1.67 4.16,1.66 3.34,1.67 4.16,1.67 4.17,1.66 4.17,0.84 1.66,0.83 1.67,0.83 2.5,0.84 1.67,0.83 4.16,1.67 4.17,0.83 4.17,1.67 3.33,1.66 4.17,0.84 4.16,1.66 4.17,1.67 4.17,0.83 4.16,1.67 4.17,0.83 4.17,1.67 4.16,1.67 4.17,0.83 4.17,1.67 4.16,0.83 3.34,0.83 4.16,1.67 4.17,0.83 4.17,1.67 4.16,0.83 4.17,0.84 4.17,1.66 4.16,0.84 4.17,0.83 4.17,1.67 4.16,0.83 4.17,0.83 4.17,0.84 4.16,0.83 4.17,1.67 4.17,0.83 4.16,0.83 4.17,0.84 5,0.83 4.17,0.83 4.16,0.84 4.17,0.83 4.17,0.83 4.16,0.84 4.17,0.83 4.17,0.83"
                 style="fill:none;stroke:#ff0000;stroke-width:20;stroke-linecap:butt;stroke-linejoin:round;stroke-miterlimit:10;stroke-dasharray:60;stroke-dashoffset:0;stroke-opacity:1"
                 id="path4311"
                 inkscape:connector-curvature="0" /><path
                 d="m 144.168,624.168 2.5,1.664 3.332,2.5 3.332,2.5 4.168,1.668 3.332,2.5 3.336,2.5 4.164,2.5 3.336,2.5 3.332,2.5 3.332,2.5 3.336,2.5 4.164,2.5 3.336,2.5 3.332,2.5 3.332,2.5 3.336,3.332 3.332,2.5 3.332,2.5 3.336,2.5 3.332,3.336 3.332,2.5 3.336,2.5 3.332,3.332 3.332,2.5 0.836,0.832 0.832,0.836 3.332,2.5 3.336,3.332 2.5,2.5 3.332,3.332 3.332,2.5 3.336,3.336 2.5,3.332 3.332,2.5 3.332,3.332 2.5,3.336 3.336,2.5 2.5,3.332 3.332,3.332 2.5,3.336 3.332,3.332 2.5,2.5 3.336,3.332 2.5,3.336 2.5,3.332 3.332,3.332 2.5,3.336 2.5,3.332 3.332,3.332 2.5,3.336 2.5,3.332 2.5,3.332 2.5,3.336 2.5,3.332 3.336,3.332 2.5,4.168 2.5,3.332 2.5,3.336 2.5,3.332 2.5,3.332 2.5,4.168 2.5,3.332 1.664,3.336 2.5,3.332 2.5,4.168 2.5,3.332 2.5,3.332 2.5,4.168 1.668,3.332 2.5,3.336 2.5,4.164 2.5,3.336 1.668,4.164 2.5,3.336 1.664,4.164 2.5,3.336 2.5,3.332 1.668,4.168 2.5,3.332"
                 style="fill:none;stroke:#ff0000;stroke-width:20;stroke-linecap:butt;stroke-linejoin:round;stroke-miterlimit:10;stroke-dasharray:60;stroke-dashoffset:0;stroke-opacity:1"
                 id="path4313"
                 inkscape:connector-curvature="0" /><path
                 d="m 1234.17,1735 4.16,0.83 4.17,1.67 4.17,0.83 4.16,0.84 4.17,0.83 4.17,0.83 4.16,0.84 4.17,0.83 4.17,0.83 4.16,0.84 4.17,0.83 4.17,0.83 4.16,0.84 4.17,0.83 5,0.83 4.17,0.84 4.16,0.83 4.17,0.83 4.17,0 4.16,0.84 4.17,0.83 4.17,0.83 4.16,0.84 4.17,0 5,0.83 4.17,0.83 4.16,0 4.17,0.84 4.17,0 4.16,0.83 4.17,0.83 4.17,0 5,0.84 5,0 1.66,0.83 4.17,0 4.17,0.83 9.16,0 4.17,0.84 4.17,0 4.16,0.83 13.34,0 4.16,0.83 12.5,0 4.17,0.84 73.33,0 4.17,-0.84 17.5,0 4.17,-0.83 8.33,0 5,-0.83 8.33,0 4.17,-0.84 4.17,0 4.16,-0.83 4.17,0 5,-0.83 8.33,0 4.17,-0.84 4.17,-0.83 4.16,0 4.17,-0.83 4.17,0 5,-0.84 4.16,0 4.17,-0.83 4.17,-0.83 4.16,0 4.17,-0.84 4.17,-0.83 4.16,-0.83 5,0 4.17,-0.84 4.17,-0.83 4.16,-0.83 4.17,0 4.17,-0.84 4.16,-0.83 4.17,-0.83 4.17,-0.84 4.16,-0.83 4.17,-0.83 5,-0.84 4.17,-0.83 4.16,-0.83 4.17,-0.84 4.17,-0.83 4.16,-0.83 4.17,-0.84 4.17,-0.83 4.16,-0.83 4.17,-0.84 4.17,-0.83 4.16,-0.83 4.17,-0.84 4.17,-0.83 4.16,-0.83 4.17,-1.67 4.17,-0.83 4.16,-0.84 4.17,-0.83 4.17,-0.83 4.16,-1.67 4.17,-0.83 4.17,-0.84 4.16,-1.66 4.17,-0.84 4.17,-0.83 4.16,-1.67 4.17,-0.83 4.17,-0.83 4.16,-1.67 4.17,-0.83 4.17,-1.67 4.16,-0.83 4.17,-0.84 4.17,-1.66 4.16,-0.84 4.17,-1.66 4.17,-0.84 4.16,-1.66 4.17,-0.84 4.17,-1.66 4.16,-1.67 3.34,-0.83 4.16,-1.67 4.17,-0.83 4.17,-1.67 4.16,-1.67 4.17,-0.83 4.17,-1.67 4.16,-1.66 4.17,-0.84 3.33,-1.66 4.17,-1.67 4.17,-0.83 4.16,-1.67 4.17,-1.67 4.17,-1.66 4.16,-0.84 3.34,-1.66 4.16,-1.67 4.17,-1.67 4.17,-1.66 4.16,-0.84 1.67,-0.83 2.5,-0.83 2.5,-0.84 1.67,-1.66 4.16,-0.84 4.17,-1.66 4.17,-1.67 3.33,-1.67 4.17,-1.66 4.16,-1.67 4.17,-1.67 3.33,-1.66 4.17,-1.67 4.17,-1.67 4.16,-1.66 4.17,-1.67 3.33,-1.67 4.17,-1.66 4.17,-1.67 3.33,-1.67 4.17,-1.66 4.16,-1.67 4.17,-1.67 3.33,-2.5 4.17,-1.66 4.17,-1.67 3.33,-1.67 4.17,-1.66 4.16,-1.67 3.34,-1.67 4.16,-2.5 4.17,-1.66 3.33,-1.67 4.17,-1.67 4.17,-1.66 3.33,-2.5 4.17,-1.67 4.16,-1.67 3.34,-2.5 4.16,-1.66 4.17,-1.67 3.33,-1.67 4.17,-2.5 3.33,-1.66 4.17,-1.67 4.17,-2.5 3.33,-1.67 4.17,-2.5 3.33,-1.66 4.17,-1.67 3.33,-2.5 4.17,-1.67 4.16,-2.5 3.34,-1.66 4.16,-2.5 3.34,-1.67 4.16,-1.67 3.34,-2.5 4.16,-1.66 3.34,-2.5 4.16,-1.67 3.34,-2.5 4.16,-2.5 3.34,-1.67 4.16,-2.5 3.34,-1.66 4.16,-2.5 3.34,-1.67 4.16,-2.5 3.34,-2.5 4.16,-1.67 3.34,-2.5 3.33,-1.66 4.17,-2.5 3.33,-2.5 4.17,-1.67 3.33,-2.5 4.17,-2.5 3.33,-1.67 3.33,-2.5 4.17,-2.5 3.33,-2.5 3.34,-1.66 4.16,-2.5 2.5,-1.67 2.5,-1.67 3.34,-1.66 2.5,-1.67 3.33,-2.5 4.17,-2.5 3.33,-2.5 3.33,-1.67 4.17,-2.5 3.33,-2.5 3.34,-2.5 3.33,-2.5 4.17,-2.5 3.33,-1.66 3.33,-2.5 4.17,-2.5 3.33,-2.5 3.34,-2.5 3.33,-2.5 4.17,-2.5 3.33,-2.5 3.33,-2.5 3.34,-2.5 4.16,-1.67 3.34,-2.5 3.33,-2.5 3.33,-2.5 4.17,-2.5 3.33,-2.5 3.34,-2.5 3.33,-2.5 3.33,-2.5 4.17,-2.5 3.33,-2.5 3.34,-2.5 3.33,-3.33 3.33,-2.5 3.34,-2.5 1.66,0"
                 style="fill:none;stroke:#009900;stroke-width:30;stroke-linecap:butt;stroke-linejoin:round;stroke-miterlimit:10;stroke-dasharray:5, 40;stroke-dashoffset:0;stroke-opacity:1"
                 id="path4315"
                 inkscape:connector-curvature="0" /><path
                 d="m 362.5,879.168 1.668,3.332 1.664,4.168 2.5,4.164 1.668,3.336 2.5,4.164 1.668,3.336 1.664,4.164 2.5,3.336 1.668,4.164 1.668,4.168 2.5,3.332 1.664,4.168 1.668,3.332 2.5,4.168 1.668,4.168 1.664,3.332 1.668,4.168 2.5,4.164 1.668,3.336 1.664,4.164 1.668,4.168 2.5,3.332 1.668,4.168 1.664,4.168 1.668,3.332 1.668,4.168 2.5,4.164 1.664,3.336 1.668,4.164 1.668,4.168 1.664,3.332 2.5,4.168 1.668,4.17 1.668,3.33 1.664,4.17 1.668,4.16 2.5,3.34 1.668,4.16 1.664,4.17 1.668,3.33 1.668,4.17 1.664,4.17 2.5,3.33 1.668,4.17 1.668,4.16 1.664,3.34 1.668,4.16 2.5,4.17 1.668,3.33 1.664,4.17 1.668,4.17 1.668,3.33 2.5,4.17 1.664,4.16 1.668,3.34 1.668,4.16 2.5,4.17 1.664,3.33 1.668,4.17 1.668,4.17 2.5,3.33 1.664,4.17 1.668,3.33 2.5,4.17 1.668,4.16 1.664,3.34 2.5,4.16 1.668,3.34 1.668,4.16 2.5,4.17 1.664,3.33 2.5,4.17 1.668,3.33 1.668,4.17 2.5,3.33 1.664,4.17 2.5,3.33 1.668,4.17 2.5,3.33 1.668,4.17 2.5,3.33 2.5,4.17 1.664,3.33 2.5,4.17 1.668,3.33 2.5,3.34 1.668,4.16 2.5,3.34 1.664,3.33 2.5,4.17 2.5,3.33 2.5,4.17 1.668,3.33 2.5,3.33 2.5,4.17 2.5,3.33 1.668,3.34 2.5,4.16 2.5,3.34 2.5,3.33 2.5,3.33 2.5,4.17 2.5,3.33 2.5,3.34 2.5,3.33 2.5,4.17 2.5,3.33 2.5,3.33 2.5,3.34 2.5,3.33 2.5,3.33 2.5,4.17 2.5,3.33 2.5,3.34 2.5,3.33 3.332,3.33 2.5,3.34 2.5,3.33 2.5,3.33 2.5,3.34 3.332,3.33 2.5,3.33 2.5,3.34 2.5,3.33 3.336,3.33 2.5,3.34 2.5,3.33 3.332,3.33 2.5,3.34 2.5,3.33 3.332,3.33 2.5,3.34 3.336,3.33 2.5,2.5 2.5,3.33 3.332,3.34 2.5,3.33 3.332,3.33 2.5,2.5 3.336,3.34 2.5,3.33 3.332,3.33 2.5,3.34 3.332,2.5 3.336,3.33 2.5,3.33 3.332,2.5 2.5,3.34 3.332,3.33 3.336,2.5 2.5,3.33 3.332,3.34 3.332,2.5 2.5,3.33 3.336,2.5 3.332,3.33 2.5,3.34 3.332,2.5 3.336,3.33 3.332,2.5 3.332,3.33 2.5,2.5 3.336,3.34 3.332,2.5 3.332,3.33 3.336,2.5 2.5,3.33 3.332,2.5 3.332,2.5 3.336,3.34 3.332,2.5 3.332,2.5 3.336,3.33 2.5,2.5 3.332,2.5 3.332,3.33 3.336,2.5 3.332,2.5 3.332,3.34 3.336,2.5 3.332,2.5 3.332,2.5 3.336,3.33 3.332,2.5 3.332,2.5 3.336,2.5 3.332,3.33 4.168,2.5 3.332,2.5 3.332,2.5 3.336,2.5 3.332,2.5 3.332,2.5 3.336,2.5 3.332,2.5 4.168,2.5 3.332,3.34 3.332,2.5 3.336,2.5 3.332,2.5 4.168,2.5 3.332,1.66 3.332,2.5 3.336,2.5 3.332,2.5 4.168,2.5 3.332,2.5 3.332,2.5 4.168,2.5 3.332,2.5 3.336,1.67 4.164,2.5 3.336,2.5 3.332,2.5 4.168,2.5 3.332,1.67 3.332,2.5 4.168,2.5 3.332,1.66 4.168,2.5 3.332,2.5 3.336,1.67 4.164,2.5 3.336,2.5 4.164,1.67 3.336,2.5 4.164,1.66 3.336,2.5 4.164,1.67 3.336,2.5 4.164,1.67 3.336,2.5 4.164,1.66 3.336,2.5 4.164,1.67 4.168,2.5 3.332,1.67 4.168,1.66 3.33,2.5 4.17,1.67 4.17,1.67 3.33,2.5 4.17,1.66 3.33,1.67 1.67,0.83 0.83,0 1.67,0.84 0.83,0.83 4.17,1.67 3.33,1.66 4.17,1.67 4.16,1.67 3.34,2.5 4.16,1.66 4.17,1.67 4.17,1.67 3.33,1.66 4.17,1.67 4.16,1.67 4.17,1.66 3.33,1.67 4.17,1.67 4.17,1.66 4.16,1.67 3.34,1.67 4.16,0.83 4.17,1.67 4.17,1.66 4.16,1.67 4.17,1.67 3.33,1.66 4.17,0.84 4.17,1.66 4.16,1.67 4.17,1.67 4.17,0.83 4.16,1.67 4.17,0.83 3.33,1.67 4.17,1.66 4.17,0.84 4.16,1.66 4.17,0.84 4.17,1.66 4.16,0.84 4.17,1.66 4.17,0.84 4.16,1.66 4.17,0.84 4.17,1.66 4.16,0.84 4.17,0.83 4.17,1.67 4.16,0.83 4.17,0.83 4.17,1.67 4.16,0.83 4.17,0.84 4.17,0.83"
                 style="fill:none;stroke:#009900;stroke-width:30;stroke-linecap:butt;stroke-linejoin:round;stroke-miterlimit:10;stroke-dasharray:5, 40;stroke-dashoffset:0;stroke-opacity:1"
                 id="path4317"
                 inkscape:connector-curvature="0" /><path
                 d="m 144.168,621.668 0,0.832 3.332,1.668 4.168,2.5 3.332,2.5 3.332,2.5 3.336,2.5 4.164,2.5 0.836,0.832 0.832,0.832 0.832,0.836 1.668,0.832 3.332,2.5 3.336,2.5 3.332,2.5 3.332,2.5 3.336,2.5 3.332,3.332 3.332,2.5 3.336,2.5 3.332,3.336 3.332,2.5 3.336,3.332 2.5,2.5 3.332,3.332 3.332,2.5 3.336,3.336 2.5,2.5 3.332,3.332 3.332,2.5 2.5,3.332 3.336,3.336 3.332,3.332 2.5,2.5 3.332,3.332 2.5,3.336 3.336,3.332 2.5,3.332 2.5,2.5 3.332,3.336 2.5,3.332 3.332,3.332 2.5,3.336 2.5,3.332 2.5,3.332 3.336,3.336 2.5,3.332 2.5,3.332 2.5,3.336 2.5,4.164 2.5,3.336 2.5,3.332 2.5,3.332 2.5,3.336 2.5,3.332 2.5,4.168 2.5,3.332 2.5,3.332 2.5,3.336 2.5,4.164 2.5,3.336 2.5,3.332 2.5,3.332 1.664,4.168 2.5,3.332 2.5,4.168 2.5,3.332 2.5,3.336 1.668,4.164 2.5,3.336 2.5,3.332 1.668,4.168 2.5,3.332 1.664,4.168 2.5,3.332 2.5,4.168 1.668,3.332 2.5,4.168 1.668,3.332 2.5,4.168 1.664,3.332 2.5,4.168 1.668,3.332 2.5,4.168"
                 style="fill:none;stroke:#009900;stroke-width:30;stroke-linecap:butt;stroke-linejoin:round;stroke-miterlimit:10;stroke-dasharray:5, 40;stroke-dashoffset:0;stroke-opacity:1"
                 id="path4319"
                 inkscape:connector-curvature="0" /><path
                 d="M 144.168,676.668 155,677.5 l 16.668,2.5 16.664,3.332 16.668,5 15.832,6.668 13.336,11.668 9.164,13.332 6.668,16.668 3.332,16.664 2.5,16.668 2.5,17.5 3.336,16.668 1.664,16.664 2.5,17.5 1.668,16.668 2.5,17.5 2.5,16.668 2.5,17.5 1.668,16.664 2.5,17.5 2.5,16.668 2.5,17.5 2.5,16.668 3.332,16.662 3.332,17.5 3.336,16.67 4.164,16.67 5,16.66 5,15.84 5,16.66 6.668,15.84 5.832,16.66 6.668,15.84 6.668,15.83 6.664,15.83 7.5,15 7.5,15.84 7.5,15 7.5,15.83 8.336,15 8.332,15 8.332,15 9.168,15 8.332,15 8.336,15 8.332,15 9.168,14.17 8.332,15 2.5,15 10,14.16 9.168,14.17 10,14.17 10,14.16 10,14.17 9.164,14.17 10,14.16 10,14.17 10.836,13.33 10.832,13.34 10.832,13.33 11.668,12.5 11.668,12.5 12.5,12.5 12.5,11.67 12.5,11.66 13.332,10.84 13.332,10.83 13.336,10.83 14.164,10 14.168,9.17 15,9.17 15,8.33 15,7.5 15.832,7.5 15.836,7.5 15.832,6.67 15.832,6.66 15.836,6.67 15.832,5.83 15.832,6.67 16.668,5.83 15.832,5.84 15.836,5.83 16.664,6.67 15.836,5.83 15.832,5.83 16.668,5.84 15.832,5.83 16.668,5.83 15.832,5.84 16.67,5 15.83,5 16.67,5 16.66,4.16 16.67,4.17 16.67,4.17 17.5,3.33 16.66,3.33 16.67,3.34 17.5,2.5 16.67,2.5 16.66,2.5 17.5,2.5 16.67,2.5 17.5,1.66 16.67,1.67 17.5,1.67 16.66,1.66 17.5,0.84 17.5,1.66 16.67,0 17.5,0.84 68.33,0 17.5,-0.84 17.5,-1.66 16.67,-0.84 17.5,-1.66 16.67,-1.67 17.5,-1.67 16.66,-1.66 17.5,-1.67 16.67,-2.5 17.5,-2.5 16.67,-2.5 17.5,-2.5 16.66,-2.5 16.67,-3.33 17.5,-2.5 16.67,-3.34 16.66,-2.5 17.5,-3.33 16.67,-3.33 16.67,-3.34 16.66,-4.16 17.5,-3.34 16.67,-4.16 16.67,-4.17 16.66,-4.17 16.67,-4.16 16.67,-5 15.83,-4.17 16.67,-5 16.66,-5 16.67,-5 15.83,-5.83 16.67,-5 15.83,-5.84 16.67,-6.66 15.83,-5.84 15.84,-5.83 15.83,-6.67 16.67,-6.66 15.83,-6.67 15.83,-6.67 15.84,-6.66 15,-6.67 15.83,-7.5 15,-8.33 15,-7.5 15.83,-8.34 15,-7.5 15,-7.5 15.84,-8.33 15,-8.33 15,-8.34 15,-8.33 15,-8.33 15,-9.17 14.16,-8.33 15,-9.17 15,-9.17 7.5,-4.16"
                 style="fill:none;stroke:#000000;stroke-width:20;stroke-linecap:butt;stroke-linejoin:round;stroke-miterlimit:10;stroke-dasharray:none;stroke-opacity:1"
                 id="path4321"
                 inkscape:connector-curvature="0" /><path
                 d="m 144.168,531.668 9.164,0.832 16.668,2.5 17.5,1.668 16.668,2.5 17.5,3.332 16.664,3.332 L 255,550 l 16.668,5 15.832,5.832 15.832,6.668 15.836,7.5 15,8.332 14.164,9.168 13.336,10.832 11.664,12.5 10,14.168 9.168,15 6.668,15.832 5,16.668 2.5,16.668 2.5,16.664 0.832,17.5 1.668,16.668 2.5,17.5 2.5,16.668 2.5,17.5 2.5,16.664 3.332,17.5 2.5,16.668 4.168,16.668 3.332,16.664 3.332,16.668 4.168,17.5 4.168,16.668 4.164,16.664 L 455,965 l 4.168,16.668 4.164,16.664 5,16.668 5,15.83 5,16.67 5.836,15.83 5.832,16.67 6.668,15.83 6.664,15.84 6.668,15.83 8.332,15 7.5,15 6.668,15.83 6.668,15.84 7.5,15.83 7.5,15.83 7.5,15 8.332,15 8.332,15 8.336,15 9.164,15 9.168,14.17 10,14.17 10,14.16 10.832,13.34 10.836,13.33 11.664,12.5 10.836,13.33 11.664,12.5 12.5,12.5 11.668,11.67 12.5,12.5 12.5,11.67 12.5,11.66 13.332,11.67 13.336,10.83 13.332,10 14.168,10.84 13.332,10 14.168,9.16 15,10 14.164,9.17 15,8.33 15,9.17 15,8.33 15,8.34 15,8.33 15,7.5 15.836,8.33 15,6.67 15.832,7.5 15.83,6.67 15.84,6.66 15.83,6.67 16.67,5.83 15.83,5 16.67,5.84 16.66,5 15.84,4.16 16.66,4.17 16.67,4.17 17.5,4.16 16.67,3.34 16.66,2.5 17.5,2.5 16.67,2.5 17.5,2.5 16.67,1.66 17.5,1.67 16.66,0.83 17.5,1.67 16.67,0.83 17.5,0 17.5,0.84 68.33,0 17.5,-0.84 16.67,-0.83 17.5,-1.67 17.5,-0.83 16.67,-1.67 17.5,-1.66 16.66,-1.67 17.5,-1.67 16.67,-2.5 17.5,-2.5 16.67,-1.66 17.5,-2.5 16.66,-3.34 16.67,-2.5 17.5,-2.5 16.67,-3.33 16.66,-3.33 17.5,-3.34 16.67,-4.16 16.67,-3.34 16.66,-4.16 16.67,-3.34 16.67,-4.16 16.66,-4.17 16.67,-4.17 16.67,-4.16 16.66,-5 16.67,-4.17 16.67,-5 16.66,-5 15.84,-5.83 16.66,-5 15.84,-5.84 16.66,-5.83 15.84,-5.83 15.83,-6.67 15.83,-6.67 15.84,-6.66 15.83,-6.67 15.83,-7.5 15.84,-7.5 15,-7.5 15.83,-7.5 15,-7.5 15,-8.33 15.83,-8.34 15,-7.5 15,-8.33 15,-8.33 15,-9.17 15,-8.33 14.17,-9.17 15,-8.33 14.17,-10 15,-9.17 14.16,-9.17 14.17,-9.16 14.17,-10 14.16,-10 12.5,-8.34"
                 style="fill:none;stroke:#000000;stroke-width:20;stroke-linecap:butt;stroke-linejoin:round;stroke-miterlimit:10;stroke-dasharray:none;stroke-opacity:1"
                 id="path4323"
                 inkscape:connector-curvature="0" /></g></g><path
             d="m 159.168,2320.83 2247.5,0 0,3034.17 -2247.5,0 0,-3034.17 z"
             style="fill:#ffffff;fill-opacity:1;fill-rule:evenodd;stroke:none"
             id="path4325"
             inkscape:connector-curvature="0" /><path
             d="m 159.168,2320.83 0,3034.17 2247.502,0 0,-3034.17 -2247.502,0"
             style="fill:none;stroke:#ffffff;stroke-width:5;stroke-linecap:butt;stroke-linejoin:round;stroke-miterlimit:10;stroke-dasharray:none;stroke-opacity:1"
             id="path4327"
             inkscape:connector-curvature="0" /><path
             d="m 521.668,2320.83 0,3034.17"
             style="fill:none;stroke:#000000;stroke-width:3.33332992;stroke-linecap:butt;stroke-linejoin:round;stroke-miterlimit:10;stroke-dasharray:5, 40;stroke-dashoffset:0;stroke-opacity:1"
             id="path4329"
             inkscape:connector-curvature="0" /><path
             d="m 521.668,5355 0,0"
             style="fill:none;stroke:#000000;stroke-width:3.33332992;stroke-linecap:butt;stroke-linejoin:round;stroke-miterlimit:10;stroke-dasharray:5, 40;stroke-dashoffset:0;stroke-opacity:1"
             id="path4331"
             inkscape:connector-curvature="0" /><path
             d="m 970.832,2320.83 0,3034.17"
             style="fill:none;stroke:#000000;stroke-width:3.33332992;stroke-linecap:butt;stroke-linejoin:round;stroke-miterlimit:10;stroke-dasharray:5, 40;stroke-dashoffset:0;stroke-opacity:1"
             id="path4333"
             inkscape:connector-curvature="0" /><path
             d="m 970.832,5355 0,0"
             style="fill:none;stroke:#000000;stroke-width:3.33332992;stroke-linecap:butt;stroke-linejoin:round;stroke-miterlimit:10;stroke-dasharray:5, 40;stroke-dashoffset:0;stroke-opacity:1"
             id="path4335"
             inkscape:connector-curvature="0" /><path
             d="m 1420.83,2320.83 0,3034.17"
             style="fill:none;stroke:#000000;stroke-width:3.33332992;stroke-linecap:butt;stroke-linejoin:round;stroke-miterlimit:10;stroke-dasharray:5, 40;stroke-dashoffset:0;stroke-opacity:1"
             id="path4337"
             inkscape:connector-curvature="0" /><path
             d="m 1420.83,5355 0,0"
             style="fill:none;stroke:#000000;stroke-width:3.33332992;stroke-linecap:butt;stroke-linejoin:round;stroke-miterlimit:10;stroke-dasharray:5, 40;stroke-dashoffset:0;stroke-opacity:1"
             id="path4339"
             inkscape:connector-curvature="0" /><path
             d="M 1870,2320.83 1870,5355"
             style="fill:none;stroke:#000000;stroke-width:3.33332992;stroke-linecap:butt;stroke-linejoin:round;stroke-miterlimit:10;stroke-dasharray:5, 40;stroke-dashoffset:0;stroke-opacity:1"
             id="path4341"
             inkscape:connector-curvature="0" /><path
             d="m 1870,5355 0,0"
             style="fill:none;stroke:#000000;stroke-width:3.33332992;stroke-linecap:butt;stroke-linejoin:round;stroke-miterlimit:10;stroke-dasharray:5, 40;stroke-dashoffset:0;stroke-opacity:1"
             id="path4343"
             inkscape:connector-curvature="0" /><path
             d="M 2320,2320.83 2320,5355"
             style="fill:none;stroke:#000000;stroke-width:3.33332992;stroke-linecap:butt;stroke-linejoin:round;stroke-miterlimit:10;stroke-dasharray:5, 40;stroke-dashoffset:0;stroke-opacity:1"
             id="path4345"
             inkscape:connector-curvature="0" /><path
             d="m 2320,5355 0,0"
             style="fill:none;stroke:#000000;stroke-width:3.33332992;stroke-linecap:butt;stroke-linejoin:round;stroke-miterlimit:10;stroke-dasharray:5, 40;stroke-dashoffset:0;stroke-opacity:1"
             id="path4347"
             inkscape:connector-curvature="0" /><path
             d="m 159.168,2758.33 2247.502,0"
             style="fill:none;stroke:#000000;stroke-width:3.33332992;stroke-linecap:butt;stroke-linejoin:round;stroke-miterlimit:10;stroke-dasharray:5, 40;stroke-dashoffset:0;stroke-opacity:1"
             id="path4349"
             inkscape:connector-curvature="0" /><path
             d="m 2406.67,2758.33 0,0"
             style="fill:none;stroke:#000000;stroke-width:3.33332992;stroke-linecap:butt;stroke-linejoin:round;stroke-miterlimit:10;stroke-dasharray:5, 40;stroke-dashoffset:0;stroke-opacity:1"
             id="path4351"
             inkscape:connector-curvature="0" /><path
             d="m 159.168,3207.5 2247.502,0"
             style="fill:none;stroke:#000000;stroke-width:3.33332992;stroke-linecap:butt;stroke-linejoin:round;stroke-miterlimit:10;stroke-dasharray:5, 40;stroke-dashoffset:0;stroke-opacity:1"
             id="path4353"
             inkscape:connector-curvature="0" /><path
             d="m 2406.67,3207.5 0,0"
             style="fill:none;stroke:#000000;stroke-width:3.33332992;stroke-linecap:butt;stroke-linejoin:round;stroke-miterlimit:10;stroke-dasharray:5, 40;stroke-dashoffset:0;stroke-opacity:1"
             id="path4355"
             inkscape:connector-curvature="0" /><path
             d="m 159.168,3657.5 2247.502,0"
             style="fill:none;stroke:#000000;stroke-width:3.33332992;stroke-linecap:butt;stroke-linejoin:round;stroke-miterlimit:10;stroke-dasharray:5, 40;stroke-dashoffset:0;stroke-opacity:1"
             id="path4357"
             inkscape:connector-curvature="0" /><path
             d="m 2406.67,3657.5 0,0"
             style="fill:none;stroke:#000000;stroke-width:3.33332992;stroke-linecap:butt;stroke-linejoin:round;stroke-miterlimit:10;stroke-dasharray:5, 40;stroke-dashoffset:0;stroke-opacity:1"
             id="path4359"
             inkscape:connector-curvature="0" /><path
             d="m 159.168,4106.67 2247.502,0"
             style="fill:none;stroke:#000000;stroke-width:3.33332992;stroke-linecap:butt;stroke-linejoin:round;stroke-miterlimit:10;stroke-dasharray:5, 40;stroke-dashoffset:0;stroke-opacity:1"
             id="path4361"
             inkscape:connector-curvature="0" /><path
             d="m 2406.67,4106.67 0,0"
             style="fill:none;stroke:#000000;stroke-width:3.33332992;stroke-linecap:butt;stroke-linejoin:round;stroke-miterlimit:10;stroke-dasharray:5, 40;stroke-dashoffset:0;stroke-opacity:1"
             id="path4363"
             inkscape:connector-curvature="0" /><path
             d="m 159.168,4556.67 2247.502,0"
             style="fill:none;stroke:#000000;stroke-width:3.33332992;stroke-linecap:butt;stroke-linejoin:round;stroke-miterlimit:10;stroke-dasharray:5, 40;stroke-dashoffset:0;stroke-opacity:1"
             id="path4365"
             inkscape:connector-curvature="0" /><path
             d="m 2406.67,4556.67 0,0"
             style="fill:none;stroke:#000000;stroke-width:3.33332992;stroke-linecap:butt;stroke-linejoin:round;stroke-miterlimit:10;stroke-dasharray:5, 40;stroke-dashoffset:0;stroke-opacity:1"
             id="path4367"
             inkscape:connector-curvature="0" /><path
             d="m 159.168,5005.83 2247.502,0"
             style="fill:none;stroke:#000000;stroke-width:3.33332992;stroke-linecap:butt;stroke-linejoin:round;stroke-miterlimit:10;stroke-dasharray:5, 40;stroke-dashoffset:0;stroke-opacity:1"
             id="path4369"
             inkscape:connector-curvature="0" /><path
             d="m 2406.67,5005.83 0,0"
             style="fill:none;stroke:#000000;stroke-width:3.33332992;stroke-linecap:butt;stroke-linejoin:round;stroke-miterlimit:10;stroke-dasharray:5, 40;stroke-dashoffset:0;stroke-opacity:1"
             id="path4371"
             inkscape:connector-curvature="0" /><path
             d="m 159.168,2320.83 2247.502,0"
             style="fill:none;stroke:#000000;stroke-width:5;stroke-linecap:butt;stroke-linejoin:round;stroke-miterlimit:10;stroke-dasharray:none;stroke-opacity:1"
             id="path4373"
             inkscape:connector-curvature="0" /><path
             d="m 159.168,2320.83 0,3034.17"
             style="fill:none;stroke:#000000;stroke-width:5;stroke-linecap:butt;stroke-linejoin:round;stroke-miterlimit:10;stroke-dasharray:none;stroke-opacity:1"
             id="path4375"
             inkscape:connector-curvature="0" /><path
             d="m 521.668,2320.83 0,30.84"
             style="fill:none;stroke:#000000;stroke-width:5;stroke-linecap:butt;stroke-linejoin:round;stroke-miterlimit:10;stroke-dasharray:none;stroke-opacity:1"
             id="path4377"
             inkscape:connector-curvature="0" /><path
             d="m 970.832,2320.83 0,30.84"
             style="fill:none;stroke:#000000;stroke-width:5;stroke-linecap:butt;stroke-linejoin:round;stroke-miterlimit:10;stroke-dasharray:none;stroke-opacity:1"
             id="path4379"
             inkscape:connector-curvature="0" /><path
             d="m 1420.83,2320.83 0,30.84"
             style="fill:none;stroke:#000000;stroke-width:5;stroke-linecap:butt;stroke-linejoin:round;stroke-miterlimit:10;stroke-dasharray:none;stroke-opacity:1"
             id="path4381"
             inkscape:connector-curvature="0" /><path
             d="m 1870,2320.83 0,30.84"
             style="fill:none;stroke:#000000;stroke-width:5;stroke-linecap:butt;stroke-linejoin:round;stroke-miterlimit:10;stroke-dasharray:none;stroke-opacity:1"
             id="path4383"
             inkscape:connector-curvature="0" /><path
             d="m 2320,2320.83 0,30.84"
             style="fill:none;stroke:#000000;stroke-width:5;stroke-linecap:butt;stroke-linejoin:round;stroke-miterlimit:10;stroke-dasharray:none;stroke-opacity:1"
             id="path4385"
             inkscape:connector-curvature="0" /><path
             d="m 159.168,2758.33 30,0"
             style="fill:none;stroke:#000000;stroke-width:5;stroke-linecap:butt;stroke-linejoin:round;stroke-miterlimit:10;stroke-dasharray:none;stroke-opacity:1"
             id="path4387"
             inkscape:connector-curvature="0" /><path
             d="m 159.168,3207.5 30,0"
             style="fill:none;stroke:#000000;stroke-width:5;stroke-linecap:butt;stroke-linejoin:round;stroke-miterlimit:10;stroke-dasharray:none;stroke-opacity:1"
             id="path4389"
             inkscape:connector-curvature="0" /><path
             d="m 159.168,3657.5 30,0"
             style="fill:none;stroke:#000000;stroke-width:5;stroke-linecap:butt;stroke-linejoin:round;stroke-miterlimit:10;stroke-dasharray:none;stroke-opacity:1"
             id="path4391"
             inkscape:connector-curvature="0" /><path
             d="m 159.168,4106.67 30,0"
             style="fill:none;stroke:#000000;stroke-width:5;stroke-linecap:butt;stroke-linejoin:round;stroke-miterlimit:10;stroke-dasharray:none;stroke-opacity:1"
             id="path4393"
             inkscape:connector-curvature="0" /><path
             d="m 159.168,4556.67 30,0"
             style="fill:none;stroke:#000000;stroke-width:5;stroke-linecap:butt;stroke-linejoin:round;stroke-miterlimit:10;stroke-dasharray:none;stroke-opacity:1"
             id="path4395"
             inkscape:connector-curvature="0" /><path
             d="m 159.168,5005.83 30,0"
             style="fill:none;stroke:#000000;stroke-width:5;stroke-linecap:butt;stroke-linejoin:round;stroke-miterlimit:10;stroke-dasharray:none;stroke-opacity:1"
             id="path4397"
             inkscape:connector-curvature="0" /><g
             id="g4399"><g
               id="g4401"
               clip-path="url(#clipPath4403)"><path
                 d="m 1734.17,3750 1.66,5 1.67,5.83 1.67,5 2.5,5 1.66,5.84 1.67,5 1.67,5 1.66,5.83 1.67,5 1.67,5 1.66,5.83 1.67,5 1.67,5.84 1.66,5 1.67,5 1.67,5.83 0.83,5 1.67,5 1.66,5.83 1.67,5 1.67,5.84 1.66,5 1.67,5 1.67,5.83 1.66,5 1.67,5.83 1.67,5 1.66,5 1.67,5.84 1.67,5 0.83,5 1.67,5.83 1.66,5 1.67,5.83 1.67,5 1.66,5 1.67,5.84 1.67,5 0.83,5.83 1.67,5 1.66,5.83 1.67,5 1.67,5 1.66,5.84 1.67,5 0.83,5.83 1.67,5 1.67,5 1.66,5.83 1.67,5 0.83,5.84 1.67,5 1.67,5.83 1.66,5 1.67,5 0.83,5.83 1.67,5 1.67,5.84 1.66,5 0.84,5.83 1.66,5 1.67,5 1.67,5.83 0.83,5 1.67,5.84 1.66,5 1.67,5.83 0.83,5 1.67,5 1.67,5.83 0.83,5 1.67,5.84 1.66,5 1.67,5.83 0.83,5 1.67,5.83 1.67,5 0.83,5 1.67,5.84 1.66,5 0.84,5.83 1.66,5 1.67,5.83 0.83,5 1.67,5.84 1.67,5 0.83,5.83 1.67,5 1.66,5.83 0.84,5 1.66,5 1.67,5.84 0.83,5 1.67,5.83 1.67,5 0.83,5.83 1.67,5 0.83,5.84 1.67,5 1.66,5.83 0.84,5 1.66,5.83 1.67,5 0.83,5.84 1.67,5 0.83,5.83 1.67,5 1.67,5.83 0.83,5 1.67,5.84 0.83,5 1.67,5.83 1.66,5 0.84,5.83 1.66,5 0.84,5.84 1.66,5 1.67,5.83 0.83,5 1.67,5.83 0.83,5 1.67,5.84 1.67,5 0.83,5.83 1.67,5 0.83,5.83 1.67,5 0.83,5.84 1.67,5 1.66,5.83 0.84,5 1.66,5.83 0.84,5 1.66,5.84 0.84,5 1.66,5.83 1.67,5 0.83,5.83 1.67,5 0.83,5.84 1.67,5 0.83,5.83 1.67,5 0.83,5.83 1.67,5 1.67,5.84 0.83,5 1.67,5.83 0.83,5 1.67,5.83 0.83,5 1.67,5.84 0.83,5 1.67,5.83 1.66,5 0.84,5.83 1.66,5 0.84,5.84 1.66,5 0.84,5.83 1.66,5 0.84,5.83 1.66,5 1.67,5.84 0.83,5 1.67,5.83 0.83,5 1.67,5.83 0.83,5 1.67,5.84 0.83,5 1.67,5.83 1.67,5 0.83,5 1.67,5.83 0.83,5 1.67,5.84 0.83,5 1.67,5.83 0.83,5 1.67,5.83 1.66,5 0.84,5.84 1.66,5 0.84,5.83 1.66,5 0.84,5.83 1.66,5 1.67,5.84 0.83,5 1.67,5.83 0.83,5 1.67,5.83 0.83,5 1.67,5.84 1.67,5 0.83,5 1.67,5.83 0.83,5 1.67,5.83 1.66,5 0.84,5.84 1.66,5 0.84,5.83 1.66,5 1.67,5.83 0.83,5 1.67,5.84 0.83,5 1.67,5.83 1.67,5 0.83,5.83 1.67,5 1.66,5.84 0.84,5 1.66,5 0.84,5.83 1.66,5 1.67,5.83 0.83,5 1.67,5.84 1.67,5 0.83,5.83 1.67,5 1.66,5.83 0.84,5 1.66,5.84 1.67,5 0.83,5.83 1.67,5 1.67,5 0.83,5.83 1.67,5 1.66,5.84 0.84,5 1.66,5.83 1.67,5 0.83,5.83 1.67,5 1.67,5.84 0.83,5 1.67,5 1.66,5.83 0.84,5 1.66,5.83 1.67,5 1.67,5.84 0.83,5 1.67,5.83 1.66,5 0.84,5 1.66,5.83 1.67,5 1.67,5.84 0.83,5 1.67,5.83 1.66,5 1.67,5 0.83,5.83 1.67,5 1.67,5.84 1.66,5 0.84,5.83 1.66,5 1.67,5.83 1.67,5 0.83,5 1.67,5.84 1.66,5 1.67,5.83 1.67,5 0.83,5 1.67,5.83 1.66,5 1.67,5.84 1.67,5 0.83,5.83 1.67,5 1.66,5 1.67,5.83 1.67,5 1.66,5.84 0.84,5 1.66,5 1.67,5.83 1.67,5 1.66,5.83 1.67,5 1.67,5 1.66,5.84 0.84,5 1.66,5.83 1.67,5 1.67,5 1.66,5.83 1.67,5 1.67,5 1.66,5.84 0.84,3.33"
                 style="fill:none;stroke:#0000ff;stroke-width:20;stroke-linecap:butt;stroke-linejoin:round;stroke-miterlimit:10;stroke-dasharray:none;stroke-opacity:1"
                 id="path4407"
                 inkscape:connector-curvature="0" /><path
                 d="m 930.832,2363.33 3.336,3.34 4.164,4.16 3.336,3.34 4.164,4.16 3.336,3.34 4.164,3.33 3.336,4.17 4.164,3.33 3.336,4.17 4.164,3.33 3.336,4.17 4.164,3.33 3.336,4.17 4.164,3.33 3.336,4.17 4.164,3.33 3.336,4.17 3.332,3.33 4.17,4.17 3.33,3.33 4.17,4.17 3.33,4.16 3.33,3.34 4.17,4.16 3.33,3.34 3.34,4.16 4.16,4.17 3.34,3.33 3.33,4.17 3.33,4.17 4.17,3.33 3.33,4.17 3.34,4.16 3.33,3.34 4.17,4.16 3.33,4.17 3.33,4.17 3.34,3.33 4.16,4.17 3.34,4.16 3.33,4.17 3.33,3.33 3.34,4.17 3.33,4.17 3.33,4.16 4.17,3.34 3.33,4.16 3.34,4.17 3.33,4.17 3.33,4.16 3.34,4.17 3.33,3.33 3.33,4.17 3.34,4.17 3.33,4.16 3.33,4.17 3.34,4.17 3.33,4.16 3.33,4.17 3.34,4.17 3.33,4.16 3.33,4.17 3.34,4.17 3.33,4.16 3.33,4.17 3.34,4.17 3.33,4.16 3.33,4.17 3.34,4.17 3.33,4.16 3.33,4.17 3.34,4.17 2.5,4.16 3.33,4.17 3.33,4.17 3.34,4.16 3.33,4.17 3.33,4.17 2.5,4.16 3.34,4.17 3.33,4.17 3.33,4.16 3.34,4.17 2.5,4.17 3.33,5 3.33,4.16 2.5,4.17 3.34,4.17 3.33,4.16 3.33,4.17 2.5,4.17 3.34,5 3.33,4.16 2.5,4.17 3.33,4.17 3.34,4.16 2.5,4.17 3.33,5 2.5,4.17 3.33,4.16 3.34,4.17 2.5,5 3.33,4.17 2.5,4.16 3.33,4.17 3.34,5 2.5,4.17 3.33,4.16 2.5,4.17 3.33,5 2.5,4.17 3.34,4.16 2.5,5 3.33,4.17 2.5,4.17 3.33,4.16 2.5,5 2.5,4.17 3.34,5 2.5,4.17 3.33,4.16 2.5,5 3.33,4.17 2.5,4.17 2.5,5 3.34,4.16 2.5,5 2.5,4.17 3.33,4.17 2.5,5 2.5,4.16 3.33,5 2.5,4.17 2.5,5 3.34,4.17 2.5,4.16 2.5,5 2.5,4.17 3.33,5 2.5,4.17 2.5,5 2.5,4.16 3.33,5 2.5,5 2.5,4.17 2.5,5 2.5,4.17 3.34,5 2.5,4.16 2.5,5 2.5,4.17 2.5,5 2.5,5 2.5,4.17 2.5,5 2.5,4.16 2.5,5 3.33,5 2.5,4.17 2.5,5 2.5,5 2.5,4.17 2.5,5 2.5,5 2.5,5 2.5,4.16 2.5,5 2.5,5 2.5,5 2.5,5 2.5,4.17 2.5,5 2.5,5 2.5,5 2.5,5 2.5,5 2.5,5 2.5,4.17 2.5,5 2.5,5 2.5,5 2.5,5 2.5,5 2.5,5 2.5,5 2.5,5 1.67,5 2.5,5 2.5,5 2.5,5 2.5,5 2.5,5 2.5,5 2.5,5 2.5,5 2.5,5 2.5,5 2.5,5 1.66,5.83 2.5,5 2.5,5 2.5,5 2.5,5 2.5,5 1.67,5 2.5,5 2.5,5.83 2.5,5 2.5,5 1.67,5 2.5,5 2.5,5 2.5,5 1.66,5.84 2.5,5 2.5,5 2.5,5 1.67,5 2.5,5 2.5,5.83 1.67,5 2.5,5 2.5,5 1.66,5 2.5,5.83 1.67,5 2.5,5 2.5,5 1.67,5 2.5,5 1.66,5.84 2.5,5 1.67,5 2.5,5 1.67,5.83 2.5,5 1.66,5 2.5,5 1.67,5 2.5,5.83 1.67,5 2.5,5 1.66,5 2.5,5.84 1.67,5 1.67,5 2.5,5 1.66,5.83 2.5,5 1.67,5 1.67,5 2.5,5.83 1.66,5 1.67,5 2.5,5 1.67,5.84 1.66,5 2.5,5 1.67,5 1.67,5.83 1.66,5 2.5,5 1.67,5.83 1.67,5 1.66,5 2.5,5 1.67,5.84 1.67,5 1.66,5 2.5,5.83 1.67,5 1.67,5 1.66,5 1.67,5.83 2.5,5 1.67,5 1.66,5.84 1.67,5 1.67,5 1.66,5.83 2.5,5 1.67,5 1.67,5.83 1.66,5 1.67,5 1.67,5.84 1.66,5 1.67,5 2.5,5.83 1.67,5 1.66,5 1.67,5.83 1.67,5 1.66,5 1.67,5.84 1.67,5 1.66,5 1.67,5.83 1.67,5"
                 style="fill:none;stroke:#0000ff;stroke-width:20;stroke-linecap:butt;stroke-linejoin:round;stroke-miterlimit:10;stroke-dasharray:none;stroke-opacity:1"
                 id="path4409"
                 inkscape:connector-curvature="0" /><path
                 d="m 884.168,2320 4.164,4.17 4.168,3.33 3.332,3.33 4.168,3.34 3.332,4.16 4.168,3.34 4.168,3.33 3.332,4.17 4.168,3.33 4.164,3.33 3.336,4.17 4.164,3.33"
                 style="fill:none;stroke:#0000ff;stroke-width:20;stroke-linecap:butt;stroke-linejoin:round;stroke-miterlimit:10;stroke-dasharray:none;stroke-opacity:1"
                 id="path4411"
                 inkscape:connector-curvature="0" /><path
                 d="m 1744.17,3755 1.66,5.83 1.67,5 2.5,5 1.67,5.84 1.66,5 1.67,5 2.5,5.83 1.67,5 1.66,5 1.67,5.83 1.67,5 2.5,5.84 1.66,5 1.67,5 1.67,5.83 2.5,5 1.66,5 1.67,5.83 1.67,5 1.66,5.84 1.67,5 2.5,5 1.67,5.83 1.66,5 1.67,5 1.67,5.83 1.66,5 2.5,5.84 1.67,5 1.67,5 1.66,5.83 1.67,5 1.67,5.83 1.66,5 1.67,5 2.5,5.84 1.67,5 1.66,5.83 1.67,5 1.67,5 1.66,5.83 1.67,5 1.67,5.84 1.66,5 1.67,5.83 2.5,5 1.67,5 1.66,5.83 1.67,5 1.67,5.84 1.66,5 1.67,5 1.67,5.83 1.66,5 1.67,5.83 1.67,5 1.66,5.84 1.67,5 1.67,5 1.66,5.83 1.67,5 1.67,5.83 1.66,5 1.67,5.84 1.67,5 1.66,5 2.5,5.83 1.67,5 1.67,5.83 1.66,5 1.67,5.84 1.67,5 1.66,5 1.67,5.83 1.67,5 1.66,5.83 1.67,5 1.67,5.84 1.66,5 1.67,5.83 1.67,5 1.66,5 0.84,5.83 1.66,5 1.67,5.84 1.67,5 1.66,5.83 1.67,5 1.67,5.83 1.66,5 1.67,5 1.67,5.84 1.66,5 1.67,5.83 1.67,5 1.66,5.83 1.67,5 1.67,5.84 1.66,5 1.67,5.83 1.67,5 1.66,5 1.67,5.83 1.67,5 1.66,5.84 1.67,5 1.67,5.83 0.83,5 1.67,5.83 1.66,5 1.67,5.84 1.67,5 1.66,5 1.67,5.83 1.67,5 1.66,5.83 1.67,5 1.67,5.84 1.66,5 1.67,5.83 1.67,5 1.66,5.83 1.67,5 0.83,5 1.67,5.84 1.67,5 1.66,5.83 1.67,5 1.67,5.83 1.66,5 1.67,5.84 1.67,5 1.66,5.83 1.67,5 1.67,5 0.83,5 1.67,5 1.66,5.83 1.67,5 1.67,5.84 0.83,5 1.67,5 1.66,5.83 1.67,5 1.67,5.83 1.66,5 1.67,5.84 1.67,5 1.66,5.83 1.67,5 1.67,5.83 1.66,5 1.67,5.84 1.67,5 0.83,5 1.67,5.83 1.66,5 1.67,5.83 1.67,5 1.66,5.84 1.67,5 1.67,5.83 1.66,5 1.67,5.83 1.67,5 1.66,5.84 1.67,5 1.67,5 0.83,5.83 1.67,5 1.66,5.83 1.67,5 1.67,5.84 1.66,5 1.67,5.83 1.67,5 1.66,5.83 1.67,5 1.67,5.84 1.66,5 1.67,5 0.83,5.83 1.67,5 1.67,5.83 1.66,5 1.67,5.84 1.67,5 1.66,5.83 1.67,5 1.67,5.83 1.66,5 1.67,5.84 1.67,5 1.66,5 1.67,5.83 0.83,5 1.67,5.83 1.67,5 1.66,5.84 1.67,5 1.67,5.83 1.66,5 1.67,5.83 1.67,5 1.66,5.84 1.67,5 1.67,5 1.66,5.83 1.67,5 0.83,5.83 1.67,5 1.67,5.84 1.66,5 1.67,5.83 1.67,5 1.66,5.83 1.67,5 1.67,5.84 1.66,5 1.67,5 1.67,5.83 1.66,5 0.84,5.83 1.66,5 1.67,5.84 1.67,5 1.66,5.83 1.67,5 1.67,5.83 1.66,5 1.67,5.84 1.67,5 1.66,5 1.67,5.83 1.67,5 1.66,5.83 0.84,5 1.66,5.84 1.67,5 1.67,5.83 1.66,5 1.67,5.83 1.67,5 1.66,5.84 1.67,5 1.67,5 1.66,5.83 1.67,5 1.67,5.83 0.83,5 1.67,5.84 1.66,5 1.67,5.83 1.67,5 1.66,5.83 1.67,5 1.67,5.84 1.66,5 1.67,5 1.67,5.83 1.66,5 1.67,5.83 1.67,5 0.83,5.84 1.67,5 1.66,5.83 1.67,5 1.67,5.83 1.66,5 1.67,5.84 1.67,5 1.66,5 1.67,5.83 1.67,5 1.66,5.83 1.67,5 1.67,5.84 0.83,5 1.67,5.83 1.66,5 1.67,5.83 1.67,5 1.66,5.84 1.67,5 1.67,5 1.66,5.83 1.67,5 1.67,5.83 1.66,5 1.67,5.84 0.83,5 1.67,5.83 1.67,5 1.66,5.83 1.67,4.17 0.83,4.17 1.67,4.16 0.83,4.17 1.67,5"
                 style="fill:none;stroke:#ff0000;stroke-width:20;stroke-linecap:butt;stroke-linejoin:round;stroke-miterlimit:10;stroke-dasharray:60;stroke-dashoffset:0;stroke-opacity:1"
                 id="path4413"
                 inkscape:connector-curvature="0" /><path
                 d="m 885,2330.83 4.168,4.17 4.164,3.33 4.168,4.17 4.168,3.33 3.332,4.17 4.168,4.17 4.164,3.33 4.168,4.17 4.168,4.16 4.164,3.34 4.168,4.16 3.332,4.17 4.168,3.33 4.168,4.17 4.164,4.17 4.168,4.16 3.332,3.34 4.168,4.16 4.168,4.17 4.164,4.17 3.336,4.16 4.164,3.34 4.168,4.16 4.168,4.17 3.332,4.17 4.168,4.16 4.164,4.17 3.336,3.33 4.162,4.17 3.34,4.17 4.16,4.16 4.17,4.17 3.33,4.17 4.17,4.16 3.33,4.17 4.17,4.17 4.17,4.16 3.33,4.17 4.17,4.17 3.33,4.16 4.17,4.17 3.33,4.17 4.17,4.16 3.33,4.17 4.17,4.17 3.33,4.16 3.33,4.17 4.17,4.17 3.33,4.16 4.17,5 3.33,4.17 3.34,4.17 4.16,4.16 3.34,4.17 4.16,4.17 3.34,4.16 3.33,5 4.17,4.17 3.33,4.17 3.33,4.16 3.34,4.17 4.16,5 3.34,4.17 3.33,4.16 3.33,4.17 4.17,4.17 3.33,5 3.34,4.16 3.33,4.17 3.33,5 4.17,4.17 3.33,4.16 3.34,4.17 3.33,5 3.33,4.17 3.34,4.16 3.33,5 4.17,4.17 3.33,5 3.33,4.17 3.34,4.16 3.33,5 3.33,4.17 3.34,4.17 3.33,5 3.33,4.16 3.34,5 3.33,4.17 3.33,5 3.34,4.17 3.33,5 3.33,4.16 3.34,4.17 3.33,5 3.33,4.17 2.5,5 3.34,4.16 3.33,5 3.33,4.17 3.34,5 3.33,5 3.33,4.17 2.5,5 3.34,4.16 3.33,5 3.33,4.17 3.34,5 2.5,4.17 3.33,5 3.33,5 3.34,4.16 2.5,5 3.33,5 3.33,4.17 3.34,5 2.5,4.17 3.33,5 3.33,5 2.5,4.16 3.34,5 3.33,5 2.5,4.17 3.33,5 3.34,5 2.5,4.17 3.33,5 2.5,5 3.33,5 2.5,4.16 3.34,5 3.33,5 2.5,5 3.33,4.17 2.5,5 3.34,5 2.5,5 3.33,4.17 2.5,5 3.33,5 2.5,5 2.5,4.16 3.34,5 2.5,5 3.33,5 2.5,5 3.33,5 2.5,4.17 2.5,5 3.34,5 2.5,5 2.5,5 3.33,5 2.5,4.17 2.5,5 3.33,5 2.5,5 2.5,5 3.34,5 2.5,5 2.5,5 2.5,4.16 3.33,5 2.5,5 2.5,5 2.5,5 3.33,5 2.5,5 2.5,5 2.5,5 2.5,5 3.34,5 2.5,5 2.5,5 2.5,5 2.5,5 2.5,5 2.5,5 2.5,5 3.33,5 2.5,5 2.5,5 2.5,5 2.5,5 2.5,5 2.5,5 2.5,5 2.5,5 2.5,5 2.5,5 2.5,5 2.5,5 2.5,5 2.5,5 2.5,5 2.5,5 2.5,5 2.5,5 2.5,5 2.5,5 2.5,5 2.5,5 1.67,5 2.5,5.84 2.5,5 2.5,5 2.5,5 2.5,5 2.5,5 2.5,5 1.66,5 2.5,5 2.5,5.83 2.5,5 2.5,5 2.5,5 1.67,5 2.5,5 2.5,5 2.5,5 1.67,5.83 2.5,5 2.5,5 2.5,5 1.66,5 2.5,5 2.5,5.84 2.5,5 1.67,5 2.5,5 2.5,5 1.67,5 2.5,5.83 2.5,5 1.66,5 2.5,5 2.5,5 1.67,5.83 2.5,5 2.5,5 1.67,5 2.5,5.84 1.66,5 2.5,5 2.5,5 1.67,5 2.5,5.83 1.67,5 2.5,5 2.5,5 1.66,5.83 2.5,5 1.67,5 2.5,5 1.67,5.84 2.5,5 1.66,5 2.5,5 1.67,5.83 2.5,5 1.67,5 2.5,5 1.66,5.83 2.5,5 1.67,5 2.5,5 1.67,5.84 1.66,5 2.5,5 1.67,5.83 2.5,5 1.67,5 2.5,5.83 1.66,5 1.67,5 2.5,5 1.67,5.84 2.5,5 1.66,5 1.67,5.83 2.5,5 1.67,5 1.66,5.83 2.5,5 1.67,5 2.5,5.84 1.67,5 1.66,5 2.5,5.83 1.67,5 1.67,5 1.66,5 2.5,5.83 1.67,5 1.67,5.84 2.5,5 1.66,5 1.67,5.83 2.5,5 1.67,5"
                 style="fill:none;stroke:#ff0000;stroke-width:20;stroke-linecap:butt;stroke-linejoin:round;stroke-miterlimit:10;stroke-dasharray:60;stroke-dashoffset:0;stroke-opacity:1"
                 id="path4415"
                 inkscape:connector-curvature="0" /><path
                 d="m 873.332,2320 3.336,3.33 4.164,3.34 4.168,4.16"
                 style="fill:none;stroke:#ff0000;stroke-width:20;stroke-linecap:butt;stroke-linejoin:round;stroke-miterlimit:10;stroke-dasharray:60;stroke-dashoffset:0;stroke-opacity:1"
                 id="path4417-5"
                 inkscape:connector-curvature="0" /><path
                 d="m 1785,3740.83 1.67,5.84 0.83,5 1.67,5.83 1.66,5 0.84,5.83 1.66,5 0.84,5.84 1.66,5 0.84,5.83 1.66,5.83 0.84,5 1.66,5.84 0.84,5 1.66,5.83 0.84,5.83 1.66,5 0.84,5.84 0.83,5 1.67,5.83 0.83,5 1.67,5.83 0.83,5.84 0.83,5 1.67,5.83 0.83,5.83 0.84,5 0.83,5.84 0.83,0.83 0,2.5 0.84,0.83 0.83,5.84 0.83,5 0.84,5.83 1.66,5.83 0.84,5 0.83,5.84 0.83,5 1.67,5.83 0.83,5.83 0.84,5 0.83,5.84 0.83,5.83 0.84,5 1.66,5.83 0.84,5.84 0.83,5 0.83,5.83 0.84,5 0.83,5.83 0.83,5.84 0.84,5 1.66,5.83 0.84,5.83 0.83,5 0.83,5.84 0.84,5.83 0.83,5 0.83,5.83 0.84,5.84 0.83,5 0.83,5.83 0.84,5.83 0.83,5 0.83,5.84 0.84,5.83 0.83,5 0.83,5.83 0.84,5.84 0.83,5 0.83,5.83 0.84,5.83 0.83,5 0.83,5.84 0.84,5.83 0.83,5 0.83,5.83 0.84,5.84 0.83,5 0.83,5.83 0.84,5.83 0.83,5 0.83,5.84 0.84,5.83 0.83,5 0.83,5.83 0.84,5.84 0.83,5 0.83,5.83 0.84,5.83 0.83,5 0.83,5.84 0.84,5.83 0.83,5 0.83,5.83 0.84,5.84 0.83,5 0.83,5.83 0.84,5.83 0.83,5 0.83,5.84 0.84,5.83 0.83,5 0.83,5.83 0.84,5.84 0.83,5 0.83,5.83 0.84,5.83 0.83,5 0.83,5.84 0.84,5.83 0.83,5 0.83,5.83 0.84,5.84 0.83,5 0.83,4.16 0.84,3.34 0.83,4.16 0,3.34 0.83,5.83 0.84,5.83 0.83,5 1.67,5.84 0.83,5.83 0.83,5 0.84,5.83 0.83,5.84 0.83,5 0.84,5.83 1.66,5.83 0.84,5 0.83,5.84 0.83,5.83 0.84,5 1.66,5.83 0.84,5 0.83,5.84 0.83,5.83 0.84,5 1.66,5.83 0.84,5.84 0.83,5 0.83,5.83 1.67,5 0.83,5.83 0.84,5.84 1.66,5 0.84,5.83 0.83,5.83 0.83,5 1.67,5.84 0.83,5 0.84,5.83 1.66,5.83 0.84,5 0.83,5.84 1.67,5 0.83,5.83 0.83,5.83 1.67,5 0.83,5.84 1.67,5 0.83,5.83 0.84,5.83 1.66,5 0.84,5.84 1.66,5 0.84,5.83 0.83,5.83 1.67,5 0.83,5.84 1.67,5 0.83,5.83 1.67,5.83 0.83,5 1.67,5.84 0.83,5 0.83,5.83 1.67,5 0.83,5.83 1.67,5.84 0.83,5 1.67,5.83 0.83,5 1.67,5.83 1.67,5 0.83,5.84 1.67,5.83 0.83,5 1.67,5.83 0.83,5 1.67,5.84 0.83,5 1.67,5.83 1.66,5 0.84,5.83 1.66,5.84 0.84,5 1.66,5.83 1.67,5 0.83,5.83 1.67,5 0.83,5.84 1.67,5 1.67,5.83 0.83,5 1.67,5.83 1.66,5.84 0.84,5 1.66,5.83 1.67,5 0.83,5.83 1.67,5 1.67,5.84 0.83,5 1.67,5.83 1.66,5 1.67,5.83 0.83,5 1.67,5.84 1.67,5 0.83,5.83 1.67,5 1.66,5.83 1.67,5 0.83,5.84 1.67,5 1.67,5.83 1.66,5 1.67,5.83 0.83,5 1.67,5.84 1.67,5 1.66,5.83 1.67,5 0.83,5.83 1.67,5 1.67,5.84 1.66,5 1.67,5.83 1.67,5 0.83,5.83 1.67,5 1.66,5.84 1.67,5 1.67,5.83 1.66,5 1.67,5.83 0.83,5 1.67,5.84 1.67,5 1.66,5.83 1.67,5 1.67,5.83 1.66,5 1.67,5.84 1.67,5 1.66,5 0.84,5.83 1.66,5 1.67,5.83 1.67,5 1.66,5.84 1.67,5 1.67,5.83 1.66,5 1.67,5.83 1.67,5 1.66,5 1.67,5.84 1.67,5 1.66,5.83 1.67,5 1.67,5.83 1.66,5 1.67,5.84 1.67,5 1.66,5 1.67,5.83 1.67,5 1.66,5.83 1.67,5 1.67,5.84 1.66,5 1.67,5 1.67,5.83 1.66,5 1.67,5.83 2.5,5 1.67,5 1.66,5.84 1.67,5 1.67,5.83 1.66,5 1.67,5.83 1.67,5 1.66,5 1.67,5.84 2.5,5 0,0.83"
                 style="fill:none;stroke:#009900;stroke-width:30;stroke-linecap:butt;stroke-linejoin:round;stroke-miterlimit:10;stroke-dasharray:5, 40;stroke-dashoffset:0;stroke-opacity:1"
                 id="path4419"
                 inkscape:connector-curvature="0" /><path
                 d="m 938.332,2320.83 4.168,4.17 5,3.33 4.168,3.34 4.164,4.16 4.168,3.34 4.168,4.16 4.164,3.34 4.168,4.16 4.168,3.34 4.164,4.16 4.168,3.34 4.168,4.16 4.164,3.34 4.168,4.16 4.17,3.34 4.16,4.16 4.17,4.17 4.17,3.33 4.16,4.17 4.17,3.33 4.17,4.17 3.33,4.17 4.17,3.33 4.16,4.17 4.17,4.16 4.17,3.34 4.16,4.16 4.17,4.17 3.33,3.33 4.17,4.17 4.17,4.17 4.16,4.16 4.17,3.34 3.33,4.16 4.17,4.17 4.17,4.17 4.16,3.33 3.34,4.17 4.16,4.16 4.17,4.17 3.33,4.17 4.17,4.16 4.17,3.34 3.33,4.16 4.17,4.17 4.16,4.17 3.34,4.16 4.16,4.17 4.17,4.17 3.33,4.16 4.17,4.17 3.33,4.17 4.17,4.16 3.33,4.17 4.17,4.17 3.33,4.16 4.17,4.17 3.33,4.17 4.17,4.16 3.33,4.17 4.17,4.17 3.33,4.16 4.17,4.17 3.33,4.17 4.17,4.16 3.33,4.17 3.34,4.17 4.16,5 3.34,4.16 3.33,4.17 4.17,4.17 3.33,4.16 4.17,4.17 3.33,4.17 3.33,5 3.34,4.16 4.16,4.17 3.34,4.17 3.33,5 3.33,4.16 4.17,4.17 3.33,4.17 3.34,5 3.33,4.16 4.17,4.17 3.33,4.17 3.33,5 3.34,4.16 3.33,4.17 3.33,5 3.34,4.17 3.33,4.16 4.17,5 3.33,4.17 3.33,4.17 3.34,5 3.33,4.16 3.33,5 3.34,4.17 3.33,4.17 3.33,5 3.34,4.16 3.33,5 3.33,4.17 3.34,5 3.33,4.17 3.33,5 3.34,4.16 2.5,5 3.33,4.17 3.33,5 3.34,4.17 3.33,5 3.33,4.16 3.34,5 2.5,4.17 3.33,5 3.33,5 3.34,4.17 3.33,5 2.5,4.16 3.33,5 3.34,4.17 3.33,5 2.5,5 3.33,4.17 3.34,5 2.5,5 3.33,4.16 3.33,5 2.5,5 3.34,4.17 3.33,5 2.5,5 3.33,4.17 2.5,5 3.34,5 2.5,5 3.33,4.16 3.33,5 2.5,5 3.34,5 2.5,4.17 3.33,5 2.5,5 2.5,5 3.33,4.17 2.5,5 3.34,5 2.5,5 3.33,5 2.5,5 2.5,4.16 3.33,5 2.5,5 2.5,5 3.34,5 2.5,5 2.5,5 3.33,4.17 2.5,5 2.5,5 2.5,5 3.33,5 2.5,5 2.5,5 2.5,5 3.34,5 2.5,5 2.5,5 2.5,5 2.5,5 2.5,5 2.5,5 3.33,5 2.5,5 2.5,5 2.5,5 2.5,5 2.5,5 2.5,5 2.5,5 2.5,5 2.5,5 2.5,5 2.5,5 2.5,5 2.5,5 2.5,5 2.5,5 2.5,5 2.5,5 1.67,5 2.5,5 2.5,5 2.5,5.83 2.5,5 2.5,5 2.5,5 1.66,5 2.5,5 2.5,5 2.5,5.84 1.67,5 2.5,5 2.5,5 2.5,5 1.67,5 2.5,5.83 2.5,5 1.66,5 2.5,5 2.5,5 1.67,5 2.5,5.83 2.5,5 1.67,5 2.5,5 1.66,5.84 2.5,5 1.67,5 2.5,5 1.67,5.83 2.5,5 2.5,5 1.66,5 1.67,5.83 2.5,5 1.67,5 2.5,5 1.66,5.84 2.5,5 1.67,5 1.67,5.83 2.5,5 1.66,5 2.5,5.83 1.67,5 1.67,5 2.5,5.84 1.66,5 1.67,5 1.67,5.83 2.5,5 1.66,5 1.67,5.83 1.67,5 2.5,5 1.66,5.84 1.67,5 1.67,5.83 1.66,5 2.5,5 1.67,5.83 1.67,5 1.66,5 1.67,5.84 1.67,5 1.66,5.83 1.67,5 1.67,5.83 2.5,5 1.66,5 1.67,5.84 1.67,5 1.66,5.83 1.67,5 1.67,5.83 1.66,5 1.67,5 1.67,5.84 0.83,5 1.67,5.83 1.66,5 1.67,5.83 1.67,5 1.66,5.84 1.67,5 1.67,5.83 1.66,5 0.84,5.83 1.66,5 1.67,5.84 1.67,5 1.66,5.83 0.84,5 1.66,5.83 1.67,5 1.67,5.84 0.83,5 1.67,5.83 1.66,5 0.84,5.83 1.66,5 1.67,5.84 0.83,5 1.67,5.83 1.67,5 0.83,5.83"
                 style="fill:none;stroke:#009900;stroke-width:30;stroke-linecap:butt;stroke-linejoin:round;stroke-miterlimit:10;stroke-dasharray:5, 40;stroke-dashoffset:0;stroke-opacity:1"
                 id="path4421"
                 inkscape:connector-curvature="0" /><path
                 d="m 937.5,2320 0.832,0.83"
                 style="fill:none;stroke:#009900;stroke-width:30;stroke-linecap:butt;stroke-linejoin:round;stroke-miterlimit:10;stroke-dasharray:5, 40;stroke-dashoffset:0;stroke-opacity:1"
                 id="path4423"
                 inkscape:connector-curvature="0" /><path
                 d="m 860.832,2320 15.836,14.17 15.832,15 16.668,15.83 16.664,15 15.836,15.83 15.832,15.84 15.832,15.83 15.836,15.83 15.832,16.67 15,16.67 15,16.66 15,16.67 15,16.67 14.17,17.5 14.16,17.5 14.17,17.5 14.17,17.5 13.33,18.33 13.33,17.5 13.34,18.33 13.33,18.34 12.5,18.33 12.5,18.33 12.5,19.17 12.5,19.17 11.67,18.33 11.66,19.17 11.67,20 11.67,19.16 10.83,19.17 10.83,20 10.84,20 10,20 10,20 10,20 10,20 9.16,20.83 9.17,20 9.17,20.84 8.33,20.83 7.5,20.83 7.5,21.67 6.67,20.83 7.5,21.67 6.66,21.67 6.67,21.66 5.83,21.67 6.67,20.83 6.67,21.67 6.66,21.67 5.84,21.66 6.66,21.67 5.84,21.67 6.66,21.66 6.67,20.84 5.83,21.66 6.67,21.67 6.67,21.67 6.66,21.66 6.67,20.84 6.67,21.66 6.66,21.67 6.67,21.67 6.67,20.83 6.66,21.67 6.67,21.66 6.67,21.67 5.83,21.67 6.67,20.83 6.66,21.67 6.67,21.66 6.67,21.67 5.83,21.67 6.67,21.66 6.66,20.84 6.67,21.66 6.67,21.67 6.66,21.67 5.84,21.66 6.66,20.84 6.67,21.66 5.83,21.67 6.67,21.67 5.83,21.66 6.67,21.67 5.83,21.67 6.67,21.66 6.67,21.67 5.83,20.83 6.67,21.67 5.83,21.67 6.67,21.66 6.66,21.67 5.84,21.67 6.66,21.66 6.67,20.84 6.67,21.66 5.83,21.67 6.67,21.67 5.83,21.66 6.67,21.67 5.83,21.67 6.67,21.66 5.83,20.84 6.67,21.66 6.66,21.67 5.84,21.67 6.66,21.66 6.67,21.67 6.67,21.67 5.83,20.83 6.67,21.67 6.66,21.66 6.67,21.67 5.83,21.67 6.67,21.66 5.83,21.67 6.67,20.83 5.83,21.67 6.67,21.67 5.83,21.66 6.67,21.67 6.67,21.67 5.83,21.66 6.67,21.67 5.83,21.67 6.67,20.83 6.66,21.67 6.67,21.66 5.83,21.67 6.67,21.67 6.67,20.83 6.66,21.67 6.67,21.66 6.67,21.67 6.66,21.67 6.67,20.83 6.67,21.67 7.5,21.66 6.66,20.84 6.67,21.66 7.5,21.67 6.67,20.83 6.66,21.67 6.67,21.67 6.67,21.66 5.83,20.84 3.33,10.83"
                 style="fill:none;stroke:#000000;stroke-width:20;stroke-linecap:butt;stroke-linejoin:round;stroke-miterlimit:10;stroke-dasharray:none;stroke-opacity:1"
                 id="path4425"
                 inkscape:connector-curvature="0" /><path
                 d="m 1160,2320 3.33,3.33 14.17,16.67 15,17.5 15,16.67 14.17,17.5 14.16,16.66 15,17.5 14.17,17.5 13.33,17.5 14.17,18.34 13.33,17.5 13.34,18.33 13.33,18.33 12.5,18.34 13.33,18.33 12.5,18.33 12.5,19.17 11.67,18.33 12.5,19.17 11.67,19.17 11.66,19.16 11.67,19.17 10.83,20 10.84,19.17 10.83,20 10,20 10,20 10,20.83 10,20 9.17,20 9.16,20.83 9.17,20.84 9.17,20 8.33,20.83 9.17,20.83 8.33,20.84 7.5,20.83 8.33,21.67 7.5,20.83 8.34,20.83 7.5,21.67 7.5,20.83 6.66,21.67 7.5,20.83 6.67,21.67 7.5,20.83 6.67,21.67 7.5,20.83 8.33,21.67 7.5,20.83 8.33,20.84 7.5,20.83 7.5,21.67 7.5,20.83 7.5,21.67 7.5,20.83 7.5,21.67 6.67,20.83 7.5,21.67 7.5,20.83 6.67,21.67 7.5,20.83 7.5,21.67 6.66,21.66 6.67,20.84 6.67,21.66 5.83,21.67 5.83,21.67 5.84,21.66 6.66,21.67 5.84,21.67 5.83,21.66 6.67,21.67 5.83,21.67 6.67,21.66 6.66,21.67 5.84,20.83 6.66,21.67 5.84,21.67 6.66,21.66 5.84,21.67 6.66,21.67 5.84,21.66 5.83,21.67 6.67,21.67 5.83,21.66 6.67,21.67 5.83,21.67 5.83,21.66 5.84,21.67 5,21.67 5,21.66 4.16,22.5 5,21.67 5,21.67 5.84,22.5 5,21.66 5.83,21.67 5,21.67 5.83,21.66 5.84,21.67 5.83,21.67 5.83,21.66 5.84,21.67 5.83,21.67 6.67,21.66 5.83,21.67 6.67,21.67 5.83,21.66 5.83,21.67 6.67,21.67 5.83,21.66 6.67,21.67 5.83,21.67 6.67,21.66 5.83,20.84 6.67,21.66 6.67,21.67 6.66,21.67 5.84,21.66 6.66,21.67 6.67,20.83 6.67,21.67 6.66,21.67 5.84,21.66 6.66,21.67 6.67,21.67 5.83,20.83 5.84,21.67 6.66,21.66 6.67,21.67 5.83,21.67 6.67,21.66 6.67,21.67 5.83,21.67 6.67,20.83 6.66,21.67 5.84,21.66 6.66,21.67 6.67,21.67 5.83,21.66 6.67,21.67 5.83,21.67 6.67,20.83 5.83,21.67 6.67,21.66 0.83,1.67"
                 style="fill:none;stroke:#000000;stroke-width:20;stroke-linecap:butt;stroke-linejoin:round;stroke-miterlimit:10;stroke-dasharray:none;stroke-opacity:1"
                 id="path4427"
                 inkscape:connector-curvature="0" /></g></g><g
             id="g4429"
             transform="scale(10,10)" /><path
             d="m 208.332,4785.83 1261.67,0 0,455 -1261.67,0 0,-455 z"
             style="fill:#ffffff;fill-opacity:1;fill-rule:evenodd;stroke:none"
             id="path4431"
             inkscape:connector-curvature="0" /><path
             d="m 208.332,4785.83 0,455 1261.668,0 0,-455 -1261.668,0"
             style="fill:none;stroke:#ffffff;stroke-width:5;stroke-linecap:butt;stroke-linejoin:round;stroke-miterlimit:10;stroke-dasharray:none;stroke-opacity:1"
             id="path4433"
             inkscape:connector-curvature="0" /><path
             d="m 208.332,5240.83 1261.668,0"
             style="fill:none;stroke:#000000;stroke-width:5;stroke-linecap:butt;stroke-linejoin:round;stroke-miterlimit:10;stroke-dasharray:none;stroke-opacity:1"
             id="path4435"
             inkscape:connector-curvature="0" /><path
             d="m 208.332,4785.83 1261.668,0"
             style="fill:none;stroke:#000000;stroke-width:5;stroke-linecap:butt;stroke-linejoin:round;stroke-miterlimit:10;stroke-dasharray:none;stroke-opacity:1"
             id="path4437"
             inkscape:connector-curvature="0" /><path
             d="m 1470,4785.83 0,455"
             style="fill:none;stroke:#000000;stroke-width:5;stroke-linecap:butt;stroke-linejoin:round;stroke-miterlimit:10;stroke-dasharray:none;stroke-opacity:1"
             id="path4439"
             inkscape:connector-curvature="0" /><path
             d="m 208.332,4785.83 0,455"
             style="fill:none;stroke:#000000;stroke-width:5;stroke-linecap:butt;stroke-linejoin:round;stroke-miterlimit:10;stroke-dasharray:none;stroke-opacity:1"
             id="path4441"
             inkscape:connector-curvature="0" /><path
             d="m 208.332,4785.83 1261.668,0"
             style="fill:none;stroke:#000000;stroke-width:5;stroke-linecap:butt;stroke-linejoin:round;stroke-miterlimit:10;stroke-dasharray:none;stroke-opacity:1"
             id="path4443"
             inkscape:connector-curvature="0" /><path
             d="m 208.332,4785.83 0,455"
             style="fill:none;stroke:#000000;stroke-width:5;stroke-linecap:butt;stroke-linejoin:round;stroke-miterlimit:10;stroke-dasharray:none;stroke-opacity:1"
             id="path4445"
             inkscape:connector-curvature="0" /><path
             d="m 208.332,5240.83 1261.668,0"
             style="fill:none;stroke:#000000;stroke-width:5;stroke-linecap:butt;stroke-linejoin:round;stroke-miterlimit:10;stroke-dasharray:none;stroke-opacity:1"
             id="path4447"
             inkscape:connector-curvature="0" /><path
             d="m 208.332,4785.83 1261.668,0"
             style="fill:none;stroke:#000000;stroke-width:5;stroke-linecap:butt;stroke-linejoin:round;stroke-miterlimit:10;stroke-dasharray:none;stroke-opacity:1"
             id="path4449"
             inkscape:connector-curvature="0" /><path
             d="m 1470,4785.83 0,455"
             style="fill:none;stroke:#000000;stroke-width:5;stroke-linecap:butt;stroke-linejoin:round;stroke-miterlimit:10;stroke-dasharray:none;stroke-opacity:1"
             id="path4451"
             inkscape:connector-curvature="0" /><path
             d="m 208.332,4785.83 0,455"
             style="fill:none;stroke:#000000;stroke-width:5;stroke-linecap:butt;stroke-linejoin:round;stroke-miterlimit:10;stroke-dasharray:none;stroke-opacity:1"
             id="path4453"
             inkscape:connector-curvature="0" /><g
             id="g4455"
             transform="scale(10,10)"><text
               transform="matrix(1,0,0,-1,60.5832,511.833)"
               style="font-variant:normal;font-weight:normal;font-size:10px;font-family:Helvetica;-inkscape-font-specification:Helvetica;writing-mode:lr-tb;fill:#000000;fill-opacity:1;fill-rule:nonzero;stroke:none"
               id="text4457"><tspan
                 x="0 6.1100001 11.67 16.67 19.450001 22.23 30.01 35.57 41.130001 46.689999 50.02 55.580002 58.360001 60.580002 66.139999"
                 y="0"
                 sodipodi:role="line"
                 id="tspan4459">Fast Generation</tspan></text>
</g><g
             id="g4461"><g
               id="g4463"
               clip-path="url(#clipPath4465)"><path
                 d="m 269.168,5153.33 305.832,0"
                 style="fill:none;stroke:#0000ff;stroke-width:20;stroke-linecap:butt;stroke-linejoin:round;stroke-miterlimit:10;stroke-dasharray:none;stroke-opacity:1"
                 id="path4469"
                 inkscape:connector-curvature="0" /></g></g><g
             id="g4471"
             transform="scale(10,10)"><text
               transform="matrix(1,0,0,-1,60.5832,497.75)"
               style="font-variant:normal;font-weight:normal;font-size:10px;font-family:Helvetica;-inkscape-font-specification:Helvetica;writing-mode:lr-tb;fill:#000000;fill-opacity:1;fill-rule:nonzero;stroke:none"
               id="text4473"><tspan
                 x="0 7.2199998 12.78 18.34 20.559999 22.780001 28.34 33.900002 39.459999 42.790001 45.57 53.349998 58.91"
                 y="0"
                 sodipodi:role="line"
                 id="tspan4475">Nonlinear Opt</tspan></text>
</g><g
             id="g4477"><g
               id="g4479"
               clip-path="url(#clipPath4481)"><path
                 d="m 269.168,5013.33 305.832,0"
                 style="fill:none;stroke:#ff0000;stroke-width:20;stroke-linecap:butt;stroke-linejoin:round;stroke-miterlimit:10;stroke-dasharray:60;stroke-dashoffset:0;stroke-opacity:1"
                 id="path4485"
                 inkscape:connector-curvature="0" /></g></g><g
             id="g4487"
             transform="scale(10,10)"><text
               transform="matrix(1,0,0,-1,60.5832,483.75)"
               style="font-variant:normal;font-weight:normal;font-size:10px;font-family:Helvetica;-inkscape-font-specification:Helvetica;writing-mode:lr-tb;fill:#000000;fill-opacity:1;fill-rule:nonzero;stroke:none"
               id="text4489"><tspan
                 x="0 6.6700001 10 15.56 18.34 23.9 28.9 33.900002 36.119999 41.68 47.240002 52.799999 55.02 57.799999 65.019997 68.349998 70.57 75.57 81.129997"
                 y="0"
                 sodipodi:role="line"
                 id="tspan4491">Professional Driver</tspan></text>
</g><g
             id="g4493"><g
               id="g4495"
               clip-path="url(#clipPath4497)"><path
                 d="m 269.168,4873.33 305.832,0"
                 style="fill:none;stroke:#009900;stroke-width:30;stroke-linecap:butt;stroke-linejoin:round;stroke-miterlimit:10;stroke-dasharray:5, 40;stroke-dashoffset:0;stroke-opacity:1"
                 id="path4501"
                 inkscape:connector-curvature="0" /></g></g></g></g><ellipse
         transform="scale(1,-1)"
         ry="22.458323"
         rx="21.347492"
         cy="-372.53442"
         cx="102.33572"
         id="path4914-0"
         style="fill:#ffffff;fill-opacity:0;stroke:#000000;stroke-width:2.82714009;stroke-miterlimit:4;stroke-dasharray:none;stroke-opacity:1" /><text
         transform="scale(1.0196329,-0.98074514)"
         sodipodi:linespacing="125%"
         id="text4910-9"
         y="-366.6955"
         x="90.106613"
         style="font-style:normal;font-weight:normal;font-size:35.33924866px;line-height:125%;font-family:sans-serif;letter-spacing:0px;word-spacing:0px;fill:#000000;fill-opacity:1;stroke:none;stroke-width:1px;stroke-linecap:butt;stroke-linejoin:miter;stroke-opacity:1"
         xml:space="preserve"><tspan
           style="font-size:35.33924866px"
           y="-366.6955"
           x="90.106613"
           id="tspan4912-7"
           sodipodi:role="line">b</tspan></text>
<ellipse
         transform="scale(1,-1)"
         ry="22.458323"
         rx="21.347492"
         cy="-122.96467"
         cx="107.59409"
         id="path4914-0-0"
         style="fill:#ffffff;fill-opacity:0;stroke:#000000;stroke-width:2.82714009;stroke-miterlimit:4;stroke-dasharray:none;stroke-opacity:1" /><text
         transform="scale(1.0196329,-0.98074513)"
         sodipodi:linespacing="125%"
         id="text4910-9-4"
         y="-115.48882"
         x="95.263725"
         style="font-style:normal;font-weight:normal;font-size:35.33924866px;line-height:125%;font-family:sans-serif;letter-spacing:0px;word-spacing:0px;fill:#000000;fill-opacity:1;stroke:none;stroke-width:1px;stroke-linecap:butt;stroke-linejoin:miter;stroke-opacity:1"
         xml:space="preserve"><tspan
           style="font-size:35.33924866px"
           y="-115.48882"
           x="95.263725"
           id="tspan4912-7-7"
           sodipodi:role="line">c</tspan></text>
<path
         inkscape:connector-curvature="0"
         id="path3493"
         d="m 139.14423,362.82668 33.57259,108.40306"
         style="fill:none;fill-rule:evenodd;stroke:#000000;stroke-width:0.80000001px;stroke-linecap:butt;stroke-linejoin:miter;stroke-opacity:1;marker-end:url(#Arrow1Lend)" /><path
         inkscape:connector-curvature="0"
         id="path4575"
         d="m 134.29037,198.60412 67.14517,-12.94365"
         style="fill:none;fill-rule:evenodd;stroke:#000000;stroke-width:0.80000001px;stroke-linecap:butt;stroke-linejoin:miter;stroke-opacity:1;marker-end:url(#marker4583)" /><path
         inkscape:connector-curvature="0"
         id="path5228"
         d="m 44.90466,329.69059 0,-10.01059"
         style="fill:none;fill-rule:evenodd;stroke:#000000;stroke-width:0.80000001px;stroke-linecap:butt;stroke-linejoin:miter;stroke-opacity:1" /><path
         inkscape:connector-curvature="0"
         id="path5230"
         d="m 44.90466,324.91525 44.90466,0"
         style="fill:none;fill-rule:evenodd;stroke:#000000;stroke-width:0.80000001px;stroke-linecap:butt;stroke-linejoin:miter;stroke-opacity:1" /><path
         inkscape:connector-curvature="0"
         id="path5228-7"
         d="m 90.095337,329.69059 0,-10.01059"
         style="fill:none;fill-rule:evenodd;stroke:#000000;stroke-width:0.80000001px;stroke-linecap:butt;stroke-linejoin:miter;stroke-opacity:1" /><text
         transform="scale(1,-1)"
         sodipodi:linespacing="125%"
         id="text5247"
         y="-315.19067"
         x="55.7733"
         style="font-style:normal;font-weight:normal;font-size:12px;line-height:125%;font-family:sans-serif;letter-spacing:0px;word-spacing:0px;fill:#000000;fill-opacity:1;stroke:none;stroke-width:1px;stroke-linecap:butt;stroke-linejoin:miter;stroke-opacity:1"
         xml:space="preserve"><tspan
           style="font-size:10px"
           y="-315.19067"
           x="55.7733"
           id="tspan5249"
           sodipodi:role="line">20 m</tspan></text>
<path
         inkscape:connector-curvature="0"
         id="path5228-3"
         d="m 156.45127,75.969716 0,-10.01059"
         style="fill:none;fill-rule:evenodd;stroke:#000000;stroke-width:0.80000001px;stroke-linecap:butt;stroke-linejoin:miter;stroke-opacity:1" /><path
         inkscape:connector-curvature="0"
         id="path5230-5"
         d="m 156.45127,71.194376 35.03708,0"
         style="fill:none;fill-rule:evenodd;stroke:#000000;stroke-width:0.70665628px;stroke-linecap:butt;stroke-linejoin:miter;stroke-opacity:1" /><path
         inkscape:connector-curvature="0"
         id="path5228-7-0"
         d="m 191.0016,75.969716 0,-10.01059"
         style="fill:none;fill-rule:evenodd;stroke:#000000;stroke-width:0.80000001px;stroke-linecap:butt;stroke-linejoin:miter;stroke-opacity:1" /><text
         transform="scale(1,-1)"
         sodipodi:linespacing="125%"
         id="text5247-6"
         y="-61.469788"
         x="160.91988"
         style="font-style:normal;font-weight:normal;font-size:12px;line-height:125%;font-family:sans-serif;letter-spacing:0px;word-spacing:0px;fill:#000000;fill-opacity:1;stroke:none;stroke-width:1px;stroke-linecap:butt;stroke-linejoin:miter;stroke-opacity:1"
         xml:space="preserve"><tspan
           style="font-size:10px"
           y="-61.469788"
           x="160.91988"
           id="tspan5249-4"
           sodipodi:role="line">20 m</tspan></text>
</g></g></svg>