<?xml version="1.0" encoding="UTF-8" standalone="no"?>
<!-- Created with Inkscape (http://www.inkscape.org/) -->

<svg
   xmlns:dc="http://purl.org/dc/elements/1.1/"
   xmlns:cc="http://creativecommons.org/ns#"
   xmlns:rdf="http://www.w3.org/1999/02/22-rdf-syntax-ns#"
   xmlns:svg="http://www.w3.org/2000/svg"
   xmlns="http://www.w3.org/2000/svg"
   xmlns:sodipodi="http://sodipodi.sourceforge.net/DTD/sodipodi-0.dtd"
   xmlns:inkscape="http://www.inkscape.org/namespaces/inkscape"
   id="svg2"
   version="1.1"
   inkscape:version="0.91 r13725"
   xml:space="preserve"
   width="523.75"
   height="393.75"
   viewBox="0 0 523.75 393.75"
   sodipodi:docname="tirecurves.svg"><metadata
     id="metadata8"><rdf:RDF><cc:Work
         rdf:about=""><dc:format>image/svg+xml</dc:format><dc:type
           rdf:resource="http://purl.org/dc/dcmitype/StillImage" /><dc:title></dc:title></cc:Work></rdf:RDF></metadata><defs
     id="defs6"><clipPath
       clipPathUnits="userSpaceOnUse"
       id="clipPath256"><path
         d="m 545.832,2914.17 3254.998,0 0,-2568.338 -3254.998,0 0,2568.338 z"
         id="path258"
         inkscape:connector-curvature="0" /></clipPath></defs><sodipodi:namedview
     pagecolor="#ffffff"
     bordercolor="#666666"
     borderopacity="1"
     objecttolerance="10"
     gridtolerance="10"
     guidetolerance="10"
     inkscape:pageopacity="0"
     inkscape:pageshadow="2"
     inkscape:window-width="1600"
     inkscape:window-height="838"
     id="namedview4"
     showgrid="false"
     inkscape:zoom="1.6952604"
     inkscape:cx="361.60099"
     inkscape:cy="197.87734"
     inkscape:window-x="-8"
     inkscape:window-y="-8"
     inkscape:window-maximized="1"
     inkscape:current-layer="g10" /><g
     id="g10"
     inkscape:groupmode="layer"
     inkscape:label="ink_ext_XXXXXX"
     transform="matrix(1.25,0,0,-1.25,0,393.75)"><g
       id="g12"
       transform="scale(0.1,0.1)"><path
         d="m 0,0 4190,0 0,3150 L 0,3150 0,0 Z"
         style="fill:#ffffff;fill-opacity:1;fill-rule:nonzero;stroke:none"
         id="path14"
         inkscape:connector-curvature="0" /><path
         d="m 545.832,346.668 3254.17,0 0,2567.5 -3254.17,0 0,-2567.5 z"
         style="fill:#ffffff;fill-opacity:1;fill-rule:evenodd;stroke:none"
         id="path16"
         inkscape:connector-curvature="0" /><path
         d="m 545.832,346.668 0,2567.502 3254.168,0 0,-2567.502 -3254.168,0"
         style="fill:none;stroke:#ffffff;stroke-width:5;stroke-linecap:butt;stroke-linejoin:round;stroke-miterlimit:10;stroke-dasharray:none;stroke-opacity:1"
         id="path18"
         inkscape:connector-curvature="0" /><path
         d="m 545.832,346.668 0,2567.502"
         style="fill:none;stroke:#000000;stroke-width:3.33332992;stroke-linecap:butt;stroke-linejoin:round;stroke-miterlimit:10;stroke-dasharray:5, 40;stroke-dashoffset:0;stroke-opacity:1"
         id="path20"
         inkscape:connector-curvature="0" /><path
         d="m 545.832,2914.17 0,0"
         style="fill:none;stroke:#000000;stroke-width:3.33332992;stroke-linecap:butt;stroke-linejoin:round;stroke-miterlimit:10;stroke-dasharray:5, 40;stroke-dashoffset:0;stroke-opacity:1"
         id="path22"
         inkscape:connector-curvature="0" /><path
         d="m 952.5,346.668 0,2567.502"
         style="fill:none;stroke:#000000;stroke-width:3.33332992;stroke-linecap:butt;stroke-linejoin:round;stroke-miterlimit:10;stroke-dasharray:5, 40;stroke-dashoffset:0;stroke-opacity:1"
         id="path24"
         inkscape:connector-curvature="0" /><path
         d="m 952.5,2914.17 0,0"
         style="fill:none;stroke:#000000;stroke-width:3.33332992;stroke-linecap:butt;stroke-linejoin:round;stroke-miterlimit:10;stroke-dasharray:5, 40;stroke-dashoffset:0;stroke-opacity:1"
         id="path26"
         inkscape:connector-curvature="0" /><path
         d="m 1359.17,346.668 0,2567.502"
         style="fill:none;stroke:#000000;stroke-width:3.33332992;stroke-linecap:butt;stroke-linejoin:round;stroke-miterlimit:10;stroke-dasharray:5, 40;stroke-dashoffset:0;stroke-opacity:1"
         id="path28"
         inkscape:connector-curvature="0" /><path
         d="m 1359.17,2914.17 0,0"
         style="fill:none;stroke:#000000;stroke-width:3.33332992;stroke-linecap:butt;stroke-linejoin:round;stroke-miterlimit:10;stroke-dasharray:5, 40;stroke-dashoffset:0;stroke-opacity:1"
         id="path30"
         inkscape:connector-curvature="0" /><path
         d="m 1765.83,346.668 0,2567.502"
         style="fill:none;stroke:#000000;stroke-width:3.33332992;stroke-linecap:butt;stroke-linejoin:round;stroke-miterlimit:10;stroke-dasharray:5, 40;stroke-dashoffset:0;stroke-opacity:1"
         id="path32"
         inkscape:connector-curvature="0" /><path
         d="m 1765.83,2914.17 0,0"
         style="fill:none;stroke:#000000;stroke-width:3.33332992;stroke-linecap:butt;stroke-linejoin:round;stroke-miterlimit:10;stroke-dasharray:5, 40;stroke-dashoffset:0;stroke-opacity:1"
         id="path34"
         inkscape:connector-curvature="0" /><path
         d="m 2172.5,346.668 0,2567.502"
         style="fill:none;stroke:#000000;stroke-width:3.33332992;stroke-linecap:butt;stroke-linejoin:round;stroke-miterlimit:10;stroke-dasharray:5, 40;stroke-dashoffset:0;stroke-opacity:1"
         id="path36"
         inkscape:connector-curvature="0" /><path
         d="m 2172.5,2914.17 0,0"
         style="fill:none;stroke:#000000;stroke-width:3.33332992;stroke-linecap:butt;stroke-linejoin:round;stroke-miterlimit:10;stroke-dasharray:5, 40;stroke-dashoffset:0;stroke-opacity:1"
         id="path38"
         inkscape:connector-curvature="0" /><path
         d="m 2579.17,346.668 0,2567.502"
         style="fill:none;stroke:#000000;stroke-width:3.33332992;stroke-linecap:butt;stroke-linejoin:round;stroke-miterlimit:10;stroke-dasharray:5, 40;stroke-dashoffset:0;stroke-opacity:1"
         id="path40"
         inkscape:connector-curvature="0" /><path
         d="m 2579.17,2914.17 0,0"
         style="fill:none;stroke:#000000;stroke-width:3.33332992;stroke-linecap:butt;stroke-linejoin:round;stroke-miterlimit:10;stroke-dasharray:5, 40;stroke-dashoffset:0;stroke-opacity:1"
         id="path42"
         inkscape:connector-curvature="0" /><path
         d="m 2985.83,346.668 0,2567.502"
         style="fill:none;stroke:#000000;stroke-width:3.33332992;stroke-linecap:butt;stroke-linejoin:round;stroke-miterlimit:10;stroke-dasharray:5, 40;stroke-dashoffset:0;stroke-opacity:1"
         id="path44"
         inkscape:connector-curvature="0" /><path
         d="m 2985.83,2914.17 0,0"
         style="fill:none;stroke:#000000;stroke-width:3.33332992;stroke-linecap:butt;stroke-linejoin:round;stroke-miterlimit:10;stroke-dasharray:5, 40;stroke-dashoffset:0;stroke-opacity:1"
         id="path46"
         inkscape:connector-curvature="0" /><path
         d="m 3392.5,346.668 0,2567.502"
         style="fill:none;stroke:#000000;stroke-width:3.33332992;stroke-linecap:butt;stroke-linejoin:round;stroke-miterlimit:10;stroke-dasharray:5, 40;stroke-dashoffset:0;stroke-opacity:1"
         id="path48"
         inkscape:connector-curvature="0" /><path
         d="m 3392.5,2914.17 0,0"
         style="fill:none;stroke:#000000;stroke-width:3.33332992;stroke-linecap:butt;stroke-linejoin:round;stroke-miterlimit:10;stroke-dasharray:5, 40;stroke-dashoffset:0;stroke-opacity:1"
         id="path50"
         inkscape:connector-curvature="0" /><path
         d="m 3800,346.668 0,2567.502"
         style="fill:none;stroke:#000000;stroke-width:3.33332992;stroke-linecap:butt;stroke-linejoin:round;stroke-miterlimit:10;stroke-dasharray:5, 40;stroke-dashoffset:0;stroke-opacity:1"
         id="path52"
         inkscape:connector-curvature="0" /><path
         d="m 3800,2914.17 0,0"
         style="fill:none;stroke:#000000;stroke-width:3.33332992;stroke-linecap:butt;stroke-linejoin:round;stroke-miterlimit:10;stroke-dasharray:5, 40;stroke-dashoffset:0;stroke-opacity:1"
         id="path54"
         inkscape:connector-curvature="0" /><path
         d="m 545.832,346.668 3254.168,0"
         style="fill:none;stroke:#000000;stroke-width:3.33332992;stroke-linecap:butt;stroke-linejoin:round;stroke-miterlimit:10;stroke-dasharray:5, 40;stroke-dashoffset:0;stroke-opacity:1"
         id="path56"
         inkscape:connector-curvature="0" /><path
         d="m 3800,346.668 0,0"
         style="fill:none;stroke:#000000;stroke-width:3.33332992;stroke-linecap:butt;stroke-linejoin:round;stroke-miterlimit:10;stroke-dasharray:5, 40;stroke-dashoffset:0;stroke-opacity:1"
         id="path58"
         inkscape:connector-curvature="0" /><path
         d="M 545.832,632.5 3800,632.5"
         style="fill:none;stroke:#000000;stroke-width:3.33332992;stroke-linecap:butt;stroke-linejoin:round;stroke-miterlimit:10;stroke-dasharray:5, 40;stroke-dashoffset:0;stroke-opacity:1"
         id="path60"
         inkscape:connector-curvature="0" /><path
         d="m 3800,632.5 0,0"
         style="fill:none;stroke:#000000;stroke-width:3.33332992;stroke-linecap:butt;stroke-linejoin:round;stroke-miterlimit:10;stroke-dasharray:5, 40;stroke-dashoffset:0;stroke-opacity:1"
         id="path62"
         inkscape:connector-curvature="0" /><path
         d="M 545.832,917.5 3800,917.5"
         style="fill:none;stroke:#000000;stroke-width:3.33332992;stroke-linecap:butt;stroke-linejoin:round;stroke-miterlimit:10;stroke-dasharray:5, 40;stroke-dashoffset:0;stroke-opacity:1"
         id="path64"
         inkscape:connector-curvature="0" /><path
         d="m 3800,917.5 0,0"
         style="fill:none;stroke:#000000;stroke-width:3.33332992;stroke-linecap:butt;stroke-linejoin:round;stroke-miterlimit:10;stroke-dasharray:5, 40;stroke-dashoffset:0;stroke-opacity:1"
         id="path66"
         inkscape:connector-curvature="0" /><path
         d="m 545.832,1202.5 3254.168,0"
         style="fill:none;stroke:#000000;stroke-width:3.33332992;stroke-linecap:butt;stroke-linejoin:round;stroke-miterlimit:10;stroke-dasharray:5, 40;stroke-dashoffset:0;stroke-opacity:1"
         id="path68"
         inkscape:connector-curvature="0" /><path
         d="m 3800,1202.5 0,0"
         style="fill:none;stroke:#000000;stroke-width:3.33332992;stroke-linecap:butt;stroke-linejoin:round;stroke-miterlimit:10;stroke-dasharray:5, 40;stroke-dashoffset:0;stroke-opacity:1"
         id="path70"
         inkscape:connector-curvature="0" /><path
         d="m 545.832,1488.33 3254.168,0"
         style="fill:none;stroke:#000000;stroke-width:3.33332992;stroke-linecap:butt;stroke-linejoin:round;stroke-miterlimit:10;stroke-dasharray:5, 40;stroke-dashoffset:0;stroke-opacity:1"
         id="path72"
         inkscape:connector-curvature="0" /><path
         d="m 3800,1488.33 0,0"
         style="fill:none;stroke:#000000;stroke-width:3.33332992;stroke-linecap:butt;stroke-linejoin:round;stroke-miterlimit:10;stroke-dasharray:5, 40;stroke-dashoffset:0;stroke-opacity:1"
         id="path74"
         inkscape:connector-curvature="0" /><path
         d="m 545.832,1773.33 3254.168,0"
         style="fill:none;stroke:#000000;stroke-width:3.33332992;stroke-linecap:butt;stroke-linejoin:round;stroke-miterlimit:10;stroke-dasharray:5, 40;stroke-dashoffset:0;stroke-opacity:1"
         id="path76"
         inkscape:connector-curvature="0" /><path
         d="m 3800,1773.33 0,0"
         style="fill:none;stroke:#000000;stroke-width:3.33332992;stroke-linecap:butt;stroke-linejoin:round;stroke-miterlimit:10;stroke-dasharray:5, 40;stroke-dashoffset:0;stroke-opacity:1"
         id="path78"
         inkscape:connector-curvature="0" /><path
         d="m 545.832,2058.33 3254.168,0"
         style="fill:none;stroke:#000000;stroke-width:3.33332992;stroke-linecap:butt;stroke-linejoin:round;stroke-miterlimit:10;stroke-dasharray:5, 40;stroke-dashoffset:0;stroke-opacity:1"
         id="path80"
         inkscape:connector-curvature="0" /><path
         d="m 3800,2058.33 0,0"
         style="fill:none;stroke:#000000;stroke-width:3.33332992;stroke-linecap:butt;stroke-linejoin:round;stroke-miterlimit:10;stroke-dasharray:5, 40;stroke-dashoffset:0;stroke-opacity:1"
         id="path82"
         inkscape:connector-curvature="0" /><path
         d="m 545.832,2344.17 3254.168,0"
         style="fill:none;stroke:#000000;stroke-width:3.33332992;stroke-linecap:butt;stroke-linejoin:round;stroke-miterlimit:10;stroke-dasharray:5, 40;stroke-dashoffset:0;stroke-opacity:1"
         id="path84"
         inkscape:connector-curvature="0" /><path
         d="m 3800,2344.17 0,0"
         style="fill:none;stroke:#000000;stroke-width:3.33332992;stroke-linecap:butt;stroke-linejoin:round;stroke-miterlimit:10;stroke-dasharray:5, 40;stroke-dashoffset:0;stroke-opacity:1"
         id="path86"
         inkscape:connector-curvature="0" /><path
         d="m 545.832,2629.17 3254.168,0"
         style="fill:none;stroke:#000000;stroke-width:3.33332992;stroke-linecap:butt;stroke-linejoin:round;stroke-miterlimit:10;stroke-dasharray:5, 40;stroke-dashoffset:0;stroke-opacity:1"
         id="path88"
         inkscape:connector-curvature="0" /><path
         d="m 3800,2629.17 0,0"
         style="fill:none;stroke:#000000;stroke-width:3.33332992;stroke-linecap:butt;stroke-linejoin:round;stroke-miterlimit:10;stroke-dasharray:5, 40;stroke-dashoffset:0;stroke-opacity:1"
         id="path90"
         inkscape:connector-curvature="0" /><path
         d="m 545.832,2914.17 3254.168,0"
         style="fill:none;stroke:#000000;stroke-width:3.33332992;stroke-linecap:butt;stroke-linejoin:round;stroke-miterlimit:10;stroke-dasharray:5, 40;stroke-dashoffset:0;stroke-opacity:1"
         id="path92"
         inkscape:connector-curvature="0" /><path
         d="m 3800,2914.17 0,0"
         style="fill:none;stroke:#000000;stroke-width:3.33332992;stroke-linecap:butt;stroke-linejoin:round;stroke-miterlimit:10;stroke-dasharray:5, 40;stroke-dashoffset:0;stroke-opacity:1"
         id="path94"
         inkscape:connector-curvature="0" /><path
         d="m 545.832,346.668 3254.168,0"
         style="fill:none;stroke:#000000;stroke-width:5;stroke-linecap:butt;stroke-linejoin:round;stroke-miterlimit:10;stroke-dasharray:none;stroke-opacity:1"
         id="path96"
         inkscape:connector-curvature="0" /><path
         d="m 545.832,346.668 0,2567.502"
         style="fill:none;stroke:#000000;stroke-width:5;stroke-linecap:butt;stroke-linejoin:round;stroke-miterlimit:10;stroke-dasharray:none;stroke-opacity:1"
         id="path98"
         inkscape:connector-curvature="0" /><path
         d="m 545.832,346.668 0,33.332"
         style="fill:none;stroke:#000000;stroke-width:5;stroke-linecap:butt;stroke-linejoin:round;stroke-miterlimit:10;stroke-dasharray:none;stroke-opacity:1"
         id="path100"
         inkscape:connector-curvature="0" /><g
         id="g102"
         transform="scale(10,10)"><text
           transform="matrix(1,0,0,-1,51.8332,22.5832)"
           style="font-variant:normal;font-weight:normal;font-size:10px;font-family:Helvetica;-inkscape-font-specification:Helvetica;writing-mode:lr-tb;fill:#000000;fill-opacity:1;fill-rule:nonzero;stroke:none"
           id="text104"><tspan
             x="0"
             y="0"
             id="tspan106">0</tspan></text>
</g><path
         d="m 952.5,346.668 0,33.332"
         style="fill:none;stroke:#000000;stroke-width:5;stroke-linecap:butt;stroke-linejoin:round;stroke-miterlimit:10;stroke-dasharray:none;stroke-opacity:1"
         id="path108"
         inkscape:connector-curvature="0" /><g
         id="g110"
         transform="scale(10,10)"><text
           transform="matrix(1,0,0,-1,92.5,22.5832)"
           style="font-variant:normal;font-weight:normal;font-size:10px;font-family:Helvetica;-inkscape-font-specification:Helvetica;writing-mode:lr-tb;fill:#000000;fill-opacity:1;fill-rule:nonzero;stroke:none"
           id="text112"><tspan
             x="0"
             y="0"
             id="tspan114">1</tspan></text>
</g><path
         d="m 1359.17,346.668 0,33.332"
         style="fill:none;stroke:#000000;stroke-width:5;stroke-linecap:butt;stroke-linejoin:round;stroke-miterlimit:10;stroke-dasharray:none;stroke-opacity:1"
         id="path116"
         inkscape:connector-curvature="0" /><g
         id="g118"
         transform="scale(10,10)"><text
           transform="matrix(1,0,0,-1,133.167,22.5832)"
           style="font-variant:normal;font-weight:normal;font-size:10px;font-family:Helvetica;-inkscape-font-specification:Helvetica;writing-mode:lr-tb;fill:#000000;fill-opacity:1;fill-rule:nonzero;stroke:none"
           id="text120"><tspan
             x="0"
             y="0"
             id="tspan122">2</tspan></text>
</g><path
         d="m 1765.83,346.668 0,33.332"
         style="fill:none;stroke:#000000;stroke-width:5;stroke-linecap:butt;stroke-linejoin:round;stroke-miterlimit:10;stroke-dasharray:none;stroke-opacity:1"
         id="path124"
         inkscape:connector-curvature="0" /><g
         id="g126"
         transform="scale(10,10)"><text
           transform="matrix(1,0,0,-1,173.833,22.5832)"
           style="font-variant:normal;font-weight:normal;font-size:10px;font-family:Helvetica;-inkscape-font-specification:Helvetica;writing-mode:lr-tb;fill:#000000;fill-opacity:1;fill-rule:nonzero;stroke:none"
           id="text128"><tspan
             x="0"
             y="0"
             id="tspan130">3</tspan></text>
</g><path
         d="m 2172.5,346.668 0,33.332"
         style="fill:none;stroke:#000000;stroke-width:5;stroke-linecap:butt;stroke-linejoin:round;stroke-miterlimit:10;stroke-dasharray:none;stroke-opacity:1"
         id="path132"
         inkscape:connector-curvature="0" /><g
         id="g134"
         transform="scale(10,10)"><text
           transform="matrix(1,0,0,-1,214.5,22.5832)"
           style="font-variant:normal;font-weight:normal;font-size:10px;font-family:Helvetica;-inkscape-font-specification:Helvetica;writing-mode:lr-tb;fill:#000000;fill-opacity:1;fill-rule:nonzero;stroke:none"
           id="text136"><tspan
             x="0"
             y="0"
             id="tspan138">4</tspan></text>
</g><path
         d="m 2579.17,346.668 0,33.332"
         style="fill:none;stroke:#000000;stroke-width:5;stroke-linecap:butt;stroke-linejoin:round;stroke-miterlimit:10;stroke-dasharray:none;stroke-opacity:1"
         id="path140"
         inkscape:connector-curvature="0" /><g
         id="g142"
         transform="scale(10,10)"><text
           transform="matrix(1,0,0,-1,255.167,22.5832)"
           style="font-variant:normal;font-weight:normal;font-size:10px;font-family:Helvetica;-inkscape-font-specification:Helvetica;writing-mode:lr-tb;fill:#000000;fill-opacity:1;fill-rule:nonzero;stroke:none"
           id="text144"><tspan
             x="0"
             y="0"
             id="tspan146">5</tspan></text>
</g><path
         d="m 2985.83,346.668 0,33.332"
         style="fill:none;stroke:#000000;stroke-width:5;stroke-linecap:butt;stroke-linejoin:round;stroke-miterlimit:10;stroke-dasharray:none;stroke-opacity:1"
         id="path148"
         inkscape:connector-curvature="0" /><g
         id="g150"
         transform="scale(10,10)"><text
           transform="matrix(1,0,0,-1,295.833,22.5832)"
           style="font-variant:normal;font-weight:normal;font-size:10px;font-family:Helvetica;-inkscape-font-specification:Helvetica;writing-mode:lr-tb;fill:#000000;fill-opacity:1;fill-rule:nonzero;stroke:none"
           id="text152"><tspan
             x="0"
             y="0"
             id="tspan154">6</tspan></text>
</g><path
         d="m 3392.5,346.668 0,33.332"
         style="fill:none;stroke:#000000;stroke-width:5;stroke-linecap:butt;stroke-linejoin:round;stroke-miterlimit:10;stroke-dasharray:none;stroke-opacity:1"
         id="path156"
         inkscape:connector-curvature="0" /><g
         id="g158"
         transform="scale(10,10)"><text
           transform="matrix(1,0,0,-1,336.5,22.5832)"
           style="font-variant:normal;font-weight:normal;font-size:10px;font-family:Helvetica;-inkscape-font-specification:Helvetica;writing-mode:lr-tb;fill:#000000;fill-opacity:1;fill-rule:nonzero;stroke:none"
           id="text160"><tspan
             x="0"
             y="0"
             id="tspan162">7</tspan></text>
</g><path
         d="M 3800,346.668 3800,380"
         style="fill:none;stroke:#000000;stroke-width:5;stroke-linecap:butt;stroke-linejoin:round;stroke-miterlimit:10;stroke-dasharray:none;stroke-opacity:1"
         id="path164"
         inkscape:connector-curvature="0" /><g
         id="g166"
         transform="scale(10,10)"><text
           transform="matrix(1,0,0,-1,377.25,22.5832)"
           style="font-variant:normal;font-weight:normal;font-size:10px;font-family:Helvetica;-inkscape-font-specification:Helvetica;writing-mode:lr-tb;fill:#000000;fill-opacity:1;fill-rule:nonzero;stroke:none"
           id="text168"><tspan
             x="0"
             y="0"
             id="tspan170">8</tspan></text>
</g><path
         d="m 545.832,346.668 32.5,0"
         style="fill:none;stroke:#000000;stroke-width:5;stroke-linecap:butt;stroke-linejoin:round;stroke-miterlimit:10;stroke-dasharray:none;stroke-opacity:1"
         id="path172"
         inkscape:connector-curvature="0" /><g
         id="g174"
         transform="scale(10,10)"><text
           transform="matrix(1,0,0,-1,46.1668,31)"
           style="font-variant:normal;font-weight:normal;font-size:10px;font-family:Helvetica;-inkscape-font-specification:Helvetica;writing-mode:lr-tb;fill:#000000;fill-opacity:1;fill-rule:nonzero;stroke:none"
           id="text176"><tspan
             x="0"
             y="0"
             id="tspan178">0</tspan></text>
</g><path
         d="m 545.832,632.5 32.5,0"
         style="fill:none;stroke:#000000;stroke-width:5;stroke-linecap:butt;stroke-linejoin:round;stroke-miterlimit:10;stroke-dasharray:none;stroke-opacity:1"
         id="path180"
         inkscape:connector-curvature="0" /><g
         id="g182"
         transform="scale(10,10)"><text
           transform="matrix(1,0,0,-1,29.5,59.5832)"
           style="font-variant:normal;font-weight:normal;font-size:10px;font-family:Helvetica;-inkscape-font-specification:Helvetica;writing-mode:lr-tb;fill:#000000;fill-opacity:1;fill-rule:nonzero;stroke:none"
           id="text184"><tspan
             x="0 5.5599999 11.12 16.68"
             y="0"
             sodipodi:role="line"
             id="tspan186">1000</tspan></text>
</g><path
         d="m 545.832,917.5 32.5,0"
         style="fill:none;stroke:#000000;stroke-width:5;stroke-linecap:butt;stroke-linejoin:round;stroke-miterlimit:10;stroke-dasharray:none;stroke-opacity:1"
         id="path188"
         inkscape:connector-curvature="0" /><g
         id="g190"
         transform="scale(10,10)"><text
           transform="matrix(1,0,0,-1,29.5,88.0832)"
           style="font-variant:normal;font-weight:normal;font-size:10px;font-family:Helvetica;-inkscape-font-specification:Helvetica;writing-mode:lr-tb;fill:#000000;fill-opacity:1;fill-rule:nonzero;stroke:none"
           id="text192"><tspan
             x="0 5.5599999 11.12 16.68"
             y="0"
             sodipodi:role="line"
             id="tspan194">2000</tspan></text>
</g><path
         d="m 545.832,1202.5 32.5,0"
         style="fill:none;stroke:#000000;stroke-width:5;stroke-linecap:butt;stroke-linejoin:round;stroke-miterlimit:10;stroke-dasharray:none;stroke-opacity:1"
         id="path196"
         inkscape:connector-curvature="0" /><g
         id="g198"
         transform="scale(10,10)"><text
           transform="matrix(1,0,0,-1,29.5,116.583)"
           style="font-variant:normal;font-weight:normal;font-size:10px;font-family:Helvetica;-inkscape-font-specification:Helvetica;writing-mode:lr-tb;fill:#000000;fill-opacity:1;fill-rule:nonzero;stroke:none"
           id="text200"><tspan
             x="0 5.5599999 11.12 16.68"
             y="0"
             sodipodi:role="line"
             id="tspan202">3000</tspan></text>
</g><path
         d="m 545.832,1488.33 32.5,0"
         style="fill:none;stroke:#000000;stroke-width:5;stroke-linecap:butt;stroke-linejoin:round;stroke-miterlimit:10;stroke-dasharray:none;stroke-opacity:1"
         id="path204"
         inkscape:connector-curvature="0" /><g
         id="g206"
         transform="scale(10,10)"><text
           transform="matrix(1,0,0,-1,29.5,145.167)"
           style="font-variant:normal;font-weight:normal;font-size:10px;font-family:Helvetica;-inkscape-font-specification:Helvetica;writing-mode:lr-tb;fill:#000000;fill-opacity:1;fill-rule:nonzero;stroke:none"
           id="text208"><tspan
             x="0 5.5599999 11.12 16.68"
             y="0"
             sodipodi:role="line"
             id="tspan210">4000</tspan></text>
</g><path
         d="m 545.832,1773.33 32.5,0"
         style="fill:none;stroke:#000000;stroke-width:5;stroke-linecap:butt;stroke-linejoin:round;stroke-miterlimit:10;stroke-dasharray:none;stroke-opacity:1"
         id="path212"
         inkscape:connector-curvature="0" /><g
         id="g214"
         transform="scale(10,10)"><text
           transform="matrix(1,0,0,-1,29.5,173.667)"
           style="font-variant:normal;font-weight:normal;font-size:10px;font-family:Helvetica;-inkscape-font-specification:Helvetica;writing-mode:lr-tb;fill:#000000;fill-opacity:1;fill-rule:nonzero;stroke:none"
           id="text216"><tspan
             x="0 5.5599999 11.12 16.68"
             y="0"
             sodipodi:role="line"
             id="tspan218">5000</tspan></text>
</g><path
         d="m 545.832,2058.33 32.5,0"
         style="fill:none;stroke:#000000;stroke-width:5;stroke-linecap:butt;stroke-linejoin:round;stroke-miterlimit:10;stroke-dasharray:none;stroke-opacity:1"
         id="path220"
         inkscape:connector-curvature="0" /><g
         id="g222"
         transform="scale(10,10)"><text
           transform="matrix(1,0,0,-1,29.5,202.167)"
           style="font-variant:normal;font-weight:normal;font-size:10px;font-family:Helvetica;-inkscape-font-specification:Helvetica;writing-mode:lr-tb;fill:#000000;fill-opacity:1;fill-rule:nonzero;stroke:none"
           id="text224"><tspan
             x="0 5.5599999 11.12 16.68"
             y="0"
             sodipodi:role="line"
             id="tspan226">6000</tspan></text>
</g><path
         d="m 545.832,2344.17 32.5,0"
         style="fill:none;stroke:#000000;stroke-width:5;stroke-linecap:butt;stroke-linejoin:round;stroke-miterlimit:10;stroke-dasharray:none;stroke-opacity:1"
         id="path228"
         inkscape:connector-curvature="0" /><g
         id="g230"
         transform="scale(10,10)"><text
           transform="matrix(1,0,0,-1,29.5,230.75)"
           style="font-variant:normal;font-weight:normal;font-size:10px;font-family:Helvetica;-inkscape-font-specification:Helvetica;writing-mode:lr-tb;fill:#000000;fill-opacity:1;fill-rule:nonzero;stroke:none"
           id="text232"><tspan
             x="0 5.5599999 11.12 16.68"
             y="0"
             sodipodi:role="line"
             id="tspan234">7000</tspan></text>
</g><path
         d="m 545.832,2629.17 32.5,0"
         style="fill:none;stroke:#000000;stroke-width:5;stroke-linecap:butt;stroke-linejoin:round;stroke-miterlimit:10;stroke-dasharray:none;stroke-opacity:1"
         id="path236"
         inkscape:connector-curvature="0" /><g
         id="g238"
         transform="scale(10,10)"><text
           transform="matrix(1,0,0,-1,29.5,259.25)"
           style="font-variant:normal;font-weight:normal;font-size:10px;font-family:Helvetica;-inkscape-font-specification:Helvetica;writing-mode:lr-tb;fill:#000000;fill-opacity:1;fill-rule:nonzero;stroke:none"
           id="text240"><tspan
             x="0 5.5599999 11.12 16.68"
             y="0"
             sodipodi:role="line"
             id="tspan242">8000</tspan></text>
</g><path
         d="m 545.832,2914.17 32.5,0"
         style="fill:none;stroke:#000000;stroke-width:5;stroke-linecap:butt;stroke-linejoin:round;stroke-miterlimit:10;stroke-dasharray:none;stroke-opacity:1"
         id="path244"
         inkscape:connector-curvature="0" /><g
         id="g246"
         transform="scale(10,10)"><text
           transform="matrix(1,0,0,-1,29.5,287.75)"
           style="font-variant:normal;font-weight:normal;font-size:10px;font-family:Helvetica;-inkscape-font-specification:Helvetica;writing-mode:lr-tb;fill:#000000;fill-opacity:1;fill-rule:nonzero;stroke:none"
           id="text248"><tspan
             x="0 5.5599999 11.12 16.68"
             y="0"
             sodipodi:role="line"
             id="tspan250">9000</tspan></text>
</g><g
         id="g252"><g
           id="g254"
           clip-path="url(#clipPath256)"><path
             d="m 545.832,346.668 32.5,64.164 32.5,62.5 33.336,61.668 32.5,60 33.332,60 32.5,57.5 33.332,57.5 32.5,55.832 33.336,55 32.5,53.336 32.5,52.5 33.332,51.662 32.5,50.84 33.33,50 32.5,48.33 33.34,47.5 32.5,46.67 33.33,45.83 32.5,44.17 32.5,44.16 33.33,42.5 32.5,41.67 33.34,40.83 32.5,40 33.33,39.17 32.5,38.33 33.33,36.67 32.5,36.67 32.5,35.83 33.34,34.17 32.5,34.16 33.33,32.5 32.5,32.5 33.33,30.84 32.5,30.83 33.34,29.17 32.5,29.16 32.5,28.34 33.33,27.5 32.5,26.66 33.33,25.84 32.5,25 33.34,24.16 32.5,24.17 33.33,22.5 32.5,22.5 32.5,21.67 33.33,20.83 32.5,20 33.34,20 32.5,19.17 33.33,18.33 32.5,17.5 33.33,17.5 32.5,15.83 32.5,16.67 33.34,15 32.5,15 33.33,14.17 32.5,13.33 33.33,13.33 32.5,12.5 33.34,12.5 32.5,11.67 32.5,10.83 33.33,10.84 32.5,10 33.33,10 32.5,9.16 33.34,9.17 32.5,8.33 33.33,7.5 32.5,7.5 32.5,7.5 33.33,6.67 32.5,6.67 33.34,5.83 32.5,5.83 33.33,5 32.5,5 32.5,5 33.33,4.17 32.5,4.17 33.34,3.33 32.5,4.17 33.33,3.33 32.5,2.5 33.33,2.5 32.5,2.5 33.34,2.5 32.5,1.67 32.5,2.5 33.33,1.66 32.5,0.84 33.33,1.66 32.5,0.84 33.34,0.83 32.5,0.83 33.33,0.84"
             style="fill:none;stroke:#000000;stroke-width:20;stroke-linecap:butt;stroke-linejoin:round;stroke-miterlimit:10;stroke-dasharray:none;stroke-opacity:1"
             id="path260"
             inkscape:connector-curvature="0" /><path
             d="m 545.832,346.668 32.5,64.164 32.5,62.5 33.336,61.668 32.5,60 33.332,59.168 32.5,58.332 33.332,56.668 32.5,55.832 33.336,54.168 32.5,53.332 32.5,52.5 33.332,51.67 32.5,50 33.33,49.16 32.5,48.34 33.34,46.66 32.5,46.67 33.33,45 32.5,44.17 32.5,42.5 33.33,42.5 32.5,40.83 33.34,40.83 32.5,39.17 33.33,38.33 32.5,37.5 33.33,35.84 32.5,35.83 32.5,35 33.34,34.17 32.5,32.5 33.33,32.5 32.5,30.83 33.33,30.83 32.5,29.17 33.34,29.17 32.5,28.33 32.5,26.67 33.33,26.66 32.5,25.84 33.33,25 32.5,24.16 33.34,23.34 32.5,22.5 33.33,22.5 32.5,21.66 32.5,20 33.33,20 32.5,20 33.34,18.34 32.5,18.33 33.33,17.5 32.5,16.67 33.33,15.83 32.5,15.83 32.5,15 33.34,14.17 32.5,14.17 33.33,13.33 32.5,12.5 33.33,12.5 32.5,11.67 33.34,10.83 32.5,10.83 32.5,10 33.33,10 32.5,9.17 33.33,8.33 32.5,9.17 33.34,7.5 32.5,7.5 33.33,7.5 32.5,6.67 32.5,5.83 33.33,5.83 32.5,5.84 33.34,5 32.5,5 33.33,5 32.5,4.16 32.5,3.34 33.33,4.16 32.5,3.34 33.34,3.33 32.5,2.5 33.33,2.5 32.5,2.5 33.33,1.67 32.5,2.5 33.34,1.66 32.5,0.84 32.5,1.66 33.33,0.84 32.5,1.66 33.33,0.84 32.5,0 33.34,0.83 32.5,0.83 33.33,0"
             style="fill:none;stroke:#000000;stroke-width:20;stroke-linecap:butt;stroke-linejoin:round;stroke-miterlimit:10;stroke-dasharray:none;stroke-opacity:1"
             id="path262"
             inkscape:connector-curvature="0" /><path
             d="m 545.832,346.668 32.5,64.164 32.5,62.5 33.336,60.836 32.5,60 33.332,58.332 32.5,57.5 33.332,55.832 32.5,55 33.336,53.336 32.5,52.5 32.5,50.832 33.332,50 32.5,49.17 33.33,47.5 32.5,46.66 33.34,45.84 32.5,44.16 33.33,43.34 32.5,41.66 32.5,40.84 33.33,40 32.5,39.16 33.34,38.34 32.5,36.66 33.33,35.84 32.5,35 33.33,34.16 32.5,33.34 32.5,31.66 33.34,30.84 32.5,30.83 33.33,29.17 32.5,28.33 33.33,27.5 32.5,26.67 33.34,25.83 32.5,25 32.5,24.17 33.33,23.33 32.5,22.5 33.33,21.67 32.5,21.66 33.34,20 32.5,20 33.33,18.34 32.5,18.33 32.5,17.5 33.33,16.67 32.5,15.83 33.34,15 32.5,15 33.33,14.17 32.5,13.33 33.33,13.33 32.5,11.67 32.5,12.5 33.34,10.83 32.5,10.84 33.33,10 32.5,9.16 33.33,9.17 32.5,8.33 33.34,8.34 32.5,7.5 32.5,7.5 33.33,6.66 32.5,5.84 33.33,5.83 32.5,5.83 33.34,5 32.5,4.17 33.33,5 32.5,4.17 32.5,3.33 33.33,3.33 32.5,3.34 33.34,2.5 32.5,2.5 33.33,2.5 32.5,1.66 32.5,1.67 33.33,1.67 32.5,1.66 33.34,0.84 32.5,0.83 33.33,0.83 32.5,0.84 33.33,0.83 32.5,0 33.34,0.83 295.83,0"
             style="fill:none;stroke:#000000;stroke-width:20;stroke-linecap:butt;stroke-linejoin:round;stroke-miterlimit:10;stroke-dasharray:none;stroke-opacity:1"
             id="path264"
             inkscape:connector-curvature="0" /><path
             d="m 545.832,346.668 32.5,64.164 32.5,61.668 33.336,60 32.5,59.168 33.332,56.664 32.5,55.836 33.332,53.332 32.5,52.5 33.336,50.832 32.5,49.168 32.5,48.332 33.332,45.838 32.5,45.83 33.33,43.33 32.5,42.5 33.34,40.84 32.5,39.16 33.33,38.34 32.5,36.66 32.5,35.84 33.33,35 32.5,33.33 33.34,31.67 32.5,30.83 33.33,30 32.5,28.33 33.33,27.5 32.5,26.67 32.5,25 33.34,24.17 32.5,23.33 33.33,22.5 32.5,20.83 33.33,20.84 32.5,19.16 33.34,18.34 32.5,17.5 32.5,16.66 33.33,15.84 32.5,15 33.33,14.16 32.5,13.34 33.34,12.5 32.5,12.5 33.33,10.83 32.5,10.83 32.5,10 33.33,9.17 32.5,8.33 33.34,7.5 32.5,7.5 33.33,6.67 32.5,6.67 33.33,5.83 32.5,5 32.5,5 33.34,4.17 32.5,4.16 33.33,3.34 32.5,3.33 33.33,2.5 32.5,2.5 33.34,1.67 32.5,1.66 32.5,1.67 33.33,1.67 32.5,0.83 33.33,0.83 32.5,0.84 33.34,0 32.5,0.83 920.83,0"
             style="fill:none;stroke:#000000;stroke-width:20;stroke-linecap:butt;stroke-linejoin:round;stroke-miterlimit:10;stroke-dasharray:none;stroke-opacity:1"
             id="path266"
             inkscape:connector-curvature="0" /><path
             d="m 545.832,346.668 32.5,62.5 32.5,58.332 33.336,54.168 32.5,50 33.332,45.832 32.5,43.332 33.332,39.168 32.5,35.832 33.336,32.5 32.5,30 32.5,26.668 33.332,24.168 32.5,21.664 33.33,19.168 32.5,16.668 33.34,15 32.5,12.5 33.33,10.832 32.5,9.168 32.5,7.5 33.33,5.832 32.5,5 33.34,4.168 32.5,2.5 33.33,1.664 32.5,1.668 33.33,0.832 2366.67,0"
             style="fill:none;stroke:#000000;stroke-width:20;stroke-linecap:butt;stroke-linejoin:round;stroke-miterlimit:10;stroke-dasharray:none;stroke-opacity:1"
             id="path268"
             inkscape:connector-curvature="0" /></g></g><g
         id="g270"
         transform="scale(10,10)"><text
           transform="matrix(1,0,0,-1,144,7.75)"
           style="font-variant:normal;font-weight:normal;font-size:14px;font-family:Helvetica;-inkscape-font-specification:Helvetica;writing-mode:lr-tb;fill:#000000;fill-opacity:1;fill-rule:nonzero;stroke:none"
           id="text272"><tspan
             x="0 7.7839999 15.568 19.459999 27.243999 31.906 39.689999 42.798 46.689999 55.243999 58.352001 63.014 70.797997 74.690002 84.028 87.136002 90.244003 98.028"
             y="0"
             sodipodi:role="line"
             id="tspan274">Lateral Tire Slip </tspan></text>
<text
           transform="matrix(1,0,0,-1,245,7.75)"
           style="font-variant:normal;font-weight:normal;font-size:14px;font-family:Symbol;-inkscape-font-specification:Symbol;writing-mode:lr-tb;fill:#000000;fill-opacity:1;fill-rule:nonzero;stroke:none"
           id="text276"><tspan
             x="0"
             y="0"
             id="tspan278">α</tspan></text>
<text
           transform="matrix(1,0,0,-1,257.7252,7.75)"
           style="font-variant:normal;font-weight:normal;font-size:14px;font-family:Helvetica;-inkscape-font-specification:Helvetica;writing-mode:lr-tb;fill:#000000;fill-opacity:1;fill-rule:nonzero;stroke:none"
           id="text280"><tspan
             x="0 4.6620002 12.446 20.23 28.014"
             y="0"
             sodipodi:role="line"
             id="tspan282">(deg)</tspan></text>
<text
           transform="matrix(0,1,1,0,21.8332,62.0832)"
           style="font-variant:normal;font-weight:normal;font-size:14px;font-family:Helvetica;-inkscape-font-specification:Helvetica;writing-mode:lr-tb;fill:#000000;fill-opacity:1;fill-rule:nonzero;stroke:none"
           id="text284"><tspan
             x="0 7.7839999 15.568 19.459999 27.243999 31.906 39.689999 42.798 46.689999 55.243999 58.352001 63.014 70.797997 74.690002 83.244003 91.028 95.690002 102.69 110.474 114.366 126.028 133.812 141.59599 149.38 152.48801 156.38 164.164 171.948 179.73199 183.62399 188.286 198.394"
             y="0"
             sodipodi:role="line"
             id="tspan286">Lateral Tire Force Magnitude (N)</tspan></text>
</g></g><text
       xml:space="preserve"
       style="font-style:normal;font-weight:normal;font-size:32px;line-height:125%;font-family:sans-serif;letter-spacing:0px;word-spacing:0px;fill:#000000;fill-opacity:1;stroke:none;stroke-width:1px;stroke-linecap:butt;stroke-linejoin:miter;stroke-opacity:1"
       x="327.50128"
       y="-274.95801"
       id="text4414"
       sodipodi:linespacing="125%"
       transform="scale(1,-1)"><tspan
         sodipodi:role="line"
         id="tspan4416"
         x="327.50128"
         y="-274.95801"
         style="font-size:12px">Fx = 0 N</tspan></text>
<text
       xml:space="preserve"
       style="font-style:normal;font-weight:normal;font-size:32px;line-height:125%;font-family:sans-serif;letter-spacing:0px;word-spacing:0px;fill:#000000;fill-opacity:1;stroke:none;stroke-width:1px;stroke-linecap:butt;stroke-linejoin:miter;stroke-opacity:1"
       x="317.13934"
       y="-252.52667"
       id="text4414-0"
       sodipodi:linespacing="125%"
       transform="scale(1,-1)"><tspan
         sodipodi:role="line"
         id="tspan4416-4"
         x="317.13934"
         y="-252.52667"
         style="font-size:12px">Fx = 2 kN</tspan></text>
<text
       xml:space="preserve"
       style="font-style:normal;font-weight:normal;font-size:32px;line-height:125%;font-family:sans-serif;letter-spacing:0px;word-spacing:0px;fill:#000000;fill-opacity:1;stroke:none;stroke-width:1px;stroke-linecap:butt;stroke-linejoin:miter;stroke-opacity:1"
       x="318.00217"
       y="-228.42886"
       id="text4414-0-6"
       sodipodi:linespacing="125%"
       transform="scale(1,-1)"><tspan
         sodipodi:role="line"
         id="tspan4416-4-5"
         x="318.00217"
         y="-228.42886"
         style="font-size:12px">Fx = 4 kN</tspan></text>
<text
       xml:space="preserve"
       style="font-style:normal;font-weight:normal;font-size:32px;line-height:125%;font-family:sans-serif;letter-spacing:0px;word-spacing:0px;fill:#000000;fill-opacity:1;stroke:none;stroke-width:1px;stroke-linecap:butt;stroke-linejoin:miter;stroke-opacity:1"
       x="319.60217"
       y="-185.2287"
       id="text4414-0-6-2"
       sodipodi:linespacing="125%"
       transform="scale(1,-1)"><tspan
         sodipodi:role="line"
         id="tspan4416-4-5-0"
         x="319.60217"
         y="-185.2287"
         style="font-size:12px">Fx = 6 kN</tspan></text>
<text
       xml:space="preserve"
       style="font-style:normal;font-weight:normal;font-size:32px;line-height:125%;font-family:sans-serif;letter-spacing:0px;word-spacing:0px;fill:#000000;fill-opacity:1;stroke:none;stroke-width:1px;stroke-linecap:butt;stroke-linejoin:miter;stroke-opacity:1"
       x="319.60217"
       y="-103.62849"
       id="text4414-0-6-2-7"
       sodipodi:linespacing="125%"
       transform="scale(1,-1)"><tspan
         sodipodi:role="line"
         id="tspan4416-4-5-0-7"
         x="319.60217"
         y="-103.62849"
         style="font-size:12px">Fx = 8 kN</tspan></text>
</g></svg>